<svg xmlns="http://www.w3.org/2000/svg" xmlns:xlink="http://www.w3.org/1999/xlink" viewBox="0 0 344.16 444.19"><defs><style>.cls-1{fill:#259dab;}.cls-2{isolation:isolate;}.cls-3{clip-path:url(#clip-path);}.cls-4{fill:#432918;}.cls-5{fill:#042439;}.cls-6{fill:#be824f;}.cls-7{fill:#e5c9a6;mix-blend-mode:multiply;}.cls-8{fill:#fff;}.cls-9{fill:#093b59;}.cls-10{fill:#0b73b1;}.cls-11{fill:#583636;}.cls-12{fill:#432827;}.cls-13{fill:#730d13;}.cls-14{fill:#e73a3a;}</style><clipPath id="clip-path"><path class="cls-1" d="M344.16,172.08A172.08,172.08,0,1,1,172.08,0,172.08,172.08,0,0,1,344.16,172.08Z"/></clipPath></defs><g class="cls-2"><g id="Layer_2" data-name="Layer 2"><g id="Capa_1" data-name="Capa 1"><path class="cls-1" d="M344.16,172.08A172.08,172.08,0,1,1,172.08,0,172.08,172.08,0,0,1,344.16,172.08Z"/><g class="cls-3"><path class="cls-4" d="M107.14,137.62c0,11.9,28.69,48.65,61.77,48.65s61.56-39.22,61.56-51.11-26.81-11.52-59.89-11.52S107.14,125.74,107.14,137.62Z"/><path class="cls-5" d="M141.24,215h52.39V195.61s-5.54-5.09-23.2-5.09-24.7,3.39-24.7,3.39Z"/><polygon class="cls-6" points="123.94 255.69 213.89 255.69 222.03 211.79 184.02 203.64 184.02 178.64 153.81 178.64 153.81 203.64 115.78 211.79 123.94 255.69"/><path class="cls-7" d="M153.81,183.73s6.78,10.18,15.61,10.18S184,183.73,184,183.73v-5.09H153.81Z"/><path class="cls-6" d="M220.26,142.09C209.49,172.8,193.63,187.8,170,187.8c-23.88,0-38.91-15.34-50.65-45.71-8-20.62-3.87-45.71-3.87-45.71,0-29,8.59-60.19,54.52-60.19s54.51,36.2,54.51,64.26C224.55,100.45,225.92,126,220.26,142.09Z"/><path class="cls-6" d="M102,129.32c2.9,9.57,12.89,14.62,15.1,9.61s6.59-7.55,5.23-15.68-11.81-16.89-16.35-14.43C98.86,112.66,99.56,121.46,102,129.32Z"/><path class="cls-6" d="M236,128.32c-2.9,9.57-12.89,14.61-15.11,9.6s-6.58-7.55-5.23-15.68,11.82-16.88,16.35-14.42C239.1,111.65,238.39,120.46,236,128.32Z"/><path class="cls-4" d="M219.38,123.64s4-17.78,14.33-14.66c.49-14.93,1.37-26.26-1.2-37.75-5.68-25.3-22.47-46.76-62.63-46.76-37.24,0-56.93,22.15-63,47.18-3.18,13.18-4.74,27.83-2.69,38.33,9.9-6.47,14.39,13.66,14.39,13.66l3.66-.39s-7.51-9.42,1.65-17.85c-5.09-7.28,3.09-29,6.4-33.07C136,64.29,144,76,172.59,76s31.86-15.84,40.88-3.62c2.45,3.32,2.26,29.65.42,33.07,10.37,6.82,2.76,17.61,2.76,17.61Z"/><path class="cls-8" d="M123.93,399.16h90L213,210.82l-23.82-8.08s-5.84,9-19.59,9-18.54-9-18.54-9l-25.63,7.06Z"/><path class="cls-9" d="M193.63,195.61,173.5,298.68v51.15L179,438.2l51.72,2.92s-4-125.07-4.16-138,3.61-33.27,3.61-33.27l.93-58.09-26.24-4.46Z"/><path class="cls-10" d="M190.23,193.68c2.84,12.9-16.73,105-16.73,105v51.15l21.15-72.42-6.56-6.79,9-7.91,7.7-55.38S197.7,196.85,190.23,193.68Z"/><path class="cls-9" d="M254.84,250.25c1.61,7.65,13,132.76,12.29,167.56-2.09,4.09-21.65,11.91-24,8.8-3.31-46.91-13.93-160.19-13.93-168.18,0-10.59-8.68-46.64,1.91-46.64S249.41,224.46,254.84,250.25Z"/><path class="cls-9" d="M142.88,195.61,163,298.68v51.15l-5.23,90.45-52.22,3.91s4.26-128.14,4.41-141-3.61-33.27-3.61-33.27l-.93-58.09,26.23-4.46Z"/><path class="cls-10" d="M146.27,193.68c-2.83,12.9,16.74,105,16.74,105v51.15l-21.15-72.42,6.56-6.79-9-7.91-7.71-55.38S138.8,196.85,146.27,193.68Z"/><path class="cls-9" d="M81.66,250.25c-1.61,7.65-13.07,132.57-12.31,167.38,2.09,4.08,21.68,12.09,24.06,9,3.31-46.91,13.92-160.19,13.92-168.18,0-10.59,8.69-46.64-1.9-46.64S87.09,224.46,81.66,250.25Z"/><path class="cls-8" d="M154.82,113.92c0,2.81-4.62,6.84-10.37,6.84-7,0-11.25-4.08-11.25-8.4s6.08-7.22,11.2-6.27C150.06,107.14,154.82,110.84,154.82,113.92Z"/><path class="cls-11" d="M151.61,113.88a7.57,7.57,0,0,1-3.33,6.28c-2.55,1.27-7.67.55-8.81-.18a7.6,7.6,0,1,1,12.14-6.1Z"/><path class="cls-11" d="M133.31,113.6a6.58,6.58,0,0,1-.21-1.26,5.33,5.33,0,0,1,1-3.32c1.7-2.53,5.68-4,9.56-3.79a17.21,17.21,0,0,1,5.38,1.62,13.84,13.84,0,0,1,3.95,2.84,7,7,0,0,1,1.78,2.94,4.07,4.07,0,0,1,.1,1.29,3.94,3.94,0,0,0-.39-1.18,7.61,7.61,0,0,0-2.09-2.4,16.63,16.63,0,0,0-3.91-2.27,18.05,18.05,0,0,0-5-1.35c-3.41-.3-7.08.88-8.77,2.81A5.74,5.74,0,0,0,133.31,113.6Z"/><path class="cls-12" d="M149.2,115.21a4.85,4.85,0,1,1-4.84-4.85A4.84,4.84,0,0,1,149.2,115.21Z"/><path class="cls-8" d="M145.45,113a2.16,2.16,0,1,0,2.16-2.16A2.16,2.16,0,0,0,145.45,113Z"/><path class="cls-8" d="M146.87,109.65a.71.71,0,1,1-.71-.71A.71.71,0,0,1,146.87,109.65Z"/><path class="cls-8" d="M182.55,113.92c0,2.81,4.62,6.84,10.37,6.84,7,0,11.25-4.08,11.25-8.4s-6.08-7.22-11.21-6.27C187.3,107.14,182.55,110.84,182.55,113.92Z"/><path class="cls-11" d="M185.76,113.88a7.57,7.57,0,0,0,3.33,6.28c2.54,1.27,7.67.55,8.8-.18a7.6,7.6,0,1,0-12.13-6.1Z"/><path class="cls-11" d="M204.06,113.6a5.68,5.68,0,0,0-1.4-4.07c-1.69-1.93-5.36-3.11-8.77-2.81a18,18,0,0,0-5,1.35,16.63,16.63,0,0,0-3.91,2.27,7.74,7.74,0,0,0-2.09,2.4,3.71,3.71,0,0,0-.38,1.18,3.84,3.84,0,0,1,.09-1.29,7,7,0,0,1,1.78-2.94,13.75,13.75,0,0,1,4-2.84,16.88,16.88,0,0,1,5.38-1.62c3.88-.25,7.86,1.26,9.56,3.79a5.33,5.33,0,0,1,1,3.32A7.76,7.76,0,0,1,204.06,113.6Z"/><path class="cls-12" d="M188.16,115.21a4.85,4.85,0,1,0,4.85-4.85A4.85,4.85,0,0,0,188.16,115.21Z"/><path class="cls-8" d="M191.92,113a2.16,2.16,0,1,1-2.16-2.16A2.16,2.16,0,0,1,191.92,113Z"/><path class="cls-8" d="M190.5,109.65a.71.71,0,1,0,.71-.71A.71.71,0,0,0,190.5,109.65Z"/><path class="cls-7" d="M173.63,137a5.94,5.94,0,0,1-5,2.64c-3.39,0-5.65-1-6.15-1.57s3.34-7.35,3.34-7.35-1.79,4.74-1,5.91,3,1.16,4.06,1.16C172.35,137.77,173.63,137,173.63,137Z"/><path class="cls-13" d="M185.53,154c0,7.78-7,14.09-15.65,14.09s-15.66-6.31-15.66-14.09Z"/><path class="cls-14" d="M159.28,164.31a16.93,16.93,0,0,0,20.83.29c.73-.57-2.86-2.32-9.73-2.32S158.69,163.81,159.28,164.31Z"/><path class="cls-8" d="M183.31,157.53a13.62,13.62,0,0,0,.47-3.58H156a14.36,14.36,0,0,0,.42,3.42,3,3,0,0,0,2.46,1.84H181.1A2.42,2.42,0,0,0,183.31,157.53Z"/><path class="cls-4" d="M131.2,99.94s4.56-4.42,15.7-4.91c3.17-.14,6.48-.15,7.75,0s1.27-3.84.43-3.88-8.4-.39-11.84.25C133.27,93.17,131.2,99.94,131.2,99.94Z"/><path class="cls-4" d="M204.15,99.94s-4.56-4.42-15.7-4.91c-3.17-.14-6.48-.15-7.74,0s-1.28-3.84-.44-3.88,8.4-.39,11.85.25C202.08,93.17,204.15,99.94,204.15,99.94Z"/><path class="cls-4" d="M230.36,66.89c6.64.44,3.75-9,.49-11.2,4.67-2.5,1.23-10.28-3.59-10.59,0-4.15-4-14.41-9.47-11.76-2.25-6.8-13-15.25-19.57-8-5.58-6-14.11-10.21-22.2-11.8-4.9-1-5.16,1.16-9,3.61s-4.33.25-9-.93c-2.37-.59-8.89-1.46-11.21-.32-3.92,1.92-1.67,5.15-6.46,5.45-3.17.2-6.57-1.57-10.39-.47-3.62,1.05-5,2.68-6.44,6.22-1,2.4-1.3,4.77-2.23,7.17-9.7.31-9.35,7.14-9.5,14.94-5.61-.86-6.81,7.17-4.2,10.49-7.66,3.19,2.69,12.47,6.53,14"/></g></g></g></g></svg>