<svg xmlns="http://www.w3.org/2000/svg" xmlns:xlink="http://www.w3.org/1999/xlink" viewBox="0 0 344.16 354.91"><defs><style>.cls-1{fill:#f59d16;}.cls-2{clip-path:url(#clip-path);}.cls-3{fill:#dba87b;}.cls-4{fill:#e4b58b;}.cls-5{fill:#331b19;}.cls-6{fill:#e7e7e7;}.cls-7{fill:#00b5cf;}.cls-8{fill:#fff;}.cls-9{fill:#272127;}.cls-10{fill:#352e35;}.cls-11{fill:#432918;}.cls-12{fill:#e09d72;}</style><clipPath id="clip-path"><path class="cls-1" d="M0,172.08A172.08,172.08,0,1,1,172.08,344.16,172.08,172.08,0,0,1,0,172.08Z"/></clipPath></defs><g id="Layer_2" data-name="Layer 2"><g id="Capa_1" data-name="Capa 1"><path class="cls-1" d="M0,172.08A172.08,172.08,0,1,1,172.08,344.16,172.08,172.08,0,0,1,0,172.08Z"/><g class="cls-2"><polygon class="cls-3" points="215.52 256.95 172.83 277.17 130.15 256.95 137.67 217.96 205.87 217.96 215.52 256.95"/><path class="cls-4" d="M235.86,134c-2.05,25.29-6.91,55-16,71.55-6.13,11.16-31.15,36.39-48.07,36.39S131,217.56,123.39,204.8s-13.23-40.51-15.7-70.84c-4-49.38,28.69-71.26,64.09-71.26S239.85,84.57,235.86,134Z"/><path class="cls-4" d="M248.37,154.76c-.9,5.5-5.67,15.15-7.73,18.62-1.38,2.33-8.55,7-11.74,6.72s-2-8.88-3.15-11.81-1.66-9.1-1.5-15.79c.25-10.88,6.86-15.09,13.51-14.48S250.13,144,248.37,154.76Z"/><path class="cls-4" d="M95.44,154.76c.9,5.5,5.67,15.15,7.73,18.62,1.38,2.33,8.56,7,11.73,6.72s2-8.88,3.15-11.81,1.66-9.1,1.51-15.79C119.3,141.62,112.7,137.41,106,138S93.68,144,95.44,154.76Z"/><path class="cls-5" d="M113,133.29s4.69-7,7.53-7.91c6.72-2.22,18.32-5.76,20.56-5.77,3.88,0,10.23,2.67,10.23,2.67L149,127.14s-5-2.91-9.43-2.86a90.81,90.81,0,0,0-18,3.07C118.9,128.09,113,133.29,113,133.29Z"/><path class="cls-5" d="M230.25,133.7s-4.48-7.1-7.3-8.12c-6.66-2.42-18.13-6.31-20.37-6.38-3.88-.11-10.31,2.37-10.31,2.37l2.13,4.93s5.06-2.76,9.51-2.58a89.3,89.3,0,0,1,17.87,3.59C224.48,128.33,230.25,133.7,230.25,133.7Z"/><path class="cls-5" d="M107.35,138l6.23,23.74,4.93-1.42S107,119,112.94,107.73,124.15,91.5,130.86,90.8s21.87,5.64,34.92,4.94,30-10.93,36.33-10.93S223.63,95,225.74,102.08s2.12,50.22,2.12,50.22l2.39,3.41L236.19,138l6.89,1.78s5.6-57.77-5-71.17-41.27-30-73.37-30c-27.05,0-60.45,24.68-66.44,40.21-7.25,18.75.48,62.47.48,62.47Z"/><polygon class="cls-6" points="223.16 354.91 223.16 257.79 170.43 274.12 119.59 257.79 119.59 354.91 223.16 354.91"/><path class="cls-7" d="M171.93,274.12s-14.4,5-14.4,9.5,7.88,16.16,7.88,16.16h14.4s6.53-11.62,6.53-16.16S171.93,274.12,171.93,274.12Z"/><polygon class="cls-7" points="184.89 354.91 179.81 299.78 165.41 299.78 159.99 354.91 184.89 354.91"/><polygon class="cls-8" points="235.86 253.66 190.12 283.76 172.22 274.16 211.39 234.45 235.86 253.66"/><polygon class="cls-8" points="108.51 253.42 153.04 283.76 172.22 274.16 132.9 234.3 108.51 253.42"/><path class="cls-9" d="M298.21,354.91c-4.09-41.05-9.45-80.53-15.39-87.58-13.1-15.51-65.74-28.43-65.74-28.43l-16.64,116Z"/><polygon class="cls-10" points="222.24 354.91 250.24 299.1 228.39 287.62 244.39 277.98 217.08 238.9 200.81 354.91 222.24 354.91"/><path class="cls-9" d="M143.72,354.91l-16.64-116s-52.65,12.92-65.74,28.43C55.4,274.38,50,313.86,46,354.91Z"/><polygon class="cls-10" points="121.91 354.91 143.35 354.91 127.08 238.9 99.77 277.98 115.76 287.62 93.91 299.1 121.91 354.91"/><path class="cls-3" d="M164,205.28s9.9-1.3,12,0a43,43,0,0,0,5.6,2.58"/><path class="cls-8" d="M219.71,139.52a13.36,13.36,0,0,1-3.9,6.72c-2.46,2.32-17.46,3.88-19.05,3.17-2.36-1.06-5.45-6.12-5.45-6.12S196.6,136,203.12,136,219.71,139.52,219.71,139.52Z"/><path class="cls-11" d="M203.12,137.45c4.71,0,11.26,1.82,14.54,2.83.75.24.36,2.8-.89,4.94a9.55,9.55,0,0,0,2.94-5.7s-10.08-3.5-16.59-3.5-11.81,7.27-11.81,7.27a2.79,2.79,0,0,0,.77,1.17C193.25,143,197.48,137.45,203.12,137.45Z"/><path class="cls-11" d="M210.31,142.63A6.61,6.61,0,1,1,203.7,136,6.6,6.6,0,0,1,210.31,142.63Z"/><path class="cls-8" d="M209.36,142.64c0,2.8-7.85-5.06-5.06-5.06A5.06,5.06,0,0,1,209.36,142.64Z"/><path class="cls-8" d="M123,139.52a13.36,13.36,0,0,0,3.9,6.72c2.46,2.32,17.46,3.88,19.05,3.17,2.36-1.06,5.44-6.12,5.44-6.12s-5.29-7.27-11.8-7.27S123,139.52,123,139.52Z"/><path class="cls-11" d="M139.63,137.45c-4.71,0-11.26,1.82-14.54,2.83-.75.24-.36,2.8.89,4.94a9.49,9.49,0,0,1-2.94-5.7s10.08-3.5,16.59-3.5,11.8,7.27,11.8,7.27a2.71,2.71,0,0,1-.76,1.17C149.5,143,145.28,137.45,139.63,137.45Z"/><path class="cls-11" d="M132.44,142.63a6.61,6.61,0,1,0,6.61-6.61A6.6,6.6,0,0,0,132.44,142.63Z"/><path class="cls-8" d="M133.39,142.64c0,2.8,7.85-5.06,5.06-5.06A5.06,5.06,0,0,0,133.39,142.64Z"/><polygon class="cls-12" points="171.96 172.44 166.03 167.75 171.96 153.92 171.96 172.44"/><polygon class="cls-12" points="155.11 198.22 152.89 196.06 192.78 193.91 185.62 198.22 155.11 198.22"/></g></g></g></svg>