<svg xmlns="http://www.w3.org/2000/svg" xmlns:xlink="http://www.w3.org/1999/xlink" viewBox="0 0 344.16 344.16"><defs><style>.cls-1{fill:#724a5d;}.cls-2{isolation:isolate;}.cls-3{clip-path:url(#clip-path);}.cls-4{fill:#352e35;}.cls-5{fill:#f9bb8d;}.cls-6{fill:#e09d72;}.cls-7{fill:#e7dcd6;}.cls-12,.cls-7{mix-blend-mode:multiply;}.cls-11,.cls-8{fill:#fff;}.cls-9{fill:#432918;}.cls-10{fill:#ededed;}.cls-11{mix-blend-mode:soft-light;opacity:0.4;}.cls-12{fill:#e9e9e9;}.cls-13{fill:#c13a2a;}.cls-14{fill:#a81916;}.cls-15{fill:#c31b1c;}.cls-16{fill:none;stroke:#301b16;stroke-miterlimit:10;stroke-width:3.67px;}</style><clipPath id="clip-path"><path class="cls-1" d="M0,172.08A172.08,172.08,0,1,1,172.08,344.16,172.08,172.08,0,0,1,0,172.08Z"/></clipPath></defs><g class="cls-2"><g id="Layer_2" data-name="Layer 2"><g id="Capa_1" data-name="Capa 1"><path class="cls-1" d="M0,172.08A172.08,172.08,0,1,1,172.08,344.16,172.08,172.08,0,0,1,0,172.08Z"/><g class="cls-3"><path class="cls-4" d="M219.39,188.57c-19,22.58-43.12,30.06-52.56,30-9.65,0-35.71-6.78-55.07-30.45-11-13.41-15.42-39.75-18.25-58.13-1.63-10.56-6-45,1.41-56.18a59.73,59.73,0,0,1,22.73-20.11c1.24-.64-10-7.13-8.63-7.72.53-.24,12.64,3.07,12,0-1-4.8-2.73-10.79-2.73-10.79s6.1,8.87,15.87,8.84c10,0,19.48,0,30.57,0,13.74,0,33.07-.32,35.34,8.82C218.63,52.32,228,62,232.55,70.26c6.65,12.06,9.06,28.94,7.28,45C237.49,136.42,230.8,175,219.39,188.57Z"/><path class="cls-5" d="M106,145.31s2.32-17.53-12.9-13.31c-11.73,3.26.17,35.83,7.88,38.64,6.58,2.4,8-2.65,8-2.65Z"/><path class="cls-5" d="M226.06,145.78s-2.19-17.55,13-13.2c11.7,3.35-.46,35.82-8.19,38.57-6.61,2.36-8-2.71-8-2.71Z"/><path class="cls-5" d="M253.15,344.16l8.71-89.59S230.07,240.48,211.79,236c-17.2-4.21-37.38-3.82-39.49-3.77s-22.28-.61-39.51,3.45c-18.31,4.32-49.68,18.16-49.68,18.16s6.79,41.89,13.36,90.3Z"/><path class="cls-5" d="M166.69,265.2s42.8-29,40.24-30.37c-14.83-8.23-13.85-31.1-13.85-31.1l-53.79-3s3.28,32.89-12.67,36.89C125.45,237.89,166.69,265.2,166.69,265.2Z"/><path class="cls-6" d="M138.49,220.34A19.74,19.74,0,0,1,145,224.1c7.07,6.05,23.48,15.13,33.34,12.08,7.29-2.26,12.7-8.62,17.81-14.47a50,50,0,0,1-3.09-18l-53.79-3A79.94,79.94,0,0,1,138.49,220.34Z"/><path class="cls-5" d="M227.57,153.71c-2.65,19.24-3.47,30.35-14.66,43.91-7.78,9.43-24.75,23.65-37.17,29.43-3.49,1.62-14.7,1.8-18.21.43-13.57-5.24-32.65-19.12-39.31-30.24-8.84-14.77-11.21-26.54-13.77-44-3.07-21-3.35-13.6-3.27-33.4.16-40.32,15.83-69.37,61-69.19s68.2,25.61,68.73,67C231.23,140.32,230.48,132.63,227.57,153.71Z"/><path class="cls-7" d="M118.74,124.75c6.09-6.29,15.67-4.66,24.17-4.88,8-.21,25.67-3,31.61-9.85,5.26-6.08,14.89-14.93,23.53-14.9,20,.08,23.29,37.39,26.39,53.51.84,4.32,1.89,1.29,3,5.76,0-.24.06-.45.09-.68,2.91-21.08,3.66-13.39,3.38-36.08-.53-41.38-22.2-69.56-67.44-69.74s-62.17,31.62-62.33,71.94c-.07,18.89,5.29,13,8,30.61C113.06,142.29,111.54,132.19,118.74,124.75Z"/><path class="cls-4" d="M114.84,122.16c15-11.25,58.42-1.45,77.81-34.7,23,.38,26.58,25.74,30.21,34,1.69,3.83,1.62,35.45,1.62,35.45a29.05,29.05,0,0,0,3.09-3.21c2.91-21.08,6.23-12.83,5.94-35.51-.52-41.39-24.76-70.13-70-70.31S99.1,79.49,99,119.81c-.09,19.8,2.43,12.42,5.5,33.42,0,.32,4.57-1.39,4.57-1.39S111.82,124.42,114.84,122.16Z"/><path class="cls-5" d="M84,344.16,92.11,320s22.2-75.32-9-66.11c-19.49,5.75-32.58,52.22-40.12,90.3Z"/><path class="cls-5" d="M261.44,344.16h41.09c-7.29-37.93-20-83.74-39.21-89.59-31.14-9.46-9.54,66-9.54,66Z"/><path class="cls-8" d="M211.69,145.49a12.51,12.51,0,0,1-3.65,6.22c-2.29,2.15-16.23,3.54-17.7,2.88-2.19-1-5-5.71-5-5.71s4.93-6.72,11-6.7S211.69,145.49,211.69,145.49Z"/><path class="cls-9" d="M196.29,143.51c4.37,0,10.46,1.73,13.49,2.68.7.22.33,2.61-.84,4.58a8.87,8.87,0,0,0,2.75-5.28s-9.35-3.28-15.39-3.31-11,6.7-11,6.7A2.5,2.5,0,0,0,186,150C187.09,148.62,191,143.48,196.29,143.51Z"/><path class="cls-9" d="M203,148.34a6.14,6.14,0,1,1-6.12-6.16A6.14,6.14,0,0,1,203,148.34Z"/><path class="cls-8" d="M202.07,148.34c0,2.6-7.28-4.73-4.68-4.71A4.71,4.71,0,0,1,202.07,148.34Z"/><path class="cls-4" d="M114.84,134.88s3.47-2.2,11.2-4.57c8.42-2.57,19.9,1.47,20.35,1.48.78,0,1.94-.21,2-2.26s-.62-3.73-1.41-3.74c-.43,0-11.82-2.74-20.37-.24C120,127.47,114.84,134.88,114.84,134.88Z"/><path class="cls-4" d="M218.39,135.29s-3.41-2.23-11-4.66c-8.28-2.64-19.64,1.31-20.08,1.31-.78,0-1.92-.21-1.92-2.26S186,126,186.8,126c.44,0,11.68-2.65,20.1-.08C213.34,127.84,218.39,135.29,218.39,135.29Z"/><path class="cls-8" d="M121.91,145.13a12.47,12.47,0,0,0,3.6,6.25c2.28,2.17,16.2,3.67,17.68,3,2.2-1,5.07-5.67,5.07-5.67s-4.88-6.76-10.92-6.79S121.91,145.13,121.91,145.13Z"/><path class="cls-9" d="M137.33,143.27c-4.37,0-10.47,1.65-13.52,2.58-.69.21-.34,2.6.82,4.59a8.84,8.84,0,0,1-2.72-5.31s9.37-3.21,15.43-3.19,10.92,6.79,10.92,6.79a2.49,2.49,0,0,1-.7,1.08C146.48,148.45,142.57,143.29,137.33,143.27Z"/><path class="cls-9" d="M130.64,148.05a6.14,6.14,0,1,0,6.16-6.11A6.12,6.12,0,0,0,130.64,148.05Z"/><path class="cls-8" d="M131.51,148.07c0,2.6,7.32-4.68,4.72-4.69A4.71,4.71,0,0,0,131.51,148.07Z"/><polygon class="cls-6" points="166.01 174.12 160.53 169.74 166.09 156.92 166.01 174.12"/><polygon class="cls-6" points="152.26 195.63 148.19 191.95 154.99 193.72 178.66 193.55 185.31 191.45 180.16 195.64 152.26 195.63"/><path class="cls-10" d="M260.31,344.16h44.47c-7.49-38.19-21.84-85.07-41.37-90.92-31.18-9.35-9.27,66.07-9.27,66.07S257.33,332.19,260.31,344.16Z"/><path class="cls-11" d="M293,344.16h11.83c-6.54-33.33-18.3-73.27-34.18-86.8a182.41,182.41,0,0,1,20.22,53.15A124.24,124.24,0,0,1,293,344.16Z"/><path class="cls-12" d="M260.31,344.16h12.26c-6.29-8.92-11-23.27-15.55-43.83,0-.19-5.88,6.52-6,6.39,1.65,7.43,3.15,12.59,3.15,12.59S257.33,332.19,260.31,344.16Z"/><path class="cls-10" d="M86.48,344.16l6-24.85s21.91-75.42-9.27-66.07c-19.56,5.85-36,52.72-43.82,90.92Z"/><path class="cls-12" d="M86.48,344.16l6-24.85s1.31-4.53,2.84-11.22c-7.37,8.57-14,26.2-18.7,31.72a55.18,55.18,0,0,1-4.1,4.35Z"/><path class="cls-8" d="M131.22,248.81s8.51,7.39,38,7.39,38-7.39,38-7.39v45.95H131.22Z"/><path class="cls-13" d="M253.47,344.16,262,253.24S227.47,236.34,207.8,234c-16.22,39.53-40,55.84-40,55.84s-25.45-24.38-39.22-54.44c-18.28,4.39-45.42,17.82-45.42,17.82s6.27,42.26,12.36,90.92Z"/><path class="cls-14" d="M86.36,275.24c1.44,10.26,3.27,23.48,5.25,38.31l16.7-19.46Z"/><path class="cls-14" d="M140.52,256.57a157,157,0,0,1-11.91-21.15,145.38,145.38,0,0,0-14.81,4.63l23.54,20.21Z"/><path class="cls-14" d="M83.19,253.24s.08.52.21,1.43L85.67,252C84.1,252.78,83.19,253.24,83.19,253.24Z"/><polygon class="cls-14" points="166.64 344.16 142.12 323.12 124.06 344.16 166.64 344.16"/><path class="cls-14" d="M217.05,235.85A70.37,70.37,0,0,0,207.8,234a166.33,166.33,0,0,1-9.65,19.71l2,1.76Z"/><polygon class="cls-14" points="253.47 344.16 254.93 328.57 241.54 344.16 253.47 344.16"/><path class="cls-14" d="M257.18,304.4,262,253.24l-.77-.38L234,284.51Z"/><path class="cls-14" d="M108.31,294.09l33.81,29,29-33.82-1.23-1.05c-1.31,1.07-2.1,1.61-2.1,1.61a198.7,198.7,0,0,1-14.06-15.49l-16.43-14.11Z"/><polygon class="cls-14" points="234.01 284.51 200.19 255.49 171.16 289.3 204.98 318.34 234.01 284.51"/><polygon class="cls-14" points="235.06 344.16 204.98 318.34 182.81 344.16 235.06 344.16"/><path class="cls-15" d="M234,284.51l27.17-31.65c-4.18-2-26.42-12.48-44.13-17l-16.86,19.64Z"/><path class="cls-15" d="M153.77,274.37a216.54,216.54,0,0,1-13.25-17.8l-3.18,3.69Z"/><path class="cls-15" d="M200.19,255.49l-2-1.76c-11.41,19.79-23.47,30.7-28.22,34.52l1.23,1.05Z"/><polygon class="cls-15" points="241.54 344.16 254.93 328.57 257.18 304.4 234.01 284.51 204.98 318.34 235.06 344.16 241.54 344.16"/><path class="cls-15" d="M137.34,260.26,113.8,240.05c-11.65,4.28-23.22,9.64-28.13,12l-2.27,2.63c.43,2.92,1.5,10.23,3,20.57l22,18.85Z"/><polygon class="cls-15" points="182.81 344.16 204.98 318.34 171.16 289.3 142.12 323.12 166.64 344.16 182.81 344.16"/><path class="cls-15" d="M98.22,344.16h25.85l18.05-21-33.81-29-16.7,19.46c1.17,8.88,2.39,18.31,3.62,28.05Z"/><path class="cls-12" d="M106.74,344.16c-1.12-3.71-2.32-7.39-3.74-11-3.27-8.32-7.83-15.93-12-23.79,1.45,10.83,3,22.64,4.51,34.83Z"/><path class="cls-10" d="M184.2,244,201,220.75,207.8,234s-10.07,39.94-40,55.84C183.35,276.1,184.2,244,184.2,244Z"/><path class="cls-12" d="M201,220.75l-.29.41c.42,43.63-30.29,66.45-32.84,68.7,29.9-15.9,40-55.84,40-55.84Z"/><path class="cls-10" d="M153.12,244,133,220.75l-4.43,14.67s9.33,38.54,39.22,54.44C152.32,276.1,153.12,244,153.12,244Z"/><path class="cls-12" d="M147.28,263c-6.42-11.55-10.3-24.26-15.25-36.44-.16-.39-.27-.78-.39-1.17l-3,10s9.33,38.54,39.22,54.44a35.27,35.27,0,0,1-8.29-11.8A57,57,0,0,1,147.28,263Z"/><path class="cls-16" d="M153.57,165.85c-5.5,4.32-22.62,4.55-29.36,0s-14.68-22.15-7.64-28,37-5.74,41.89,0S159.08,161.53,153.57,165.85Z"/><path class="cls-16" d="M181.09,165.85c5.51,4.32,22.64,4.55,29.36,0s14.68-22.15,7.65-28-37-5.74-41.9,0S175.59,161.53,181.09,165.85Z"/><line class="cls-16" x1="160.61" y1="143.22" x2="174.07" y2="143.22"/></g></g></g></g></svg>