<svg xmlns="http://www.w3.org/2000/svg" xmlns:xlink="http://www.w3.org/1999/xlink" viewBox="0 0 344.16 344.16"><defs><style>.cls-1{fill:#e94e1b;}.cls-2{isolation:isolate;}.cls-3{clip-path:url(#clip-path);}.cls-4{fill:#432918;}.cls-5{fill:#042439;}.cls-6{fill:#fedfb3;}.cls-7{fill:#e5c9a6;mix-blend-mode:multiply;}.cls-8{fill:#fff;}.cls-9{fill:#004b81;}.cls-10{fill:#0b73b1;}.cls-11{fill:#cea27b;}.cls-12{fill:#583636;}.cls-13{fill:#432827;}</style><clipPath id="clip-path"><path class="cls-1" d="M344.16,172.08A172.08,172.08,0,1,1,172.08,0,172.08,172.08,0,0,1,344.16,172.08Z"/></clipPath></defs><g class="cls-2"><g id="Layer_2" data-name="Layer 2"><g id="Capa_1" data-name="Capa 1"><path class="cls-1" d="M344.16,172.08A172.08,172.08,0,1,1,172.08,0,172.08,172.08,0,0,1,344.16,172.08Z"/><g class="cls-3"><path class="cls-4" d="M106.11,130.89c0,11.89,28.68,48.65,61.76,48.65s61.56-39.23,61.56-51.11-26.81-11.52-59.89-11.52S106.11,119,106.11,130.89Z"/><path class="cls-5" d="M140.2,208.22h52.39V188.87s-5.54-5.09-23.2-5.09-24.7,3.4-24.7,3.4Z"/><polygon class="cls-6" points="122.89 248.95 212.85 248.95 220.99 205.05 182.98 196.91 182.98 171.9 152.76 171.9 152.76 196.91 114.75 205.05 122.89 248.95"/><path class="cls-7" d="M152.76,177s6.79,10.19,15.62,10.19S183,177,183,177V171.9H152.76Z"/><path class="cls-6" d="M219.22,135.36c-10.76,30.7-26.63,45.71-50.22,45.71-23.87,0-38.91-15.34-50.65-45.71-8-20.62-3.87-45.71-3.87-45.71,0-29,8.59-60.19,54.52-60.19s54.52,36.2,54.52,64.26C223.52,93.72,224.88,119.23,219.22,135.36Z"/><path class="cls-6" d="M100.91,122.59c2.9,9.57,12.89,14.61,15.11,9.6s6.58-7.55,5.23-15.67-11.82-16.89-16.36-14.44C97.82,105.92,98.52,114.73,100.91,122.59Z"/><path class="cls-6" d="M235,121.59c-2.9,9.57-12.9,14.61-15.12,9.6s-6.58-7.55-5.22-15.68S226.44,98.63,231,101.08C238.06,104.92,237.35,113.73,235,121.59Z"/><path class="cls-4" d="M218.34,116.9s4-17.78,14.34-14.65c.24-7.38.55-19.94.55-19.94s4.86-2.83,5.43-6.79c-8.94-10.08-15-61-67.56-62.8-10.71-.37-23-1.36-31.5,10-19.64-10.23-32.08,30.92-40.36,42-.84,1.12,6,2.89,5.7,4.28-2.52,12-3.58,24.79-1.75,34.2,9.9-6.48,14.4,13.66,14.4,13.66l3.66-.39s-5.68-10,1.65-17.85c-1.4-31.35,15-28,20.72-35.19,20.7-19.53,9,5.43,35.55,16.23,24.66,10,35.2,9,33.68,19,7.76,6.59,2.76,17.61,2.76,17.61Z"/><path class="cls-8" d="M122.9,392.43h89.95L212,204.09,188.13,196s-5.84,9.05-19.59,9.05S150,196,150,196l-25.62,7.07Z"/><path class="cls-9" d="M192.59,188.87l-7.68,27.74-16.63,16.07-4.42,204.78,65.8-3.08s-4-125.07-4.16-138,3.61-33.27,3.61-33.27l.93-58.09-26.24-4.46Z"/><path class="cls-10" d="M189.2,187c2.83,12.9-20.92,45.73-20.92,45.73L189.34,230l-2.52-8.15,12.3.46,4.68-21.68S196.67,190.12,189.2,187Z"/><path class="cls-9" d="M253.8,243.52c1.61,7.64,13.05,132.76,12.29,167.56-2.09,4.08-21.65,11.91-24,8.8-3.32-46.91-13.94-160.19-13.94-168.19,0-10.59-8.68-46.64,1.91-46.64S248.38,217.73,253.8,243.52Z"/><path class="cls-9" d="M141.84,188.87l10.92,28.19,15.52,15.62-4.42,204.78-59.35-3.08s4.27-125.07,4.42-138-3.61-33.27-3.61-33.27l-.93-58.09,26.24-4.46Z"/><path class="cls-9" d="M80.63,243.52C79,251.16,67.55,376.09,68.31,410.9,70.4,415,90,423,92.37,419.88c3.31-46.91,13.92-160.19,13.92-168.19,0-10.59,8.69-46.64-1.9-46.64S86.05,217.73,80.63,243.52Z"/><path class="cls-7" d="M172.59,130.25a5.93,5.93,0,0,1-5,2.64c-3.4,0-5.66-1-6.16-1.57s3.34-7.36,3.34-7.36-1.79,4.75-1,5.92,3,1.15,4.06,1.15C171.31,131,172.59,130.25,172.59,130.25Z"/><path class="cls-11" d="M151.31,149.18a1.44,1.44,0,0,0,.19.39,5.15,5.15,0,0,0,.79.85,5.52,5.52,0,0,0,1.51.88,3.11,3.11,0,0,0,.89.24,1.22,1.22,0,0,0,.34,0l.67-.1c.91-.12,1.71-.31,2.74-.53l3.19-.68a41.78,41.78,0,0,1,7.22-.84l3.66.22A23.18,23.18,0,0,1,176,150c1.15.21,2.28.33,3.28.6l2.8.67a7.42,7.42,0,0,0,1,.25,1.86,1.86,0,0,0,.83-.12,4.25,4.25,0,0,0,1.47-.83,3,3,0,0,0,.92-1.28,2.57,2.57,0,0,1-.3,1.74,5.4,5.4,0,0,1-1.33,1.69,4.06,4.06,0,0,1-1.34.63,4.37,4.37,0,0,1-1.53,0l-3-.31-3.15-.29c-1.08-.1-2.18-.21-3.39-.23l-3.51-.13a58.81,58.81,0,0,0-6.8.52c-1.12.11-2.19.29-3.24.37s-2.14.19-3,.18l-.67,0a2.72,2.72,0,0,1-.9-.18,4,4,0,0,1-1.22-.74,6.56,6.56,0,0,1-1.3-1.65A2.39,2.39,0,0,1,151.31,149.18Z"/><path class="cls-4" d="M130.17,93.21s4.55-4.43,15.69-4.92c3.18-.14,6.48-.15,7.74,0s1.28-3.84.44-3.88-8.4-.38-11.84.25C132.23,86.44,130.17,93.21,130.17,93.21Z"/><path class="cls-4" d="M203.1,93.21s-4.54-4.43-15.69-4.92c-3.17-.14-6.48-.15-7.74,0s-1.28-3.84-.44-3.88,8.4-.38,11.85.25C201,86.44,203.1,93.21,203.1,93.21Z"/><path class="cls-8" d="M154.59,110.11c0,1.93-4,3.85-10.11,3.85-7.45,0-11.83-3-11.83-5.31,0-4.59,6.62-6.66,12-5.65C150.7,104.11,154.59,106.85,154.59,110.11Z"/><path class="cls-12" d="M150.23,108.79a5.93,5.93,0,0,1-2.59,5c-2.13.16-5.7.39-7.49-.22a5.8,5.8,0,0,1-2.17-5.25,5.93,5.93,0,0,1,6.13-5.33C147.49,103,150.23,105.21,150.23,108.79Z"/><path class="cls-12" d="M132.65,109.34s0-.45-.08-1.23a5.55,5.55,0,0,1,1.17-3.15,7.77,7.77,0,0,1,4.18-2.36,19.73,19.73,0,0,1,5.39-.27,16.12,16.12,0,0,1,5.25,1.24,12.45,12.45,0,0,1,3.95,2.57,7,7,0,0,1,1.9,2.74,2.58,2.58,0,0,1,.18,1.23,2.86,2.86,0,0,0-.48-1.09,8.77,8.77,0,0,0-2.22-2.14,16.19,16.19,0,0,0-3.86-2,19.83,19.83,0,0,0-4.87-1c-3.38-.36-7,0-8.79,1.67A6.09,6.09,0,0,0,132.65,109.34Z"/><path class="cls-13" d="M147.72,109.66a3.45,3.45,0,1,1-3.44-3.45A3.45,3.45,0,0,1,147.72,109.66Z"/><path class="cls-8" d="M145.05,108.07a1.54,1.54,0,1,0,1.54-1.54A1.54,1.54,0,0,0,145.05,108.07Z"/><path class="cls-8" d="M146.06,105.71a.51.51,0,1,1-.5-.5A.5.5,0,0,1,146.06,105.71Z"/><path class="cls-8" d="M182.47,110.11c0,1.93,4,3.85,10.1,3.85,7.46,0,11.84-3,11.84-5.31,0-4.59-6.62-6.66-12.06-5.65C186.36,104.11,182.47,106.85,182.47,110.11Z"/><path class="cls-12" d="M186.82,108.79a5.94,5.94,0,0,0,2.6,5c2.12.16,5.68.39,7.48-.22a5.8,5.8,0,0,0,2.17-5.25A5.93,5.93,0,0,0,193,103C189.56,103,186.82,105.21,186.82,108.79Z"/><path class="cls-12" d="M204.41,109.34a6.09,6.09,0,0,0-1.72-3.79c-1.8-1.72-5.42-2-8.8-1.67a19.93,19.93,0,0,0-4.87,1,16.19,16.19,0,0,0-3.86,2,8.77,8.77,0,0,0-2.22,2.14,2.92,2.92,0,0,0-.47,1.09,2.48,2.48,0,0,1,.17-1.23,7.12,7.12,0,0,1,1.9-2.74,12.39,12.39,0,0,1,4-2.57,16,16,0,0,1,5.25-1.24,19.73,19.73,0,0,1,5.39.27,7.81,7.81,0,0,1,4.18,2.36,5.6,5.6,0,0,1,1.16,3.15C204.43,108.89,204.41,109.34,204.41,109.34Z"/><path class="cls-13" d="M189.34,109.66a3.44,3.44,0,1,0,3.44-3.45A3.45,3.45,0,0,0,189.34,109.66Z"/><path class="cls-8" d="M192,108.07a1.54,1.54,0,1,1-1.54-1.54A1.55,1.55,0,0,1,192,108.07Z"/><path class="cls-8" d="M191,105.71a.5.5,0,0,0,.5.5.5.5,0,1,0,0-1A.5.5,0,0,0,191,105.71Z"/><path class="cls-10" d="M145.07,187c-2.82,12.9,23.21,45.73,23.21,45.73L146.61,230l.84-8.23-12.31.46-4.68-21.68S137.61,190.12,145.07,187Z"/><path class="cls-8" d="M172.15,250.1a3.86,3.86,0,1,1-3.85-3.86A3.85,3.85,0,0,1,172.15,250.1Z"/><path class="cls-8" d="M172.15,282.07a3.86,3.86,0,1,1-3.85-3.86A3.85,3.85,0,0,1,172.15,282.07Z"/><path class="cls-8" d="M172.15,314a3.86,3.86,0,1,1-3.85-3.86A3.85,3.85,0,0,1,172.15,314Z"/><circle class="cls-8" cx="168.3" cy="346.01" r="3.85"/></g></g></g></g></svg>