<svg xmlns="http://www.w3.org/2000/svg" xmlns:xlink="http://www.w3.org/1999/xlink" viewBox="0 0 344.16 815.79"><defs><style>.cls-1{fill:#e73a3a;}.cls-2{clip-path:url(#clip-path);}.cls-3{fill:#87382c;}.cls-4{fill:#fac697;}.cls-5{fill:#db9d73;}.cls-6{fill:#432918;}.cls-7{fill:#52868d;}.cls-8{fill:#583636;}.cls-9{fill:#fff;}.cls-10{fill:#432827;}.cls-11{fill:#c0102c;}.cls-12{fill:#f49e87;}.cls-13{fill:#72bcc6;}.cls-14{fill:#5d979f;}</style><clipPath id="clip-path"><path class="cls-1" d="M344.16,172.08A172.08,172.08,0,1,1,172.08,0,172.08,172.08,0,0,1,344.16,172.08Z"/></clipPath></defs><g id="Layer_2" data-name="Layer 2"><g id="Capa_1" data-name="Capa 1"><path class="cls-1" d="M344.16,172.08A172.08,172.08,0,1,1,172.08,0,172.08,172.08,0,0,1,344.16,172.08Z"/><g class="cls-2"><path class="cls-3" d="M150,219.87h54.73V199.65s-5.79-5.32-24.23-5.32-25.81,3.55-25.81,3.55Z"/><polygon class="cls-4" points="131.95 262.43 225.93 262.43 234.45 216.55 194.73 208.04 194.73 181.92 163.16 181.92 163.16 208.04 123.44 216.55 131.95 262.43"/><path class="cls-5" d="M163.16,187.24s7.09,10.64,16.31,10.64,15.26-10.64,15.26-10.64v-5.32H163.16Z"/><path class="cls-4" d="M232.6,143.74c-5.38,17-30,47.75-52.48,47.75-20.18,0-46.64-25.53-52.91-47.75s-4-47.76-4-47.76c0-30.27,9-62.89,57-62.89s57,37.82,57,67.14C237.08,100.23,238,126.72,232.6,143.74Z"/><path class="cls-4" d="M113.84,131.67c3,10,8.61,14,10.93,8.76s6.87-7.89,5.46-16.38-9.07-17.48-13.81-14.91C109,113.15,111.35,123.46,113.84,131.67Z"/><path class="cls-4" d="M246.62,128.13c-3,10-11.05,16.48-13.36,11.25s-6.89-7.89-5.46-16.38,10.35-17.42,15.09-14.85C250.28,112.16,249.1,119.93,246.62,128.13Z"/><path class="cls-6" d="M225.65,131.67c9-4.48,8-23.74,19.23-23.74,7.93-39-10.91-92.37-64.82-92.37-57.28,0-71,58.06-68.69,94.63,10.34-6.76,6.19,12.74,20.32,21.48-5.72-12.29,6.89-8.8.79-28.6,5.94-8.39-1.35-42.68,46.46-42.68s36.17,24.24,45.59,37S229,126.48,225.65,131.67Z"/><path class="cls-7" d="M263.05,256.75c1.69,8,9.31,109.74,8.52,146.12-2.18,4.26-18.3,10.18-20.79,6.93-3.46-49-14.55-136.16-14.55-144.52,0-11.06-9.07-48.73,2-48.73S257.38,229.79,263.05,256.75Z"/><path class="cls-7" d="M228.06,310.65c.47-11.34,8.17-45.37,8.17-45.37l2-48.73-21.74-4.65-11.72-12.25-32.54,3.43-21-3.19-11.72,12.24-21.74,4.66,2,48.74s11.76,37,12.23,48.36c-11,28.92-25.48,39.27-28.17,112.14S91.91,815.79,91.91,815.79H271.62s-15.79-356.34-20.84-406S238,335.72,228.06,310.65Z"/><path class="cls-7" d="M92.91,257c-1.69,8-9.31,109.75-8.52,146.11,2.18,4.27,18.3,10.18,20.78,6.93,3.46-49,14.55-136.15,14.55-144.5,0-11.07,9.07-48.74-2-48.74S98.58,230,92.91,257Z"/><path class="cls-8" d="M141.71,111.18l-.74-.49a5.68,5.68,0,0,1-.8-.86,6.9,6.9,0,0,1-.49-1.07,7.28,7.28,0,0,1-.18-2.88,7.16,7.16,0,0,0,.95,2.53,5,5,0,0,0,.59.67c.23.11.33.24.53.33l.85.24a.85.85,0,1,1-.48,1.63A.94.94,0,0,1,141.71,111.18Z"/><path class="cls-9" d="M165.7,113.87c0,3.11-5.11,7.57-11.48,7.57-7.78,0-12.47-4.51-12.47-9.3s6.74-8,12.42-7C160.43,106.36,165.7,110.45,165.7,113.87Z"/><path class="cls-8" d="M162.15,113.82a8.39,8.39,0,0,1-3.69,7c-2.81,1.4-8.5.62-9.75-.21a8.41,8.41,0,1,1,13.44-6.75Z"/><path class="cls-8" d="M141.88,113.51a7.51,7.51,0,0,1-.23-1.39,5.85,5.85,0,0,1,1-3.69,9.54,9.54,0,0,1,4.4-3.25,14.94,14.94,0,0,1,6.19-.94,14.17,14.17,0,0,1,3.12.68,20,20,0,0,1,2.84,1.12,14.91,14.91,0,0,1,4.38,3.15,7.61,7.61,0,0,1,2,3.25,4.21,4.21,0,0,1,.1,1.43,4.48,4.48,0,0,0-.41-1.31A8.64,8.64,0,0,0,163,109.9a18.42,18.42,0,0,0-4.33-2.51,17.81,17.81,0,0,0-2.66-.94,21.78,21.78,0,0,0-2.83-.56c-3.77-.33-7.83,1-9.71,3.12A6.28,6.28,0,0,0,141.88,113.51Z"/><path class="cls-10" d="M159.49,115.29a5.37,5.37,0,1,1-5.37-5.36A5.37,5.37,0,0,1,159.49,115.29Z"/><path class="cls-9" d="M155.33,112.81a2.4,2.4,0,1,0,2.4-2.4A2.39,2.39,0,0,0,155.33,112.81Z"/><path class="cls-9" d="M156.9,109.14a.78.78,0,0,1-.78.79.79.79,0,1,1,0-1.58A.78.78,0,0,1,156.9,109.14Z"/><path class="cls-8" d="M219.71,109.65l.85-.24c.2-.09.29-.22.53-.33a5.85,5.85,0,0,0,.59-.67,7.16,7.16,0,0,0,.95-2.53,7.4,7.4,0,0,1-.19,2.88,5.66,5.66,0,0,1-.48,1.07,5.24,5.24,0,0,1-.81.86l-.73.49a.85.85,0,0,1-.94-1.42A.7.7,0,0,1,219.71,109.65Z"/><path class="cls-9" d="M196.42,113.87c0,3.11,5.11,7.57,11.49,7.57,7.78,0,12.46-4.51,12.46-9.3s-6.74-8-12.41-7C201.7,106.36,196.42,110.45,196.42,113.87Z"/><path class="cls-8" d="M200,113.82a8.41,8.41,0,0,0,3.68,7c2.82,1.4,8.5.62,9.75-.21A8.41,8.41,0,1,0,200,113.82Z"/><path class="cls-8" d="M220.25,113.51a6.4,6.4,0,0,0-1.55-4.5c-1.88-2.14-5.95-3.45-9.72-3.12a22,22,0,0,0-2.82.56,17.42,17.42,0,0,0-2.66.94,18.71,18.71,0,0,0-4.34,2.51,8.67,8.67,0,0,0-2.31,2.66,4.61,4.61,0,0,0-.43,1.31,4.43,4.43,0,0,1,.11-1.43,7.61,7.61,0,0,1,2-3.25,14.91,14.91,0,0,1,4.38-3.15,20.46,20.46,0,0,1,2.84-1.12,14.21,14.21,0,0,1,3.11-.68,15,15,0,0,1,6.2.94,9.49,9.49,0,0,1,4.4,3.25,6,6,0,0,1,1,3.69A8.77,8.77,0,0,1,220.25,113.51Z"/><path class="cls-10" d="M202.65,115.29a5.36,5.36,0,1,0,5.36-5.36A5.36,5.36,0,0,0,202.65,115.29Z"/><path class="cls-9" d="M206.8,112.81a2.39,2.39,0,1,1-2.39-2.4A2.4,2.4,0,0,1,206.8,112.81Z"/><path class="cls-9" d="M205.22,109.14a.79.79,0,1,0,.79-.79A.8.8,0,0,0,205.22,109.14Z"/><path class="cls-5" d="M183.88,138.4a6.2,6.2,0,0,1-5.17,2.75c-3.56,0-5.92-1-6.44-1.63s3.5-7.69,3.5-7.69-1.88,4.95-1,6.18,3.16,1.21,4.25,1.21C182.54,139.22,183.88,138.4,183.88,138.4Z"/><path class="cls-11" d="M196.31,156.12c0,8.14-7.32,14.72-16.35,14.72s-16.35-6.58-16.35-14.72Z"/><path class="cls-1" d="M167.18,165.29a17.5,17.5,0,0,0,25.57,0,46.06,46.06,0,0,0-25.57,0Z"/><path class="cls-9" d="M194,159.87a14.88,14.88,0,0,0,.48-3.75h-29a14.63,14.63,0,0,0,.45,3.58,3.14,3.14,0,0,0,2.57,1.92h23.23A2.56,2.56,0,0,0,194,159.87Z"/><path class="cls-6" d="M222.67,96.18s-8.95-4.16-17.91-3.32c-3.5.33-7.15.69-8.53,1s-.83-3.71.08-3.87,4.91-2.37,8.78-2.11C215,88.53,222.67,96.18,222.67,96.18Z"/><path class="cls-6" d="M140.49,96.18s8.93-4.16,17.91-3.32c3.5.33,7.14.69,8.52,1s.83-3.71-.09-3.87-4.9-2.37-8.78-2.11C148.14,88.53,140.49,96.18,140.49,96.18Z"/><path class="cls-12" d="M218.08,130.25c0,3.2-5.05,5.79-11.28,5.79s-11.27-2.59-11.27-5.79,5-5.79,11.27-5.79S218.08,127.05,218.08,130.25Z"/><path class="cls-12" d="M163.33,130.25c0,3.2-5.05,5.79-11.27,5.79s-11.28-2.59-11.28-5.79,5-5.79,11.28-5.79S163.33,127.05,163.33,130.25Z"/><path class="cls-7" d="M179.07,71.62c21.42,0,41.39,8.16,53.66,27.67,0-39.46-28.08-55.33-52.59-55.33s-56.7,25.42-48.64,55C142.07,82.26,157.64,71.62,179.07,71.62Z"/><path class="cls-13" d="M178.44,13.59c-47,.25-69.72,37.17-69.36,102.09.3,55.55,16.7,70.2,30.87,78.87,11.75,5.49,71.54,5.17,83.19-.45,13.47-4.94,28.28-28.41,27.67-84.07C250.18,51.54,230.37,13.3,178.44,13.59Zm54.29,107.07c0,50.18-34.25,68.23-57.21,68.23-24.8,0-45-31.44-45-68.23,0-29.8,0-65.83,47.8-65.83S232.73,78.81,232.73,120.66Z"/><path class="cls-13" d="M235.88,204.5h-5.23c2.1,0,3.8-2,3.8-4.52a4.77,4.77,0,0,0-1.44-3.5,4,4,0,0,0,1.44-3.1,3.88,3.88,0,0,0-3.79-4H132.88a3.89,3.89,0,0,0-3.79,4,4.06,4.06,0,0,0,1.14,2.84,4.77,4.77,0,0,0-1.71,3.76c0,2.5,1.71,4.52,3.81,4.52h-5.25c-2.32,0-6.12,9.11-6.12,11.6s29.71,16.3,61.84,16.3,57.3-13.12,57.3-15.61S238.21,204.5,235.88,204.5Z"/><path class="cls-14" d="M221.33,192a155.56,155.56,0,0,1-75.18,0s16.83,1.06,37.6,1.06S221.33,192,221.33,192Z"/><path class="cls-14" d="M227.41,204.79a221,221,0,0,1-44.61,4.61,220.9,220.9,0,0,1-44.61-4.61s20,1.07,44.61,1.07S227.41,204.79,227.41,204.79Z"/></g></g></g></svg>