<svg xmlns="http://www.w3.org/2000/svg" xmlns:xlink="http://www.w3.org/1999/xlink" viewBox="0 0 344.16 445.36"><defs><style>.cls-1{fill:#e73a3a;}.cls-2{isolation:isolate;}.cls-3{clip-path:url(#clip-path);}.cls-4{fill:#ededed;}.cls-5{fill:#22282a;}.cls-6{fill:#f9bb8d;}.cls-7{fill:#e5c9a6;mix-blend-mode:multiply;}.cls-8{fill:#d5e3ec;}.cls-9{fill:#32393d;}.cls-10{fill:#fff;}.cls-11{fill:#583636;}.cls-12{fill:#432827;}.cls-13{fill:#454f56;}.cls-14{fill:#096e94;}.cls-15{fill:#017ca8;}</style><clipPath id="clip-path"><path class="cls-1" d="M344.16,172.08A172.08,172.08,0,1,1,172.08,0,172.08,172.08,0,0,1,344.16,172.08Z"/></clipPath></defs><g class="cls-2"><g id="Layer_2" data-name="Layer 2"><g id="Capa_1" data-name="Capa 1"><path class="cls-1" d="M344.16,172.08A172.08,172.08,0,1,1,172.08,0,172.08,172.08,0,0,1,344.16,172.08Z"/><g class="cls-3"><path class="cls-4" d="M111,130.34c0,11.89,28.69,48.64,61.77,48.64s61.55-39.22,61.55-51.11-26.81-11.52-59.89-11.52S111,118.45,111,130.34Z"/><path class="cls-5" d="M145.07,207.67h52.39V188.32s-5.55-5.09-23.2-5.09-24.7,3.39-24.7,3.39Z"/><polygon class="cls-6" points="127.76 248.4 217.71 248.4 225.86 204.5 187.84 196.35 187.84 171.35 157.63 171.35 157.63 196.35 119.61 204.5 127.76 248.4"/><path class="cls-7" d="M157.63,176.44s6.79,10.18,15.61,10.18,14.6-10.18,14.6-10.18v-5.09H157.63Z"/><path class="cls-6" d="M224.09,134.8c-10.77,30.72-26.63,45.72-50.23,45.72-23.87,0-38.9-15.34-50.65-45.72-8-20.61-3.86-45.71-3.86-45.71,0-29,8.59-60.19,54.51-60.19s54.52,36.2,54.52,64.27C228.38,93.17,229.75,118.68,224.09,134.8Z"/><path class="cls-6" d="M105.77,122c2.9,9.57,12.9,14.61,15.11,9.6s6.59-7.55,5.24-15.67-11.82-16.89-16.36-14.44C102.68,105.37,103.39,114.18,105.77,122Z"/><path class="cls-6" d="M239.83,121c-2.9,9.57-12.89,14.61-15.11,9.61s-6.58-7.56-5.23-15.68,11.82-16.89,16.35-14.43C242.92,104.37,242.22,113.18,239.83,121Z"/><path class="cls-4" d="M223.21,116.35s4-17.78,14.33-14.66c.37-11.2,1-20.36.13-29.1-.26-2.91-7.53-54.46-57.5-55.51-24.74-.52-47.64-5-53.81,15.83C98.25,38.8,106,92.2,108.06,102.7c9.89-6.48,14.39,13.65,14.39,13.65l3.67-.38s-7.52-9.43,1.64-17.85c-5.09-7.28.63-29.59,5.46-31.94,9.79-4.75,10.78,4.2,39.41,4.75,23.12.45,30.46-14.19,42.39-5.91,11.76,8.17,4.54,29.68,2.69,33.1,10.37,6.81,2.77,17.6,2.77,17.6Z"/><polygon class="cls-8" points="127.76 391.87 217.71 391.87 216.81 203.53 189.59 189.74 173.41 204.5 155.43 191.77 129.24 202.51 127.76 391.87"/><path class="cls-9" d="M197.46,188.32l-4.17,37.62-19.88,71.28.38,148.14,60.73-11.53s-4-125.07-4.15-138S234,262.59,234,262.59l.93-58.09L208.67,200Z"/><path class="cls-9" d="M258.67,243c1.61,7.64,13,132.75,12.29,167.56-2.09,4.08-21.66,11.91-24,8.79C243.61,372.41,233,259.14,233,251.14c0-10.59-8.67-46.64,1.92-46.64S253.24,217.17,258.67,243Z"/><path class="cls-9" d="M146.7,188.32l7.1,46.56,19.61,62.34.38,148.14-64.41-8.45s4.27-128.15,4.42-141-3.61-33.27-3.61-33.27l-.93-58.09L135.49,200Z"/><path class="cls-9" d="M85.49,243c-1.61,7.64-13.07,132.56-12.31,167.38,2.09,4.08,21.68,12.09,24,9,3.32-46.91,13.93-160.18,13.93-168.18,0-10.59,8.68-46.64-1.9-46.64S90.92,217.17,85.49,243Z"/><path class="cls-10" d="M158.65,106.64c0,2.8-4.62,6.83-10.37,6.83-7,0-11.25-4.08-11.25-8.4s6.07-7.22,11.21-6.27C153.89,99.85,158.65,103.55,158.65,106.64Z"/><path class="cls-11" d="M155.43,106.59a7.62,7.62,0,0,1-3.32,6.29c-2.55,1.26-7.68.55-8.81-.19a7.6,7.6,0,1,1,12.13-6.1Z"/><path class="cls-11" d="M137.14,106.31a8.33,8.33,0,0,1-.22-1.26,5.35,5.35,0,0,1,1-3.32c1.7-2.53,5.68-4,9.56-3.79a17.14,17.14,0,0,1,5.38,1.63,13.2,13.2,0,0,1,4,2.84,6.89,6.89,0,0,1,1.78,2.94,4.07,4.07,0,0,1,.1,1.29,4.17,4.17,0,0,0-.38-1.19,7.77,7.77,0,0,0-2.1-2.4,16.57,16.57,0,0,0-3.91-2.27,18,18,0,0,0-4.95-1.35c-3.41-.3-7.08.88-8.78,2.81A5.7,5.7,0,0,0,137.14,106.31Z"/><path class="cls-12" d="M153,107.92a4.85,4.85,0,1,1-4.84-4.84A4.85,4.85,0,0,1,153,107.92Z"/><path class="cls-10" d="M149.27,105.68a2.16,2.16,0,1,0,2.16-2.16A2.16,2.16,0,0,0,149.27,105.68Z"/><path class="cls-10" d="M150.7,102.37a.72.72,0,1,1-.71-.72A.71.71,0,0,1,150.7,102.37Z"/><path class="cls-10" d="M186.37,106.64c0,2.8,4.63,6.83,10.37,6.83,7,0,11.26-4.08,11.26-8.4s-6.08-7.22-11.21-6.27C191.13,99.85,186.37,103.55,186.37,106.64Z"/><path class="cls-11" d="M189.59,106.59a7.6,7.6,0,0,0,3.33,6.29c2.54,1.26,7.67.55,8.8-.19a7.6,7.6,0,1,0-12.13-6.1Z"/><path class="cls-11" d="M207.88,106.31a5.68,5.68,0,0,0-1.4-4.07c-1.69-1.93-5.36-3.11-8.77-2.81a18,18,0,0,0-5,1.35,17,17,0,0,0-3.91,2.27,7.71,7.71,0,0,0-2.09,2.4,4,4,0,0,0-.39,1.19,4.07,4.07,0,0,1,.1-1.29,6.79,6.79,0,0,1,1.78-2.94,13.46,13.46,0,0,1,3.95-2.84,17.22,17.22,0,0,1,5.38-1.63c3.89-.25,7.86,1.26,9.56,3.79a5.35,5.35,0,0,1,1,3.32A7,7,0,0,1,207.88,106.31Z"/><path class="cls-12" d="M192,107.92a4.85,4.85,0,1,0,4.85-4.84A4.85,4.85,0,0,0,192,107.92Z"/><path class="cls-10" d="M195.75,105.68a2.17,2.17,0,1,1-2.17-2.16A2.17,2.17,0,0,1,195.75,105.68Z"/><path class="cls-10" d="M194.32,102.37a.72.72,0,1,0,.71-.72A.71.71,0,0,0,194.32,102.37Z"/><path class="cls-4" d="M132.53,96.88s5-6.63,17.35-7.14a65.72,65.72,0,0,1,8.62.1c1.4.18,1.33-5.81.4-5.9s-9.35-.76-13.17.13A17.73,17.73,0,0,0,132.53,96.88Z"/><path class="cls-4" d="M211,98.85S205.9,92,193.65,91a64.78,64.78,0,0,0-8.51-.24c-1.39.13-1.49-5.86-.57-5.91s9.22-.41,13,.63A19.3,19.3,0,0,1,211,98.85Z"/><path class="cls-4" d="M122.45,116.35c.75,3.93,3.36,13.5,0,18.43,3.94,19.63,20.16,45.74,51.41,45.74,23.6,0,41.23-11.64,52-42.35-2.46-2.88-3.31-17.72-2.65-21.82,0,0-.67-5-2.73-.63C218,121,208.55,158.79,195,167.33c-15,9.49-9.68-3.16-22.4-3.16-10.31,0-6.33,10.4-22.64,2.71-17.6-8.29-22.19-47.65-23.87-50.91C123.14,110.2,122.45,116.35,122.45,116.35Z"/><path class="cls-7" d="M177.46,129.69a5.93,5.93,0,0,1-5,2.65c-3.4,0-5.65-1-6.15-1.57s3.34-7.36,3.34-7.36-1.79,4.74-1,5.92,3,1.15,4.07,1.15C176.18,130.48,177.46,129.69,177.46,129.69Z"/><path class="cls-7" d="M176,151.7s-1.68,4.57-5.25,4.54a4.62,4.62,0,0,1-4.47-3.16s1,1.22,4.89,1.08S176,151.7,176,151.7Z"/><path class="cls-4" d="M182,152.52c5.62.68,11.6-2.16,11.6-2.16s-8.21-10.92-20.17-10.86c-13.85.06-22,10.86-22,10.86s6.09,2.59,10.86,1.82c7-1.14,10.3-4.39,10.3-4.39S176.73,151.89,182,152.52Z"/><path class="cls-13" d="M194.06,186.4c2.83,12.9-20.65,110.82-20.65,110.82l26.22-52-3.88-15.84L208,230.69l.7-30.65S201.53,189.57,194.06,186.4Z"/><path class="cls-13" d="M150.06,186.4c-2.83,12.9,23.35,110.82,23.35,110.82l-28.91-52,3.87-15.84-12.22,1.35-.7-30.65S142.59,189.57,150.06,186.4Z"/><polygon class="cls-10" points="194.21 192.07 184.58 215.58 173.41 204.5 189.59 189.74 194.21 192.07"/><polygon class="cls-10" points="150.15 193.94 161.78 216.66 173.41 204.5 155.43 191.77 150.15 193.94"/><polygon class="cls-14" points="178.81 223.45 168.63 223.45 165.35 212.93 173.41 204.5 180.98 212.01 178.81 223.45"/><polygon class="cls-15" points="178.81 223.45 168.63 223.45 165.35 265.86 173.41 297.22 180.98 264.26 178.81 223.45"/></g></g></g></g></svg>