<svg xmlns="http://www.w3.org/2000/svg" xmlns:xlink="http://www.w3.org/1999/xlink" viewBox="0 0 344.16 429.91"><defs><style>.cls-1{fill:#f59d16;}.cls-2{clip-path:url(#clip-path);}.cls-3{fill:#432918;}.cls-4{fill:#61b9d9;}.cls-5{fill:#0472a4;}.cls-6{fill:#fedfb3;}.cls-7{fill:#db9d73;}.cls-8{fill:#fff;}.cls-9{fill:#1f95c5;}.cls-10{fill:#017ca8;}.cls-11{fill:#583636;}.cls-12{fill:#432827;}.cls-13{fill:#e73a3a;}.cls-14{fill:#e94a47;}.cls-15{fill:#fac297;}</style><clipPath id="clip-path"><path class="cls-1" d="M0,172.08A172.08,172.08,0,1,1,172.08,344.16,172.08,172.08,0,0,1,0,172.08Z"/></clipPath></defs><g id="Layer_2" data-name="Layer 2"><g id="Capa_1" data-name="Capa 1"><path class="cls-1" d="M0,172.08A172.08,172.08,0,1,1,172.08,344.16,172.08,172.08,0,0,1,0,172.08Z"/><g class="cls-2"><path class="cls-3" d="M202.14,33.49c0,15.41-14.74,36.9-32.2,36.9s-31-21.49-31-36.9,13.56-18.89,31-18.89S202.14,18.09,202.14,33.49Z"/><path class="cls-4" d="M202.94,70.39c-1.66-20.74-15.64-25.6-32-25.6s-29.33,4.86-30.86,25.6Z"/><path class="cls-3" d="M106.65,155.77C99,176.1,139,219.58,171.87,219.58s67-34.43,62.1-62.75c-1.94-11.17-29.2-1.06-62.1-1.06S110.79,144.75,106.65,155.77Z"/><path class="cls-5" d="M143,248.09h52.08V228.86s-5.51-5.06-23.06-5.06-24.56,3.37-24.56,3.37Z"/><polygon class="cls-6" points="125.83 288.58 215.24 288.58 223.34 244.94 185.55 236.84 185.55 211.99 155.52 211.99 155.52 236.84 117.73 244.94 125.83 288.58"/><path class="cls-7" d="M155.52,217.05s6.75,10.12,15.53,10.12,14.5-10.12,14.5-10.12V212h-30Z"/><path class="cls-6" d="M221.58,175.66c-5.12,16.2-28.59,45.44-49.93,45.44-19.19,0-44.37-24.3-50.34-45.44s-3.85-45.44-3.85-45.44c0-28.79,8.54-59.83,54.19-59.83s54.19,36,54.19,63.88C225.84,134.27,226.7,159.46,221.58,175.66Z"/><path class="cls-6" d="M104,163c2.88,9.52,12.81,14.53,15,9.55s6.54-7.5,5.2-15.58-11.74-16.79-16.25-14.35C100.89,146.4,101.6,155.16,104,163Z"/><path class="cls-6" d="M237.23,162c-2.89,9.51-12.82,14.52-15,9.54s-6.55-7.5-5.2-15.57,11.75-16.79,16.25-14.35C240.3,145.4,239.6,154.16,237.23,162Z"/><path class="cls-3" d="M215,164.19c8.53-4.27,7.58-22.6,18.29-22.6,10.32-36.9-10.38-87.87-61.66-87.87-54.51,0-74.79,54.93-65.36,90,9.84-6.43,5.9,12.13,19.34,20.45-5.44-11.7,6.55-8.38.74-27.23,5.65-8,14.22-50.34,44.21-34.81,30.66-14.63,34.41,17.27,43.37,29.42S218.17,159.24,215,164.19Z"/><path class="cls-8" d="M125.82,400.56s5.13,7.57,43.59,7.57,45.83-7.57,45.83-7.57v-129H125.82Z"/><path class="cls-9" d="M195.11,228.86l-20,102.46v42.73L225.9,411s-1.89-53.54-8.63-76.48c.45-10.79,7.77-43.17,7.77-43.17l1.9-46.36-20.68-4.43Z"/><path class="cls-4" d="M191.74,227c2.81,12.82-16.64,104.37-16.64,104.37v42.73l21-63.87-6.52-6.75,9-7.88,7.66-55S199.16,230.1,191.74,227Z"/><path class="cls-9" d="M250.56,283.18c1.6,7.6,8.85,104.42,8.09,139-2.07,4.06-17.4,9.68-19.76,6.59C235.59,382.16,225,299.25,225,291.3c0-10.52-8.63-46.36,1.9-46.36S245.16,257.54,250.56,283.18Z"/><path class="cls-9" d="M144.12,229.08l20,102.47v42.73l-47,36.67s2-50.47,8.73-73.41c-.45-10.8-11.63-46-11.63-46l-1.9-46.36L133,240.73Z"/><path class="cls-4" d="M147.49,227.17c-2.81,12.82,16.64,104.38,16.64,104.38v42.73l-21-63.88,6.52-6.74-9-7.88-7.65-55S140.07,230.32,147.49,227.17Z"/><path class="cls-9" d="M88.67,283.41c-1.6,7.59-8.85,104.41-8.1,139,2.08,4.05,17.41,9.68,19.78,6.59,3.29-46.63,13.84-129.55,13.84-137.49,0-10.53,8.63-46.36-1.9-46.36S94.07,257.76,88.67,283.41Z"/><path class="cls-10" d="M231.45,172.76a4.06,4.06,0,1,1-4.06-4A4.06,4.06,0,0,1,231.45,172.76Z"/><path class="cls-10" d="M118.83,172.76a4.06,4.06,0,1,1-4.06-4A4.06,4.06,0,0,1,118.83,172.76Z"/><path class="cls-11" d="M135.15,144.68l-.7-.45a6.37,6.37,0,0,1-.77-.83,6,6,0,0,1-.45-1,6.85,6.85,0,0,1-.18-2.75,6.89,6.89,0,0,0,.9,2.41,6.39,6.39,0,0,0,.56.64c.23.11.32.22.5.31l.81.23a.81.81,0,0,1-.45,1.56A.65.65,0,0,1,135.15,144.68Z"/><path class="cls-8" d="M157,147.05c0,1.92-4,3.82-10.06,3.82-7.41,0-11.76-3-11.76-5.28,0-4.55,6.58-6.61,12-5.6C153.15,141.09,157,143.8,157,147.05Z"/><path class="cls-11" d="M152.68,145.74a5.9,5.9,0,0,1-2.58,5c-2.12.15-5.65.38-7.44-.21a5.8,5.8,0,0,1-2.16-5.23,5.89,5.89,0,0,1,6.09-5.29C150,140,152.68,142.17,152.68,145.74Z"/><path class="cls-11" d="M135.2,146.29s0-.44-.07-1.22a5.5,5.5,0,0,1,1.15-3.13,7.78,7.78,0,0,1,4.16-2.36,19.91,19.91,0,0,1,5.36-.26,16,16,0,0,1,5.22,1.23,12.28,12.28,0,0,1,3.92,2.56,6.86,6.86,0,0,1,1.89,2.71,2.9,2.9,0,0,1,.19,1.23,3,3,0,0,0-.48-1.08,8.8,8.8,0,0,0-2.2-2.13,16.68,16.68,0,0,0-3.85-2,20.05,20.05,0,0,0-4.84-1c-3.35-.36-7-.05-8.75,1.66A6.08,6.08,0,0,0,135.2,146.29Z"/><path class="cls-12" d="M150.18,146.6a3.43,3.43,0,1,1-3.43-3.42A3.43,3.43,0,0,1,150.18,146.6Z"/><path class="cls-8" d="M147.52,145a1.53,1.53,0,1,0,1.53-1.53A1.53,1.53,0,0,0,147.52,145Z"/><path class="cls-8" d="M148.53,142.68a.5.5,0,0,1-.5.5.51.51,0,1,1,0-1A.5.5,0,0,1,148.53,142.68Z"/><path class="cls-7" d="M175.23,170.58a5.91,5.91,0,0,1-4.94,2.63c-3.37,0-5.61-1-6.11-1.57s3.33-7.3,3.33-7.3-1.79,4.71-1,5.88,3,1.15,4.05,1.15C174,171.37,175.23,170.58,175.23,170.58Z"/><path class="cls-13" d="M155.23,189.31c4.72.48,6.29,9,16.27,9s11.59-8.29,16.26-9a33.25,33.25,0,0,1-32.53,0Z"/><path class="cls-14" d="M155.23,189.31c5.21,1.19,12.3-.67,16.27.79,4.79-2,11.79.06,16.26-.79a33.25,33.25,0,0,1-32.53,0Z"/><path class="cls-3" d="M131.85,130.39s8.64-3.94,17.31-3.13c3.38.32,6.91.67,8.23.94s.81-3.51-.07-3.67a31.69,31.69,0,0,0-8.39-.91C139.35,124.25,131.85,130.39,131.85,130.39Z"/><path class="cls-11" d="M205.91,143.23l.8-.23c.19-.09.28-.2.5-.31a4.6,4.6,0,0,0,.57-.64,7.13,7.13,0,0,0,.9-2.41,7,7,0,0,1-.17,2.75,8.28,8.28,0,0,1-.46,1,6.37,6.37,0,0,1-.77.83l-.7.45a.81.81,0,1,1-.89-1.35A1.07,1.07,0,0,1,205.91,143.23Z"/><path class="cls-8" d="M184.72,147.05c0,1.92,4,3.82,10.06,3.82,7.4,0,11.75-3,11.75-5.28,0-4.55-6.58-6.61-12-5.6C188.59,141.09,184.72,143.8,184.72,147.05Z"/><path class="cls-11" d="M189.05,145.74a5.9,5.9,0,0,0,2.58,5c2.11.15,5.66.38,7.44-.21a5.78,5.78,0,0,0,2.16-5.23,5.89,5.89,0,0,0-6.09-5.29C191.77,140,189.05,142.17,189.05,145.74Z"/><path class="cls-11" d="M206.53,146.29a6.13,6.13,0,0,0-1.71-3.77c-1.79-1.71-5.38-2-8.74-1.66a20.34,20.34,0,0,0-4.85,1,16.33,16.33,0,0,0-3.83,2,8.53,8.53,0,0,0-2.21,2.13,2.85,2.85,0,0,0-.47,1.08,2.48,2.48,0,0,1,.17-1.23,7.2,7.2,0,0,1,1.89-2.71,12.5,12.5,0,0,1,3.94-2.56,15.82,15.82,0,0,1,5.22-1.23,19.91,19.91,0,0,1,5.36.26,7.78,7.78,0,0,1,4.15,2.36,5.6,5.6,0,0,1,1.16,3.13C206.56,145.85,206.53,146.29,206.53,146.29Z"/><path class="cls-12" d="M191.55,146.6a3.42,3.42,0,1,0,3.42-3.42A3.42,3.42,0,0,0,191.55,146.6Z"/><path class="cls-8" d="M194.2,145a1.53,1.53,0,1,1-1.53-1.53A1.53,1.53,0,0,1,194.2,145Z"/><path class="cls-8" d="M193.2,142.68a.5.5,0,1,0,.5-.51A.51.51,0,0,0,193.2,142.68Z"/><path class="cls-3" d="M209.87,130.39s-8.63-3.94-17.3-3.13c-3.38.32-6.9.67-8.23.94s-.82-3.51.08-3.67a31.6,31.6,0,0,1,8.38-.91C202.38,124.25,209.87,130.39,209.87,130.39Z"/><path class="cls-15" d="M207.43,162.83c0,3-4.81,5.51-10.73,5.51S186,165.87,186,162.83s4.8-5.5,10.73-5.5S207.43,159.78,207.43,162.83Z"/><path class="cls-15" d="M155.75,162.83c0,3-4.8,5.51-10.72,5.51s-10.73-2.47-10.73-5.51,4.8-5.5,10.73-5.5S155.75,159.78,155.75,162.83Z"/></g></g></g></svg>