<svg xmlns="http://www.w3.org/2000/svg" xmlns:xlink="http://www.w3.org/1999/xlink" viewBox="0 0 344.16 373.68"><defs><style>.cls-1{fill:#95c11f;}.cls-2{isolation:isolate;}.cls-3{clip-path:url(#clip-path);}.cls-4{fill:#683c11;}.cls-5{fill:#f9bb8d;}.cls-6{fill:#e7dcd6;mix-blend-mode:multiply;}.cls-7{fill:#fff;}.cls-8{fill:#432918;}.cls-9{fill:#e09d72;}.cls-10{fill:#d84b58;}.cls-11{fill:#f08375;opacity:0.2;}.cls-12{fill:#259dab;}.cls-13{fill:#352e35;}.cls-14{fill:#b53e60;}</style><clipPath id="clip-path"><path class="cls-1" d="M0,172.08A172.08,172.08,0,1,1,172.08,344.16,172.08,172.08,0,0,1,0,172.08Z"/></clipPath></defs><g class="cls-2"><g id="Layer_2" data-name="Layer 2"><g id="Capa_1" data-name="Capa 1"><path class="cls-1" d="M0,172.08A172.08,172.08,0,1,1,172.08,344.16,172.08,172.08,0,0,1,0,172.08Z"/><g class="cls-3"><path class="cls-4" d="M236.4,184.18c-15.67,47.17-90.7,72-101.21,72-10.76,0-28.58-37.24-32.45-59.95-4.76-27.91-8.92-35.9-12.15-56.36-1.85-11.76-7.85-59.18.39-71.7,12.94-19.66,37.15-33.47,77.61-33.47,15.31,0,36.84-.51,39.41,9.67,20.68-.72,31.16,10,36.27,19.2,7.45,13.41,10.21,32.2,8.3,50.07C250.05,137.28,247.57,150.58,236.4,184.18Z"/><path class="cls-5" d="M91.88,373.68h83.68V245.57c-4.21-.08-7.12,0-7.88,0-2.35-.08-24.82-.59-44,4-20.38,4.89-37.37,15.48-37.37,15.48s9.58,20,15,59.61C103.78,342.82,92.2,363.86,91.88,373.68Z"/><path class="cls-5" d="M253.81,373.68c0-9.77-12.39-32.42-10.8-49,3.75-39.2,16.93-59.61,16.93-59.61s-17-10.59-37.36-15.48c-19.19-4.61-41.66-4.1-44-4-.77,0-3.68-.1-7.89,0V373.68Z"/><path class="cls-5" d="M107.73,152.34s2.37-18.13-14.53-13.81c-13,3.34.62,37.05,9.22,40,7.37,2.51,8.92-2.71,8.92-2.71Z"/><path class="cls-5" d="M233.2,152.26s-2.64-18.16,14.33-13.61c13,3.5-.09,37-8.67,39.86-7.32,2.41-9-2.83-9-2.83Z"/><path class="cls-5" d="M171.77,281s34.87-32.46,32.78-34c-12.14-9.08-11.42-34.57-11.42-34.57l-43.95-3.13s2.78,36.61-10.24,41.14C138,250.78,171.77,281,171.77,281Z"/><path class="cls-6" d="M147.3,238a18.25,18.25,0,0,1,8.93,5.23c11.72,11.9,28.88,6.4,39.84-4.09a19.67,19.67,0,0,1,1.58-1.36c-4.92-11-4.52-25.34-4.52-25.34l-43.95-3.13S150.41,225.78,147.3,238Z"/><path class="cls-5" d="M234.74,156.58c-2.69,21.43-4.69,32.85-15.12,49C202.25,232.4,171.5,241.4,171.5,241.4s-32.81-7.88-50.66-35.86c-10.12-15.84-11.8-29.51-14.55-49-3.29-23.38-3.55-15.12-3.55-37.18,0-44.91,16.23-77.34,63.39-77.34s71.26,28.22,72,74.32C238.5,141.64,237.69,133.08,234.74,156.58Z"/><path class="cls-6" d="M140.68,123.37c8.92-.27,32.54-7.56,39.12-15.23,5.83-6.79,15.55-20.54,25.18-20.54,1.16,34,21.41,27.71,24.93,45.65,1,4.82,3.52,18.35,4.83,23.33,2.48-2.53,3.43-18.4,3.46-18.66,3.16-23.49,4.91,3.72,4.49-21.54-.77-46.1-25-77.39-75.43-77.39S98.15,74.49,98.15,119.4c0,21,5.07,17.56,8.14,37.18C110.6,147.48,131.22,123.65,140.68,123.37Z"/><path class="cls-4" d="M199.9,82.93c25.59.33,12.7,33.38,22.29,36.34,14.89,7.16,12.71,38.1,12.82,37.31,3.15-23.5,11-14.32,10.54-39.58-.77-46.1-27.9-78-78.29-78s-71.6,35.48-71.6,80.39c0,22.06,8.92,28.73,10.38,37.2C116.5,100.2,160.09,139.37,199.9,82.93Z"/><path class="cls-5" d="M90.11,373.68C96.92,345.51,104,318.23,104,318.23s6.55-58.93-17.72-53.14c-16.73,4-25.95,65.19-31,108.59Z"/><path class="cls-5" d="M255.21,373.68H290c-5.07-43.4-14.29-104.59-31-108.59-24.27-5.79-17.72,53.14-17.72,53.14S248.4,345.51,255.21,373.68Z"/><path class="cls-4" d="M116.32,137.51s2.93-2.3,10.76-4.3c9.09-2.33,21.11,1.55,21.58,1.55.84,0,2.06-.23,2.06-2.52s-1-2.26-1.83-2.26c-.47,0-13-2.45-22,.38A21.89,21.89,0,0,0,116.32,137.51Z"/><path class="cls-7" d="M121.37,147.41a13.82,13.82,0,0,0,4,6.94c2.54,2.4,18.06,4,19.69,3.29,2.45-1.1,5.63-6.34,5.63-6.34s-5.45-7.51-12.2-7.51S121.37,147.41,121.37,147.41Z"/><path class="cls-8" d="M138.52,145.26c-4.86,0-11,2.24-14.41,3.29-.78.24-1,2.54.29,4.75-2.77-2.54-4.76-7.58-4.76-7.58s3.32,1.17,4.4.83c3.25-1,9.44-2.76,14.48-2.76,6.75,0,12.2,7.51,12.2,7.51a2.72,2.72,0,0,1-.78,1.21C148.74,151,144.37,145.26,138.52,145.26Z"/><path class="cls-8" d="M131.09,150.62a6.84,6.84,0,1,0,6.83-6.83A6.83,6.83,0,0,0,131.09,150.62Z"/><path class="cls-7" d="M132.07,150.63c0,2.89,8.12-5.23,5.23-5.23A5.23,5.23,0,0,0,132.07,150.63Z"/><polygon class="cls-9" points="170.62 175.5 164.49 170.65 170.85 155.06 170.62 175.5"/><path class="cls-10" d="M170.61,210.12c-12.46,0-17.26-13.19-17.26-13.19a6.85,6.85,0,0,0,3.6.07c3.3-1.09,7.66-3.79,8.77-4.1,1.65-.47,4.9,1.84,4.9,1.84s2.84-2.26,4.2-1.84c.92.28,5.15,2.42,8.72,3.51a17.61,17.61,0,0,0,4.35.52S182.22,210.12,170.61,210.12Z"/><path class="cls-7" d="M170.46,203.48c-10.2,0-15.43-5.6-15.43-5.6a98.09,98.09,0,0,0,15.59,1.24,94,94,0,0,0,16-1.43A26.06,26.06,0,0,1,170.46,203.48Z"/><path class="cls-11" d="M153.4,173.37c0,6-7.55,10.81-16.88,10.81s-16.88-4.83-16.88-10.81,7.56-10.81,16.88-10.81S153.4,167.4,153.4,173.37Z"/><path class="cls-4" d="M222.19,137.51s-2.94-2.3-10.77-4.3c-9.08-2.33-21.11,1.55-21.59,1.55-.83,0-2.05-.23-2.05-2.52s1-2.26,1.83-2.26c.46,0,13-2.45,22,.38A22,22,0,0,1,222.19,137.51Z"/><path class="cls-7" d="M217.14,147.41a13.89,13.89,0,0,1-4,6.94c-2.54,2.4-18,4-19.7,3.29-2.44-1.1-5.62-6.34-5.62-6.34s5.46-7.51,12.2-7.51S217.14,147.41,217.14,147.41Z"/><path class="cls-8" d="M200,145.26c4.87,0,11,2.24,14.42,3.29.77.24,1,2.54-.3,4.75,2.77-2.54,4.76-7.58,4.76-7.58s-3.32,1.17-4.4.83c-3.25-1-9.43-2.76-14.48-2.76-6.74,0-12.2,7.51-12.2,7.51a2.69,2.69,0,0,0,.79,1.21C189.77,151,194.14,145.26,200,145.26Z"/><path class="cls-8" d="M207.42,150.62a6.84,6.84,0,1,1-6.84-6.83A6.84,6.84,0,0,1,207.42,150.62Z"/><path class="cls-7" d="M206.44,150.63c0,2.89-8.13-5.23-5.24-5.23A5.23,5.23,0,0,1,206.44,150.63Z"/><path class="cls-11" d="M185.1,173.37c0,6,7.56,10.81,16.88,10.81s16.88-4.83,16.88-10.81S211.3,162.56,202,162.56,185.1,167.4,185.1,173.37Z"/><path class="cls-4" d="M158.75,121c6.23-.92,10.73-6.35,14.82-10.63,2.28-2.39,4.79-4.54,7.09-6.91a65.34,65.34,0,0,0,6.74-8,31.61,31.61,0,0,0,5.07-11.08.72.72,0,0,0-1.31-.55c-1.78,3-3.35,6.08-5.29,9a76.14,76.14,0,0,1-6,8c-2.12,2.42-4.48,4.61-6.66,7s-4.19,4.61-6.23,6.93c-2.29,2.6-4.86,5.23-8.25,6.28-.06,0,0,.1,0,.09Z"/><path class="cls-4" d="M141,125.12c7.13-.5,12.94-4.65,18-9.44,5.65-5.39,10.07-12,14.06-18.66a41.47,41.47,0,0,0,4.68-10.28c.15-.57-.63-1.1-1-.61-4.42,5.18-7.4,11.52-11.28,17.11-4.13,6-8.8,12.06-14.62,16.47A30.91,30.91,0,0,1,141,125a.05.05,0,0,0,0,.1Z"/><path class="cls-4" d="M261,112.34c-4.41-2.12-7.13-6.23-8.37-10.85a47.14,47.14,0,0,1-1.4-7c-.13-1.11-.14-2.23-.36-3.32-.16-.81-.11-2.28-.89-2.75a.6.6,0,0,0-.58,0c-.85.51-.73,2.19-.82,3.06a16.46,16.46,0,0,0,.19,3.57,28.4,28.4,0,0,0,1.77,7.72,20.22,20.22,0,0,0,3.93,6.32,11.85,11.85,0,0,0,6.42,3.47c.15,0,.27-.19.11-.26Z"/><path class="cls-4" d="M263.81,95c0-.09-.69,0-.82.07a5,5,0,0,1-1.27.17,4.85,4.85,0,0,1-2.05-.48,10.12,10.12,0,0,1-3.92-3.16,31.11,31.11,0,0,1-3.05-5.16A39.54,39.54,0,0,1,250.36,81c-.6-1.76-1-3.59-2.25-4.82a.67.67,0,0,0-1.05.14c-.92,1.49-.43,3.44.07,5a43.59,43.59,0,0,0,2.44,6.06c1.75,3.59,4.7,7.56,8.52,9.09a6.12,6.12,0,0,0,5.64-.79.42.42,0,0,0,.21-.38l.05,0c.46,0,0-.74-.18-.31Z"/><path class="cls-4" d="M81.45,122.48c4.18-.83,6-6.2,6.71-9.89,1-5.37,1-10.85,1.32-16.29.15-2.32,0-4.67.14-7a.72.72,0,0,0-1.34-.36c-2.26,3.71-1.77,8.74-1.82,12.9,0,4.92,0,10.16-1.45,14.92a10.37,10.37,0,0,1-3.67,5.46.14.14,0,0,0,.11.26Z"/><path class="cls-4" d="M80.78,109.48c4.5-2.61,6.64-7.31,8-12.14a38.7,38.7,0,0,0,1.49-7.82c.14-2.31.51-4.83-.49-7a.58.58,0,0,0-1,0c-1.26,1.81-1.23,4.15-1.52,6.26-.34,2.46-.42,4.94-.81,7.39-.74,4.65-2.24,9.82-5.76,13.15-.08.07,0,.2.12.15Z"/><path class="cls-4" d="M224.22,134.65c1-2.23.48-4.92-.43-7.09-1.16-2.77-2.75-5.37-3.77-8.19-1.18-3.29-1.16-7.19-.9-10.64a30.49,30.49,0,0,1,1-5.68c.5-1.85,1.44-4,1.27-5.91,0-.22-.28-.46-.51-.29-1.42,1.08-2.22,3.06-2.76,4.72a34.05,34.05,0,0,0-1.31,5.54,26.6,26.6,0,0,0,.56,11.3c.83,2.83,2.55,5.36,4,7.93,1.32,2.39,3.26,5.39,2.68,8.24,0,.1.13.18.18.07Z"/><path class="cls-4" d="M231,169.76c4.88-5.3,3.72-13.06,4.65-19.65.5-3.51,1.88-6.81,2.38-10.33a25.12,25.12,0,0,0-.42-10.5,20.07,20.07,0,0,0-2.5-5.52,10.33,10.33,0,0,0-1.95-2.22,6.1,6.1,0,0,0-2.77-1.41c-.36-.08-.8.26-.65.65a23.22,23.22,0,0,0,2.34,4.33,16.33,16.33,0,0,1,2,4.24,26.38,26.38,0,0,1,1,9.68c-.24,3.24-1.27,6.3-1.67,9.5-.41,3.36-.26,6.76-.35,10.13-.1,3.7-.26,7.75-2.22,11a.1.1,0,0,0,.15.12Z"/><path class="cls-4" d="M110.75,172.78c.63-.88.27-2.35.14-3.36a28.61,28.61,0,0,0-.92-4.3c-.88-3-1.75-6.12-1.57-9.31.21-3.73,1.66-7.24,2.48-10.85a30.16,30.16,0,0,0,.18-11.48c-.32-2-.51-4.07-.94-6a29.1,29.1,0,0,1-.84-5.79,1,1,0,0,0-1.78-.48,11,11,0,0,0-2.16,4.85,16.53,16.53,0,0,0,0,5.57c.5,3.78,1.44,7.55,1,11.39s-1.73,7.41-2,11.22c-.21,3.35,1,6.65,2.28,9.68.69,1.62,1.41,3.23,2.21,4.81a22.15,22.15,0,0,1,1.07,2.45,4.1,4.1,0,0,0,.75,1.64.05.05,0,0,0,.08,0Z"/><path class="cls-12" d="M93,361.74a236,236,0,0,0,11-43.51s6.55-58.93-17.72-53.14C73.44,268.17,62,307.4,59.5,341.72,59,348.53,93,361.74,93,361.74Z"/><path class="cls-12" d="M252.3,361.74s34-10.89,34-16.53c0-38.83-14.05-76.94-27.32-80.12-24.27-5.79-17.72,53.14-17.72,53.14A254,254,0,0,0,252.3,361.74Z"/><path class="cls-12" d="M91.88,373.68H253.81c0-9.77-12.39-32.42-10.8-49,3.75-39.2,16.93-59.61,16.93-59.61s-17-10.59-37.36-15.48c-1.15,23.56-8.34,65.49-49.45,65.49s-47.76-41.42-49.45-65.49c-20.38,4.89-37.37,15.48-37.37,15.48s9.58,20,15,59.61C103.78,342.82,92.2,363.86,91.88,373.68Z"/><path class="cls-13" d="M91.88,373.68h52.4V288.83c-7.76-7.38-19.43-22.5-20.6-39.22-20.38,4.89-37.37,15.48-37.37,15.48s9.58,20,15,59.61C103.78,342.82,92.2,363.86,91.88,373.68Z"/><path class="cls-13" d="M253.81,373.68c0-9.77-12.39-32.42-10.8-49,3.75-39.2,16.93-59.61,16.93-59.61s-17-10.59-37.36-15.48c-.77,15.85-7.27,27.31-19,37.77v86.3Z"/><path class="cls-4" d="M125.85,308.3c-2.72,5.66-14.52,9.64-25.77,4.25s-18.75-18.74-16-24.4,14.62-1.47,25.87,3.92S128.56,302.65,125.85,308.3Z"/><path class="cls-4" d="M126.41,293.35c-2.72,5.65-15.08,9.82-26.33,4.42s-17.64-18-14.92-23.64,13.5-2.23,24.75,3.16S129.12,287.69,126.41,293.35Z"/><path class="cls-4" d="M128.31,278.69c-2.71,5.65-14.59,8.35-25.84,2.95S86.19,265.06,88.9,259.41s12.15-3.64,23.4,1.76S131,273,128.31,278.69Z"/><path class="cls-4" d="M132.06,266.43c-2.71,5.66-15.22,9.18-26.47,3.78s-15.44-20-12.72-25.66,11.31-.21,22.56,5.18S134.78,260.78,132.06,266.43Z"/><path class="cls-4" d="M138.94,250.45c-2.71,5.66-17.25,11.13-28.49,5.74s-15.45-20-12.73-25.67,11.32-.21,22.56,5.19S141.66,244.8,138.94,250.45Z"/><path class="cls-4" d="M140.78,240.28c-2.72,5.66-14,5.86-25.28.46S103.09,229,104,222.83c2-13.52,10.09-8,21.34-2.56S143.49,234.63,140.78,240.28Z"/><path class="cls-4" d="M123,321.94c-2.72,5.66-14.43,10.16-25.67,4.76S80.23,308,82.94,302.31s13-1.48,24.25,3.91S125.74,316.29,123,321.94Z"/><path class="cls-4" d="M120.11,336.11c-2.6,5.42-15.23,11.42-25,6.72S79.69,325.47,82.29,320s12.46-1.52,22.23,3.17S122.72,330.69,120.11,336.11Z"/><path class="cls-4" d="M108.18,373s-1.2-9.31-8.37-15.64c-11-9.76-20.3-11.39-17.69-16.81s19.85-9,26.4-.35C118.13,352.92,108.18,373,108.18,373Z"/><path class="cls-4" d="M114.14,373.68c-2.1-4.16-5.16-7.32-7.74-7.72-3.49-.53-4.54,2.47-6.05,7.72Z"/><path class="cls-14" d="M107.38,365.9a6.52,6.52,0,1,0,6.52-6.51A6.52,6.52,0,0,0,107.38,365.9Z"/><path class="cls-14" d="M97.48,365.9a6.52,6.52,0,1,0,6.51-6.51A6.52,6.52,0,0,0,97.48,365.9Z"/></g></g></g></g></svg>