<svg xmlns="http://www.w3.org/2000/svg" xmlns:xlink="http://www.w3.org/1999/xlink" viewBox="0 0 344.16 446.11"><defs><style>.cls-1{fill:#f59d16;}.cls-2{isolation:isolate;}.cls-3{clip-path:url(#clip-path);}.cls-4{fill:#432918;}.cls-5{fill:#540f00;}.cls-6{fill:#f9bb8d;}.cls-7{fill:#e5c9a6;}.cls-12,.cls-7{mix-blend-mode:multiply;}.cls-14,.cls-8{fill:#fff;}.cls-9{fill:#b41f1c;}.cls-10{fill:#583636;}.cls-11{fill:#432827;}.cls-12{fill:#d5bac8;}.cls-13{fill:#cf1615;}.cls-14{mix-blend-mode:soft-light;}.cls-15{fill:#881910;}</style><clipPath id="clip-path"><path class="cls-1" d="M0,172.08A172.08,172.08,0,1,1,172.08,344.16,172.08,172.08,0,0,1,0,172.08Z"/></clipPath></defs><g class="cls-2"><g id="Layer_2" data-name="Layer 2"><g id="Capa_1" data-name="Capa 1"><path class="cls-1" d="M0,172.08A172.08,172.08,0,1,1,172.08,344.16,172.08,172.08,0,0,1,0,172.08Z"/><g class="cls-3"><path class="cls-4" d="M103.65,131.08c0,11.89,28.69,48.66,61.77,48.66S227,140.51,227,128.62s-26.81-11.52-59.9-11.52S103.65,119.2,103.65,131.08Z"/><path class="cls-5" d="M137.75,208.41h52.39V189.07S184.6,184,166.94,184s-24.7,3.39-24.7,3.39Z"/><polygon class="cls-6" points="120.44 249.15 210.4 249.15 218.54 205.25 180.52 197.1 180.52 172.1 150.31 172.1 150.31 197.1 112.29 205.25 120.44 249.15"/><path class="cls-7" d="M150.31,177.19s6.79,10.18,15.62,10.18,14.59-10.18,14.59-10.18V172.1H150.31Z"/><path class="cls-6" d="M216.77,135.55c-10.76,30.71-26.63,45.71-50.22,45.71-23.88,0-38.92-15.34-50.66-45.71-8-20.62-3.86-45.71-3.86-45.71,0-29,8.58-60.19,54.52-60.19s54.51,36.2,54.51,64.26C221.06,93.91,222.42,119.43,216.77,135.55Z"/><path class="cls-6" d="M98.46,122.78c2.89,9.57,12.88,14.61,15.1,9.61s6.59-7.56,5.24-15.68S107,99.82,102.44,102.28C95.36,106.12,96.07,114.93,98.46,122.78Z"/><path class="cls-6" d="M232.51,121.78c-2.9,9.57-12.89,14.61-15.11,9.6s-6.59-7.55-5.23-15.67S224,98.82,228.52,101.28C235.6,105.12,234.9,113.92,232.51,121.78Z"/><path class="cls-4" d="M215.89,117.1s4-17.79,14.33-14.66c.37-11.2.95-20.37.14-29.1-.27-2.92,15.24-21.65-13.27-51.19-12.22,20.71-50.26-26.81-82.56,1.62-15.48-5.69-28.63,12.38-34.67,37.42-3.17,13.18-1.17,31.75.88,42.25,9.9-6.47,14.39,13.66,14.39,13.66l3.67-.39s-7.52-9.42,1.64-17.85c-5.09-7.28,5.46-31.94,10.29-34.27,9.79-4.76,7.56,5,35.36,11.88,23.43,5.76,31.38,2.37,45.83,1,4.1-.38.32,18-1.52,21.38,10.36,6.82,2.75,17.61,2.75,17.61Z"/><path class="cls-8" d="M120.44,392.61h90l-.91-188.33-23.81-8.08s-5.84,9-19.59,9-18.54-9-18.54-9l-25.63,7.06Z"/><path class="cls-9" d="M190.14,189.07l-9.86,24.19L164,227.52l2.52,218.59,60.74-11.53s-4-125.07-4.17-138,3.61-33.27,3.61-33.27l.94-58.1-26.24-4.45Z"/><path class="cls-9" d="M251.35,243.72c1.61,7.63,13,132.74,12.29,167.55-2.09,4.09-21.65,11.91-24,8.8-3.32-46.91-13.93-160.19-13.93-168.18,0-10.6-8.68-46.65,1.91-46.65S245.91,217.92,251.35,243.72Z"/><path class="cls-9" d="M139.38,189.07l12,27.92L164,227.52l2.52,218.59-64.41-8.46s4.27-128.14,4.41-141-3.6-33.27-3.6-33.27l-.94-58.1,26.24-4.45Z"/><path class="cls-9" d="M78.17,243.72c-1.61,7.63-13.06,132.56-12.31,167.37,2.08,4.08,21.68,12.09,24,9,3.32-46.91,13.94-160.19,13.94-168.18,0-10.6,8.68-46.65-1.92-46.65S83.6,217.92,78.17,243.72Z"/><path class="cls-8" d="M151.33,107.38c0,2.81-4.62,6.84-10.37,6.84-7,0-11.26-4.08-11.26-8.4s6.08-7.23,11.21-6.27C146.57,100.6,151.33,104.3,151.33,107.38Z"/><path class="cls-10" d="M148.11,107.34a7.56,7.56,0,0,1-3.32,6.28c-2.55,1.27-7.67.55-8.81-.18a7.6,7.6,0,1,1,12.13-6.1Z"/><path class="cls-10" d="M129.82,107.06a8.33,8.33,0,0,1-.22-1.26,5.33,5.33,0,0,1,1-3.32c1.7-2.53,5.67-4,9.56-3.8a17.35,17.35,0,0,1,5.37,1.63,13.75,13.75,0,0,1,4,2.84,6.79,6.79,0,0,1,1.78,2.94,2.8,2.8,0,0,1,.07,1.29,3.31,3.31,0,0,0-.36-1.18,7.73,7.73,0,0,0-2.09-2.41,17.74,17.74,0,0,0-3.91-2.27,18,18,0,0,0-4.95-1.34c-3.41-.3-7.08.88-8.77,2.81A5.68,5.68,0,0,0,129.82,107.06Z"/><path class="cls-11" d="M145.71,108.67a4.85,4.85,0,1,1-4.84-4.84A4.84,4.84,0,0,1,145.71,108.67Z"/><path class="cls-8" d="M142,106.42a2.16,2.16,0,1,0,2.16-2.16A2.16,2.16,0,0,0,142,106.42Z"/><path class="cls-8" d="M143.38,103.11a.71.71,0,1,1-1.42,0,.71.71,0,1,1,1.42,0Z"/><path class="cls-8" d="M179.06,107.38c0,2.81,4.61,6.84,10.36,6.84,7,0,11.25-4.08,11.25-8.4s-6.07-7.23-11.2-6.27C183.82,100.6,179.06,104.3,179.06,107.38Z"/><path class="cls-10" d="M182.27,107.34a7.59,7.59,0,0,0,3.32,6.28c2.55,1.27,7.68.55,8.81-.18a7.6,7.6,0,1,0-12.13-6.1Z"/><path class="cls-10" d="M200.56,107.06a5.7,5.7,0,0,0-1.39-4.07c-1.69-1.93-5.37-3.11-8.77-2.81a18,18,0,0,0-5,1.34,17.36,17.36,0,0,0-3.91,2.27,7.73,7.73,0,0,0-2.09,2.41,4.07,4.07,0,0,0-.38,1.18,3.84,3.84,0,0,1,.09-1.29,7,7,0,0,1,1.78-2.94,13.75,13.75,0,0,1,4-2.84,17.14,17.14,0,0,1,5.38-1.63c3.88-.24,7.85,1.27,9.55,3.8a5.27,5.27,0,0,1,1,3.32A7,7,0,0,1,200.56,107.06Z"/><path class="cls-11" d="M184.67,108.67a4.85,4.85,0,1,0,4.85-4.84A4.85,4.85,0,0,0,184.67,108.67Z"/><path class="cls-8" d="M188.43,106.42a2.17,2.17,0,1,1-2.16-2.16A2.16,2.16,0,0,1,188.43,106.42Z"/><path class="cls-8" d="M187,103.11a.72.72,0,1,0,.71-.71A.71.71,0,0,0,187,103.11Z"/><path class="cls-4" d="M125.21,97.62s5-6.63,17.36-7.13a67.7,67.7,0,0,1,8.6.09c1.41.19,1.34-5.81.41-5.9s-9.35-.76-13.17.13A17.71,17.71,0,0,0,125.21,97.62Z"/><path class="cls-4" d="M203.69,99.6s-5.1-6.82-17.36-7.81a65.34,65.34,0,0,0-8.52-.25c-1.38.14-1.49-5.85-.56-5.91s9.23-.4,13,.63A19.32,19.32,0,0,1,203.69,99.6Z"/><path class="cls-4" d="M115.13,117.1c.75,3.92,3.36,13.51,0,18.42,3.94,19.63,20.16,45.74,51.42,45.74,23.59,0,41.23-11.63,52-42.34-2.47-2.88-3.31-17.72-2.65-21.82,0,0-.67-5-2.74-.63-2.49,5.3-2.23,20.17-12.35,24.32-7.53,3.08-23.52-3.74-36.24-3.74-10.3,0-25.18,6.59-32.8,3-9.9-4.67-11.29-20.08-13-23.34C115.82,110.94,115.13,117.1,115.13,117.1Z"/><path class="cls-7" d="M170.14,130.44a5.94,5.94,0,0,1-5,2.64c-3.4,0-5.65-1-6.15-1.57s3.34-7.35,3.34-7.35-1.79,4.74-1,5.92,3,1.15,4.07,1.15C168.85,131.23,170.14,130.44,170.14,130.44Z"/><path class="cls-6" d="M179.82,152.47a27.76,27.76,0,0,0,.46-5.06H152.49a28,28,0,0,0,.42,4.82c.15.89,5,3.35,6.07,2.59,5-3.64,9.92-3.63,14.49,0C174.58,155.7,179.67,153.27,179.82,152.47Z"/><path class="cls-12" d="M142.19,196.53h-5v2.05h-6.94l-2.11,2.21L112,203.55h.46V223.4H92.56V209.24a27.91,27.91,0,0,0-5,6.49v7.67H83.94c-.6,1.54-1.19,3.22-1.75,5h5.4v19.85h-10c-.17,1.39-.35,3-.56,5h10.6V273H75c-.15,1.61-.31,3.27-.46,5h13v19.85H72.76c-.14,1.64-.29,3.29-.43,5H87.59v19.85H70.69l-.39,5H87.59v19.85H68.81c-.12,1.66-.24,3.31-.35,5H87.59v19.86H67.74v-9.14c-1.29,20.18-2.1,37.85-1.88,47.94A6.79,6.79,0,0,0,67.74,413v-11H87.59v18.68a2.9,2.9,0,0,0,2.32-.67c.65-9.16,1.57-20.86,2.65-33.8v-9h.75l.42-4.95H92.56V352.43h2.87c.14-1.65.28-3.31.43-5h-3.3V327.62h5c.15-1.66.29-3.32.43-5H92.56V302.8h7.18c.15-1.67.29-3.33.43-5H92.56V278h9.32c.14-1.72.28-3.37.41-5H92.56V253.18h19.85V273h-8c.22,1.56.45,3.23.67,5h7.31v19.85h-6c0,1.22-.06,2.89-.11,5h6.07v19.85h-6.64c0,1.61-.1,3.27-.16,5h6.8v19.85H105c-.06,1.64-.11,3.29-.16,5h7.57v19.86h-8.2c-.06,1.65-.11,3.31-.17,4.95h8.37V397.1h-9c-.05,1.68-.11,3.34-.16,5h9.17v19.85h-9.82c-.07,1.79-.12,3.44-.17,5h10V439l5,.65V426.88h19.85v15.39l5,.65v-16H162v18.65l4.43.58.53-.1V426.88h19.85v15.36l5-.95V426.88h19.85v10.65l5-.95v-9.7H227c-.05-1.48-.1-3.14-.16-5H216.63V402.06h9.54c0-1.62-.1-3.27-.15-5h-9.39V377.24h8.76l-.15-4.95h-8.61V352.43h8c-.05-1.67-.09-3.32-.14-5h-7.85V327.62h7.25c0-1.7-.1-3.36-.15-5h-7.1V302.8h6.55c-.05-2.07-.09-3.74-.11-5h-6.44V278h7.79c.22-1.74.45-3.41.67-5h-8.46V253.18h19.85V273h-9.25c.13,1.6.27,3.25.41,5h8.84v19.85h-7.13c.14,1.63.28,3.29.43,5h6.7v19.85h-5c.15,1.65.29,3.31.44,5h4.53v19.85h-2.82c.15,1.65.3,3.31.44,5h2.38v19.86h-.69c.15,1.66.28,3.31.42,4.95h.27v3.26c1.28,15.23,2.39,29.06,3.13,39.57a2.44,2.44,0,0,0,1.84.68V402.06H261.3v11.48a7.78,7.78,0,0,0,2.34-2.27c.24-11.23-.79-31.87-2.34-54.94v16H241.45V352.43H261c-.11-1.64-.22-3.3-.35-5H241.45V327.62H259.2l-.39-5H241.45V302.8h15.72c-.14-1.67-.28-3.32-.42-5h-15.3V278H255c-.15-1.7-.31-3.36-.46-5H241.45V253.18h11.08c-.2-1.92-.39-3.58-.55-5H241.45V228.36h5.88c-.57-1.74-1.15-3.42-1.75-5h-4.13v-8.52a25.89,25.89,0,0,0-5-6.08v14.6H216.63V203.55h.94l-16.22-2.76-2.11-2.21h-7.42v-2.05H187.1l-.25.6v1.45h-.59l-2,5h2.6V223.4H168.67L164,227.52,159,223.4H142.19V203.55h3.39l-2.13-5h-1.26Zm-29.78,51.68H92.56V228.36h19.85Zm24.81,124.08H117.37V352.43h19.85Zm0-24.82H117.37V327.62h19.85Zm0-24.82H117.37V302.8h19.85Zm0-24.81H117.37V278h19.85Zm0-24.82H117.37V253.18h19.85Zm0-24.81H117.37V228.36h19.85Zm0-24.81H117.37V203.55h19.85Zm79.41,5h19.85v19.85H216.63Zm-24.81-24.81h19.85V223.4H191.82Zm0,24.81h19.85v19.85H191.82Zm0,24.82h19.85V273H191.82Zm0,24.81h19.85v19.85H191.82Zm0,24.81h19.85v19.85H191.82Zm0,24.82h19.85v19.85H191.82Zm0,24.81h19.85v19.86H191.82ZM167,228.36h19.85v19.85H167Zm0,24.82h19.85V273H167ZM167,278h19.85v19.85H167Zm0,24.81h19.85v19.85H167Zm0,24.82h19.85v19.85H167Zm0,24.81h19.85v19.86H167Zm-5,19.86H142.19V352.43H162Zm0-24.82H142.19V327.62H162Zm0-24.82H142.19V302.8H162Zm0-24.81H142.19V278H162ZM162,273H142.19V253.18H162Zm0-44.66v19.85H142.19V228.36Z"/><rect class="cls-13" x="176.87" y="270.73" width="33.84" height="8.37"/><rect class="cls-14" x="178.8" y="272.32" width="29.98" height="2.6"/><path class="cls-15" d="M186.74,187.14C189.57,200,164,227.52,164,227.52l11.14-7,9.58,11.74,16.68-31.48S194.21,190.32,186.74,187.14Z"/><path class="cls-15" d="M142.78,187.14C140,200,164,227.52,164,227.52l-11.46-6.12L142,235.32l-13.79-34.53S135.31,190.32,142.78,187.14Z"/></g></g></g></g></svg>