<svg xmlns="http://www.w3.org/2000/svg" xmlns:xlink="http://www.w3.org/1999/xlink" viewBox="0 0 344.16 437.92"><defs><style>.cls-1{fill:#259dab;}.cls-2{isolation:isolate;}.cls-3{clip-path:url(#clip-path);}.cls-4{fill:#432918;}.cls-5{fill:#f39013;}.cls-6{fill:#bc8357;}.cls-7{fill:#d9d0bb;mix-blend-mode:multiply;}.cls-8{fill:#fff;}.cls-9{fill:#f49712;}.cls-10{fill:#fcc000;}.cls-11{fill:#fec900;}.cls-12{fill:#c53323;}.cls-13{fill:#d5362c;}.cls-14{fill:#ca7047;}.cls-15{fill:#583636;}.cls-16{fill:#432827;}</style><clipPath id="clip-path"><path class="cls-1" d="M344.16,172.08A172.08,172.08,0,1,1,172.08,0,172.08,172.08,0,0,1,344.16,172.08Z"/></clipPath></defs><g class="cls-2"><g id="Layer_2" data-name="Layer 2"><g id="Capa_1" data-name="Capa 1"><path class="cls-1" d="M344.16,172.08A172.08,172.08,0,1,1,172.08,0,172.08,172.08,0,0,1,344.16,172.08Z"/><g class="cls-3"><path class="cls-4" d="M272.67,134.73h0a5.6,5.6,0,0,0-1.9-4.43,5.69,5.69,0,0,0,1.85-4.4,5.62,5.62,0,0,0-2.16-4.25,5.77,5.77,0,0,0,1.62-4.51,5.59,5.59,0,0,0-2.42-4.12,5.68,5.68,0,0,0,1.37-4.59,5.75,5.75,0,0,0-2.67-4,5.67,5.67,0,0,0-1.85-8.48,5.71,5.71,0,0,0,.74-4.76,5.63,5.63,0,0,0-3.14-3.61,5.74,5.74,0,0,0,.39-4.82v0A5.66,5.66,0,0,0,261,79.37a5.67,5.67,0,0,0-3.62-7.94,5.71,5.71,0,0,0-4.29-7.66,5.56,5.56,0,0,0-.73-4.77,5.72,5.72,0,0,0-4.18-2.49,5.73,5.73,0,0,0-1.16-4.71,5.65,5.65,0,0,0-4.4-2.1,5.6,5.6,0,0,0-1.59-4.6,5.68,5.68,0,0,0-4.56-1.67,5.69,5.69,0,0,0-6.75-5.67,5.69,5.69,0,0,0-2.44-4.21,5.56,5.56,0,0,0-4.83-.76,5.68,5.68,0,0,0-7.74-4.26,5.66,5.66,0,0,0-8.09-3.46,5.71,5.71,0,0,0-3.58-3.32,5.63,5.63,0,0,0-4.82.68,5.69,5.69,0,0,0-8.62-1.81A5.6,5.6,0,0,0,185.48,18a5.67,5.67,0,0,0-4.59,1.57,5.72,5.72,0,0,0-4.34-2.19,5.78,5.78,0,0,0-4.43,2,5.67,5.67,0,0,0-8.71.45,5.64,5.64,0,0,0-4.57-1.48,5.53,5.53,0,0,0-4.08,2.59A5.66,5.66,0,0,0,150,19.79a5.6,5.6,0,0,0-3.85,2.89A5.69,5.69,0,0,0,141.4,22a5.63,5.63,0,0,0-3.64,3.21,5.7,5.7,0,0,0-8.16,3.2,5.7,5.7,0,0,0-7.87,3.94,5.72,5.72,0,0,0-4.85.54A5.78,5.78,0,0,0,114.25,37a5.69,5.69,0,0,0-4.77,1,5.83,5.83,0,0,0-2.22,4.36,5.68,5.68,0,0,0-4.65,1.47,5.81,5.81,0,0,0-1.76,4.57A5.69,5.69,0,0,0,95.06,55a5.73,5.73,0,0,0-4.25,2.38A5.66,5.66,0,0,0,90,62.24a5.67,5.67,0,0,0-4.37,7.63A5.58,5.58,0,0,0,81.9,73a5.71,5.71,0,0,0,0,4.85,5.65,5.65,0,0,0-3.43,3.44A5.57,5.57,0,0,0,79,86.07a5.69,5.69,0,0,0-2.28,8.45,5.64,5.64,0,0,0-1.64,8.55A5.65,5.65,0,0,0,74,111.69a5.77,5.77,0,0,0-2.28,4.23,5.7,5.7,0,0,0,1.76,4.42,5.73,5.73,0,0,0-2,4.34v.51a5.67,5.67,0,0,0,2,4.35A5.64,5.64,0,0,0,71.72,134,5.73,5.73,0,0,0,74,138.19a5.68,5.68,0,0,0,1,8.63,5.7,5.7,0,0,0-1.24,4.62,5.56,5.56,0,0,0,2.78,3.91,5.68,5.68,0,0,0,2.13,8.46,5.65,5.65,0,0,0,2.69,8.28,5.8,5.8,0,0,0-.22,4.83,5.65,5.65,0,0,0,3.57,3.26,5.56,5.56,0,0,0,.17,4.82,5.63,5.63,0,0,0,3.83,3,5.53,5.53,0,0,0,.54,4.79,5.62,5.62,0,0,0,4.06,2.65,5.67,5.67,0,0,0,5.25,7A5.7,5.7,0,0,0,104.4,209a5.66,5.66,0,0,0,6.41,6,5.71,5.71,0,0,0,7,5.39,5.61,5.61,0,0,0,2.59,4.12,5.71,5.71,0,0,0,4.81.59,5.62,5.62,0,0,0,3,3.86,5.73,5.73,0,0,0,4.85.14,5.69,5.69,0,0,0,8.18,3.27,5.61,5.61,0,0,0,3.6,3.26,5.54,5.54,0,0,0,4.79-.74,5.74,5.74,0,0,0,3.89,2.92,5.82,5.82,0,0,0,4.74-1.16,5.59,5.59,0,0,0,4.11,2.55,5.65,5.65,0,0,0,4.59-1.56,5.73,5.73,0,0,0,4.32,2.19h.17a5.59,5.59,0,0,0,4.28-2,5.68,5.68,0,0,0,8.83-.65,5.68,5.68,0,0,0,8.71-1.62,5.68,5.68,0,0,0,8.46-2.55,5.7,5.7,0,0,0,4.9.25h0a5.62,5.62,0,0,0,3.26-3.63,5.67,5.67,0,0,0,7.77-4.17,5.65,5.65,0,0,0,7.32-4.83,5.64,5.64,0,0,0,6.86-5.46,5.71,5.71,0,0,0,6.39-6,5.74,5.74,0,0,0,4.45-1.88,5.65,5.65,0,0,0,1.42-4.63,5.63,5.63,0,0,0,4.29-2.18,5.57,5.57,0,0,0,1-4.7,5.71,5.71,0,0,0,4.83-7.3,5.69,5.69,0,0,0,4.26-7.63,5.69,5.69,0,0,0,3.69-7.91,5.77,5.77,0,0,0,3.46-3.38,5.59,5.59,0,0,0-.4-4.8,5.69,5.69,0,0,0,3.2-3.63,5.62,5.62,0,0,0-.76-4.79,5.62,5.62,0,0,0,1.75-8.57,5.68,5.68,0,0,0,1.06-8.71A5.82,5.82,0,0,0,272.67,134.73Z"/><path class="cls-5" d="M142.86,246.82h54.73V226.6s-5.78-5.31-24.23-5.31-25.81,3.54-25.81,3.54Z"/><polygon class="cls-6" points="124.78 289.38 218.76 289.38 227.27 243.51 187.54 235 187.54 208.88 155.98 208.88 155.98 235 116.26 243.51 124.78 289.38"/><path class="cls-7" d="M156,214.2s7.09,10.63,16.31,10.63,15.25-10.63,15.25-10.63v-5.32H156Z"/><path class="cls-6" d="M225.42,170.7c-5.39,17-30.06,47.75-52.47,47.75-20.18,0-46.65-25.54-52.93-47.75s-4-47.76-4-47.76c0-30.27,9-62.9,57-62.9s57,37.83,57,67.15C229.9,127.19,230.8,153.67,225.42,170.7Z"/><path class="cls-6" d="M101.8,157.35c3,10,13.47,15.26,15.79,10s6.88-7.89,5.46-16.38S110.7,133.36,106,135.93C98.57,139.94,99.31,149.14,101.8,157.35Z"/><path class="cls-6" d="M241.87,156.3c-3,10-13.47,15.27-15.79,10s-6.88-7.89-5.47-16.38S233,132.31,237.7,134.88C245.1,138.9,244.36,148.09,241.87,156.3Z"/><path class="cls-4" d="M218.46,158.63c9-4.49,8-23.75,19.24-23.75,10.85-38.79-10.92-92.36-64.81-92.36-57.29,0-78.62,57.74-68.7,94.63,10.34-6.77,6.19,12.74,20.32,21.48-5.72-12.29,6.89-8.8.78-28.6,5.94-8.39,14.94-52.91,46.47-36.6,32.23-15.37,36.16,18.15,45.58,30.92S221.83,153.43,218.46,158.63Z"/><path class="cls-8" d="M124.78,406.57s5.37,8.47,45.8,8.47,48.18-8.47,48.18-8.47V262.34h-94Z"/><path class="cls-9" d="M197.59,226.6l-21,107.7v44.92L230,418s-2-56.27-9.08-80.39c.47-11.35,8.17-45.37,8.17-45.37l2-48.73-21.74-4.66Z"/><path class="cls-10" d="M194.05,224.6c2.95,13.47-17.49,109.7-17.49,109.7v44.92l22.09-67.14-6.84-7.1,9.45-8.27,8.05-57.86S201.85,227.91,194.05,224.6Z"/><path class="cls-9" d="M255.87,283.7c1.69,8,9.3,109.75,8.51,146.12-2.17,4.27-18.29,10.18-20.77,6.93-3.47-49-14.56-136.16-14.56-144.51,0-11.07-9.07-48.73,2-48.73S250.2,256.75,255.87,283.7Z"/><path class="cls-9" d="M144,226.85l21,107.69v44.92L115.6,418s2.08-53.05,9.18-77.17c-.49-11.34-12.23-48.35-12.23-48.35l-2-48.73,21.74-4.66Z"/><path class="cls-10" d="M147.55,224.83c-3,13.49,17.48,109.71,17.48,109.71v44.92l-22.09-67.14,6.86-7.1L140.34,297l-8.05-57.86S139.75,228.15,147.55,224.83Z"/><path class="cls-9" d="M85.72,283.94c-1.67,8-9.3,109.75-8.5,146.12C79.39,434.33,95.5,440.24,98,437c3.47-49,14.56-136.15,14.56-144.51,0-11.07,9.06-48.73-2-48.73S91.39,257,85.72,283.94Z"/><path class="cls-11" d="M235.78,167.65a4.26,4.26,0,1,1-4.25-4.27A4.25,4.25,0,0,1,235.78,167.65Z"/><circle class="cls-11" cx="113.15" cy="167.65" r="4.26"/><path class="cls-7" d="M176.69,165.36a6.2,6.2,0,0,1-5.17,2.75c-3.56,0-5.91-1.05-6.43-1.64s3.49-7.68,3.49-7.68-1.87,5-1,6.18,3.15,1.21,4.25,1.21C175.36,166.18,176.69,165.36,176.69,165.36Z"/><path class="cls-12" d="M155.67,180.93c5,.75,6.61,14.07,17.11,14.07s12.19-13,17.09-14.07c0,0-7.52,6.63-17.09,6.63S155.67,180.93,155.67,180.93Z"/><path class="cls-13" d="M155.67,180.93c5.48,1.85,12.94-1.05,17.11,1.23,5-3.16,12.39.09,17.09-1.23,0,0-7.52,6.63-17.09,6.63S155.67,180.93,155.67,180.93Z"/><path class="cls-4" d="M131.11,123.11s9.07-4.14,18.18-3.29c3.56.34,7.27.71,8.67,1s.84-3.69-.09-3.85a33.75,33.75,0,0,0-8.81-1C139,116.65,131.11,123.11,131.11,123.11Z"/><path class="cls-4" d="M213.11,123.11S204,119,194.92,119.82c-3.55.34-7.25.71-8.65,1s-.85-3.69.09-3.85a33.46,33.46,0,0,1,8.8-1C205.23,116.65,213.11,123.11,213.11,123.11Z"/><path class="cls-14" d="M210.54,157.21c0,3.2-5,5.79-11.27,5.79S188,160.41,188,157.21s5-5.79,11.28-5.79S210.54,154,210.54,157.21Z"/><path class="cls-14" d="M156.23,157.21c0,3.2-5,5.79-11.28,5.79s-11.27-2.59-11.27-5.79,5-5.79,11.27-5.79S156.23,154,156.23,157.21Z"/><path class="cls-15" d="M133.11,137.15l-.73-.48a6.84,6.84,0,0,1-.8-.86,6,6,0,0,1-.48-1.07,7.45,7.45,0,0,1-.19-2.89,7.41,7.41,0,0,0,1,2.54,5.86,5.86,0,0,0,.6.67c.23.11.32.24.52.33l.85.24a.85.85,0,1,1-.72,1.52Z"/><path class="cls-8" d="M157.12,139.84c0,3.11-5.11,7.58-11.48,7.58-7.79,0-12.47-4.52-12.47-9.31s6.73-8,12.41-6.94C151.85,132.33,157.12,136.43,157.12,139.84Z"/><path class="cls-15" d="M153.56,139.8a8.41,8.41,0,0,1-3.69,7c-2.81,1.4-8.49.61-9.74-.21a8.41,8.41,0,1,1,13.43-6.75Z"/><path class="cls-15" d="M133.3,139.48a7.94,7.94,0,0,1-.24-1.39,5.9,5.9,0,0,1,1.06-3.68,9.46,9.46,0,0,1,4.39-3.25,13,13,0,0,1,9.32-.27,23,23,0,0,1,2.84,1.12,15.08,15.08,0,0,1,4.37,3.15,7.72,7.72,0,0,1,2,3.26,4.14,4.14,0,0,1,.1,1.42,4.76,4.76,0,0,0-.42-1.3,8.72,8.72,0,0,0-2.32-2.67,19.07,19.07,0,0,0-4.34-2.51,18.56,18.56,0,0,0-2.66-.94,21.59,21.59,0,0,0-2.82-.55c-3.77-.34-7.84,1-9.72,3.11A6.31,6.31,0,0,0,133.3,139.48Z"/><path class="cls-16" d="M150.89,141.27a5.36,5.36,0,1,1-5.36-5.37A5.36,5.36,0,0,1,150.89,141.27Z"/><path class="cls-8" d="M146.74,138.79a2.4,2.4,0,1,0,2.4-2.4A2.4,2.4,0,0,0,146.74,138.79Z"/><path class="cls-8" d="M148.32,135.12a.79.79,0,1,1-.79-.8A.78.78,0,0,1,148.32,135.12Z"/><path class="cls-15" d="M211.13,135.63l.84-.24c.2-.09.3-.22.53-.33a5.86,5.86,0,0,0,.6-.67,7.28,7.28,0,0,0,.94-2.54,7.33,7.33,0,0,1-.18,2.89,6.33,6.33,0,0,1-.49,1.06,5.29,5.29,0,0,1-.8.87l-.73.48a.85.85,0,1,1-.71-1.52Z"/><path class="cls-8" d="M187.84,139.84c0,3.11,5.11,7.58,11.48,7.58,7.78,0,12.47-4.52,12.47-9.31s-6.74-8-12.42-6.94C193.11,132.33,187.84,136.43,187.84,139.84Z"/><path class="cls-15" d="M191.4,139.8a8.4,8.4,0,0,0,3.68,7c2.81,1.4,8.5.61,9.75-.21a8.41,8.41,0,1,0-13.43-6.75Z"/><path class="cls-15" d="M211.66,139.48a6.41,6.41,0,0,0-1.55-4.5c-1.88-2.14-5.94-3.45-9.71-3.11a21.73,21.73,0,0,0-2.83.55,19.47,19.47,0,0,0-2.66.94,18.85,18.85,0,0,0-4.33,2.52,8.59,8.59,0,0,0-2.32,2.66,4.35,4.35,0,0,0-.42,1.3,4.14,4.14,0,0,1,.1-1.42,7.62,7.62,0,0,1,2-3.26,15.08,15.08,0,0,1,4.37-3.15,21.79,21.79,0,0,1,2.84-1.12,14.77,14.77,0,0,1,3.12-.68,14.92,14.92,0,0,1,6.19.95,9.54,9.54,0,0,1,4.4,3.25,5.88,5.88,0,0,1,1,3.68A8.77,8.77,0,0,1,211.66,139.48Z"/><path class="cls-16" d="M194.06,141.27a5.37,5.37,0,1,0,5.36-5.37A5.37,5.37,0,0,0,194.06,141.27Z"/><path class="cls-8" d="M198.21,138.79a2.39,2.39,0,1,1-2.4-2.4A2.39,2.39,0,0,1,198.21,138.79Z"/><path class="cls-8" d="M196.63,135.12a.79.79,0,1,0,.79-.8A.78.78,0,0,0,196.63,135.12Z"/><path class="cls-4" d="M214.4,87.2c-17.09-8.75-35.47-5.4-53-8.8A5.63,5.63,0,0,0,165,81.06a5.66,5.66,0,0,0,4.6,7.43,5.78,5.78,0,0,0,1,4.76,5.65,5.65,0,0,0,4.28,2.27,5.64,5.64,0,0,0,1.39,4.66,5.7,5.7,0,0,0,4.48,1.9,5.68,5.68,0,0,0,6.42,6,5.66,5.66,0,0,0,2.2,4.34,5.74,5.74,0,0,0,4.77,1,5.64,5.64,0,0,0,2.59,4.11,5.71,5.71,0,0,0,4.82.6,5.58,5.58,0,0,0,3,3.85,5.69,5.69,0,0,0,4.85.15,5.68,5.68,0,0,0,8.17,3.26,5.65,5.65,0,0,0,8.4,2.52,5.45,5.45,0,0,0,6,2.91C228.21,114.55,233.71,97.08,214.4,87.2Z"/><path class="cls-4" d="M125.1,88.08c17.08-8.74,35.47-5.4,53-8.8a5.62,5.62,0,0,1-3.62,2.66,5.66,5.66,0,0,1-4.6,7.43,5.8,5.8,0,0,1-1,4.77,5.71,5.71,0,0,1-4.28,2.27,5.61,5.61,0,0,1-1.39,4.65,5.67,5.67,0,0,1-4.49,1.9,5.65,5.65,0,0,1-6.41,6,5.71,5.71,0,0,1-7,5.39,5.64,5.64,0,0,1-2.58,4.12,5.76,5.76,0,0,1-4.83.59,5.56,5.56,0,0,1-3,3.86,5.75,5.75,0,0,1-4.86.14,5.68,5.68,0,0,1-3.32,3.58,5.74,5.74,0,0,1-4.85-.32,5.64,5.64,0,0,1-8.4,2.53,5.5,5.5,0,0,1-6,2.91C111.28,115.42,105.79,98,125.1,88.08Z"/></g></g></g></g></svg>