<svg xmlns="http://www.w3.org/2000/svg" xmlns:xlink="http://www.w3.org/1999/xlink" viewBox="0 0 344.16 364.35"><defs><style>.cls-1{fill:#f59d16;}.cls-2{clip-path:url(#clip-path);}.cls-3{fill:#331b19;}.cls-4{fill:#dba87b;}.cls-5{fill:#e4b58b;}.cls-6{fill:#fff;}.cls-7{fill:#272127;}.cls-8{fill:#352e35;}.cls-9{opacity:0.5;}.cls-10{fill:#d0d7e6;}.cls-11,.cls-17{opacity:0.2;}.cls-12{fill:#581e18;}.cls-13{fill:#f9b233;}.cls-14{fill:#432918;}.cls-15{fill:#e09d72;}.cls-16{fill:#d84b58;}.cls-17{fill:#f08375;}</style><clipPath id="clip-path"><path class="cls-1" d="M0,172.08A172.08,172.08,0,1,1,172.08,344.16,172.08,172.08,0,0,1,0,172.08Z"/></clipPath></defs><g id="Layer_2" data-name="Layer 2"><g id="Capa_1" data-name="Capa 1"><path class="cls-1" d="M0,172.08A172.08,172.08,0,1,1,172.08,344.16,172.08,172.08,0,0,1,0,172.08Z"/><g class="cls-2"><path class="cls-3" d="M230.63,208.16A30.63,30.63,0,1,1,200,177.52,30.63,30.63,0,0,1,230.63,208.16Z"/><path class="cls-3" d="M102.58,153.66c.18,7.85,2.94,14.06,20.88,36.83s44.67,17,49.36,17,30.52,4.14,46.32-13.79c6.66-7.57,19.55-25.3,19.55-37.61"/><path class="cls-4" d="M207.57,232.36,200,309.47s-5.44,18.08-27.18,18.4-29.19-13.8-29.19-13.8l-7.82-77.28s9.5-20.08,7.89-35.15,56.89-16.09,54.32-.45S207.57,232.36,207.57,232.36Z"/><path class="cls-5" d="M234.46,119a302.43,302.43,0,0,1-6.79,45.14c-1.06,4.35-1.86,10.67-5,16.41-6,10.9-32.5,39.34-42.39,41.08-3.5.62-17.86.49-22.11-1.89-13.12-7.32-32-28.88-37-39.19a83.86,83.86,0,0,1-5.37-16.33A314.1,314.1,0,0,1,109.11,119c-3.94-48.3,28.06-69.69,62.67-69.69S238.36,70.74,234.46,119Z"/><path class="cls-5" d="M246.7,139.38c-.89,5.38-5.55,14.82-7.56,18.21-1.35,2.28-8.36,6.87-11.48,6.58s-1.93-8.69-3.08-11.56-1.63-8.9-1.47-15.44c.25-10.64,6.71-14.77,13.22-14.15S248.42,128.87,246.7,139.38Z"/><path class="cls-5" d="M97.13,139.38c.88,5.38,5.55,14.82,7.56,18.21,1.35,2.28,8.37,6.87,11.48,6.58s1.93-8.69,3.08-11.56,1.62-8.9,1.47-15.44C120.47,126.53,114,122.4,107.5,123S95.41,128.87,97.13,139.38Z"/><path class="cls-3" d="M114.17,121.12s1.15-4.9,5.43-6.83c9.83-4.43,28.5.33,30.84,1.45,6.28,3,7.06,6.3,7.06,6.3l-.69,5.32a28.64,28.64,0,0,0-7.87-5.65c-2.46-1.2-18.15-7.11-27.9-4.43A14.75,14.75,0,0,0,114.17,121.12Z"/><path class="cls-3" d="M227.54,121.12s-1.15-4.9-5.43-6.83c-9.83-4.43-28.49.33-30.84,1.45-6.29,3-7.05,6.3-7.05,6.3l.68,5.32a28.84,28.84,0,0,1,7.87-5.65c2.46-1.2,18.15-7.11,27.9-4.43A14.68,14.68,0,0,1,227.54,121.12Z"/><path class="cls-3" d="M108.78,123s-.14,14.2,2.21,14c2-.16,2.6-6.33.28-17.08-2.42-11.58,1.81-27.35,4.4-29.38,7.76-6.05,14.66,3.22,36.7,0,25.48-3.71,28.95-26.68,46.53-16.18,19,1.56,26.69,12,30.08,32.09s-3.39,34,0,33.89,1.67-14.07,5.81-16.12,6.73.51,6.73.51,8.81-43.81-4.87-69.6c-10.21-19.26-17.4-27.47-48.8-27.47C152.83,7.26,111.12,52.1,104,66.75c-10.19,21-6.27,63-3.66,59.45S108.78,123,108.78,123Z"/><path class="cls-6" d="M112.93,158.17a2.07,2.07,0,1,1-2.08-2.07A2.08,2.08,0,0,1,112.93,158.17Z"/><path class="cls-6" d="M231.68,158.17a2.07,2.07,0,1,1-2.07-2.07A2.08,2.08,0,0,1,231.68,158.17Z"/><path class="cls-6" d="M207.57,364.35v-82s-12.85,8.44-34.72,8.44-35.2-8.44-35.2-8.44v82Z"/><path class="cls-7" d="M161.6,364.35,159,356.86,139.68,226.5A106.61,106.61,0,0,1,113.35,242c-13.87,5.76-33.36,8.84-39.48,15.87-7.14,8.18-13.63,60.26-18.09,106.47Z"/><polygon class="cls-8" points="108.78 257.31 147.27 364.35 161.64 364.35 159 356.86 139.68 226.5 107.75 240.98 133.12 269.84 108.78 257.31"/><path class="cls-7" d="M288.38,364.35c-4.39-46.21-10.79-98.29-17.81-106.47-6-7-25.23-10.11-38.9-15.87a104.63,104.63,0,0,1-25.93-15.51l-19,130.36-2.56,7.49Z"/><polygon class="cls-8" points="199.18 364.35 250.12 254.32 223.08 262.37 242.3 241.9 205.74 226.5 186.71 356.86 184.15 364.35 199.18 364.35"/><g class="cls-9"><path class="cls-10" d="M119.92,126.43s3.41-5,14.57-5.27,27.33.36,30,4.86,2.34,15.78-1.5,19.22-5.59,7.78-22.17,7.16-17.57-4-18.64-6.61-4-8.71-3.73-12.34A32.48,32.48,0,0,1,119.92,126.43Z"/></g><g class="cls-11"><path class="cls-6" d="M121.41,125l29.71,27c4.21-.66,6.58-1.92,8.36-3.37l-29.72-27A18.33,18.33,0,0,0,121.41,125Z"/></g><g class="cls-9"><path class="cls-10" d="M134.51,121.16h0c-1,0-1.87.08-2.72.17l28.88,26.24c.48-.46.93-.92,1.4-1.38Z"/></g><g class="cls-9"><path class="cls-10" d="M137.82,121.12l-1.52,0,26.63,24.2.11-.1a4.73,4.73,0,0,0,.61-.65Z"/></g><g class="cls-9"><path class="cls-10" d="M223.81,126.7s-3.38-5.06-14.55-5.35-27.33.22-30.07,4.7-2.42,15.77,1.41,19.24,5.55,7.8,22.13,7.26,17.59-3.85,18.67-6.51,4-8.69,3.79-12.32A32.25,32.25,0,0,0,223.81,126.7Z"/></g><g class="cls-11"><path class="cls-6" d="M222.33,125.23l-29.85,26.84a16.42,16.42,0,0,1-8.34-3.41L214,121.81A18.21,18.21,0,0,1,222.33,125.23Z"/></g><g class="cls-9"><path class="cls-10" d="M209.24,121.35h0c1,0,1.87.09,2.73.18l-29,26.1c-.48-.46-.94-.93-1.4-1.4Z"/></g><g class="cls-9"><path class="cls-10" d="M205.93,121.3h1.53L180.7,145.39a.47.47,0,0,1-.1-.1,5.34,5.34,0,0,1-.61-.65Z"/></g><path class="cls-12" d="M177.22,136c-1.27-4.21-8.74-4.41-10.73-1-.86,1.49-.36-2.35-.68-4.87s-1.78-6.05.31-4.73c4.16,2.61,9,2.3,10.5.76.81-.8.95,2.3.74,5.07C177.18,133.79,177.64,137.39,177.22,136Z"/><path class="cls-12" d="M166.74,126.14c-1.77-2.32-8.63-8.38-23-8.42-13.4,0-24.84,3-27.28,4.27-.86.45-1.45,2.78-2.16,5.09s4.14,5.58,4.14,5.58l.06,0c0-.51-.06-1,0-1.46,0-8.71,10.63-10.23,23.79-10.2S166,123.67,166,131.85a32.34,32.34,0,0,1-1,7.22h0S168.52,128.46,166.74,126.14Z"/><path class="cls-12" d="M142.25,153.82c-7.41,0-14.44-.43-19-5.22-3.54-3.7-5.48-12.65-5.46-17.42,0-9.64,11.79-10.94,24.5-10.91,16.24,0,24.47,3.93,24.44,11.58,0,4.57-1.77,13.12-5.5,16.93C156.62,153.48,149.91,153.84,142.25,153.82Zm0-32.13c-12,0-23,1.11-23.08,9.49,0,4.64,1.92,13.14,5.07,16.43,4.2,4.4,10.92,4.77,18,4.79,7.34,0,13.74-.31,17.94-4.61,3.31-3.39,5.09-11.44,5.1-15.94C165.31,123.5,152.78,121.72,142.26,121.69Z"/><path class="cls-13" d="M117.84,125.9a.9.9,0,0,1-.9.89.89.89,0,1,1,.9-.89Z"/><path class="cls-12" d="M229.25,127c-.71-2.31-1.29-4.65-2.14-5.1-2.43-1.31-13.86-4.37-27.25-4.4-14.36,0-21.24,6-23,8.31s1.65,12.93,1.65,12.93h0a32.24,32.24,0,0,1-1-7.23c0-8.17,10.63-10.78,23.79-10.74s23.76,1.6,23.74,10.31c0,.45,0,.94-.06,1.46l.06,0S230,129.33,229.25,127Z"/><path class="cls-12" d="M201.18,153.61c-7.65,0-14.37-.41-18.93-5.13-3.72-3.84-5.43-12.4-5.42-17,0-7.64,8.27-11.5,24.5-11.46,12.71,0,24.48,1.39,24.45,11,0,4.77-2,13.71-5.54,17.39C215.62,153.26,208.6,153.64,201.18,153.61Zm.15-32.12c-10.51,0-23.05,1.69-23.07,10,0,4.51,1.72,12.56,5,16,4.17,4.31,10.58,4.68,17.91,4.7,7.09,0,13.8-.32,18-4.7,3.17-3.28,5.14-11.77,5.15-16.4C224.38,122.7,213.3,121.52,201.33,121.49Z"/><path class="cls-13" d="M225.73,125.82a.9.9,0,1,0,.9-.89A.9.9,0,0,0,225.73,125.82Z"/><path class="cls-6" d="M122.63,130.48a14,14,0,0,0,4.05,7c2.56,2.41,18.2,4.05,19.85,3.31,2.46-1.11,5.67-6.38,5.67-6.38s-5.5-7.58-12.29-7.58S122.63,130.48,122.63,130.48Z"/><path class="cls-14" d="M139.91,128.32c-4.9,0-11.11,2.26-14.52,3.31-.78.24-1,2.57.3,4.79-2.79-2.56-4.81-7.64-4.81-7.64s3.35,1.19,4.44.84c3.27-1,9.5-2.79,14.59-2.79,6.79,0,12.29,7.58,12.29,7.58a2.79,2.79,0,0,1-.79,1.21C150.2,134.1,145.79,128.32,139.91,128.32Z"/><path class="cls-14" d="M132.42,133.72a6.89,6.89,0,1,0,6.88-6.89A6.89,6.89,0,0,0,132.42,133.72Z"/><path class="cls-6" d="M133.41,133.73c0,2.91,8.17-5.28,5.26-5.28A5.27,5.27,0,0,0,133.41,133.73Z"/><polygon class="cls-15" points="172.23 158.78 166.06 153.89 172.46 138.18 172.23 158.78"/><path class="cls-16" d="M172.23,193.65c-12.56,0-17.39-13.29-17.39-13.29a6.84,6.84,0,0,0,3.63.07c3.32-1.09,7.71-3.82,8.83-4.13,1.66-.47,4.93,1.86,4.93,1.86s2.87-2.28,4.23-1.86c.92.29,5.2,2.44,8.79,3.54a17.78,17.78,0,0,0,4.37.52S183.92,193.65,172.23,193.65Z"/><path class="cls-6" d="M172.07,187c-10.27,0-15.53-5.65-15.53-5.65a98.49,98.49,0,0,0,15.69,1.25,94.84,94.84,0,0,0,16.16-1.44A26.24,26.24,0,0,1,172.07,187Z"/><path class="cls-17" d="M154.89,156.63c0,6-7.61,10.9-17,10.9s-17-4.88-17-10.9,7.62-10.89,17-10.89S154.89,150.62,154.89,156.63Z"/><path class="cls-6" d="M219.09,130.48a14,14,0,0,1-4.06,7c-2.56,2.41-18.2,4.05-19.85,3.31-2.46-1.11-5.67-6.38-5.67-6.38s5.51-7.58,12.29-7.58S219.09,130.48,219.09,130.48Z"/><path class="cls-14" d="M201.8,128.32c4.91,0,11.11,2.26,14.53,3.31.78.24,1,2.57-.31,4.79,2.8-2.56,4.81-7.64,4.81-7.64s-3.35,1.19-4.44.84c-3.27-1-9.5-2.79-14.59-2.79-6.78,0-12.29,7.58-12.29,7.58a2.86,2.86,0,0,0,.8,1.21C191.51,134.1,195.93,128.32,201.8,128.32Z"/><path class="cls-14" d="M209.3,133.72a6.89,6.89,0,1,1-6.89-6.89A6.9,6.9,0,0,1,209.3,133.72Z"/><path class="cls-6" d="M208.31,133.73c0,2.91-8.19-5.28-5.27-5.28A5.28,5.28,0,0,1,208.31,133.73Z"/><path class="cls-17" d="M186.81,156.63c0,6,7.62,10.9,17,10.9s17-4.88,17-10.9-7.62-10.89-17-10.89S186.81,150.62,186.81,156.63Z"/></g></g></g></svg>