<svg xmlns="http://www.w3.org/2000/svg" xmlns:xlink="http://www.w3.org/1999/xlink" viewBox="0 0 344.16 354.42"><defs><style>.cls-1{fill:#e94e1b;}.cls-2{isolation:isolate;}.cls-3{clip-path:url(#clip-path);}.cls-4{fill:#301b16;}.cls-5{fill:#99613c;}.cls-6{fill:#d9cbca;}.cls-12,.cls-6,.cls-7{mix-blend-mode:multiply;}.cls-7{fill:#e7dcd6;}.cls-8{fill:#fff;}.cls-9{fill:#432918;}.cls-10{fill:none;stroke:#301b16;stroke-miterlimit:10;stroke-width:3.66px;}.cls-11{fill:#fdfdfd;}.cls-12,.cls-13{fill:#e9e9e9;}</style><clipPath id="clip-path"><path class="cls-1" d="M344.16,172.08A172.08,172.08,0,1,1,172.08,0,172.08,172.08,0,0,1,344.16,172.08Z"/></clipPath></defs><g class="cls-2"><g id="Layer_2" data-name="Layer 2"><g id="Capa_1" data-name="Capa 1"><path class="cls-1" d="M344.16,172.08A172.08,172.08,0,1,1,172.08,0,172.08,172.08,0,0,1,344.16,172.08Z"/><g class="cls-3"><path class="cls-4" d="M89,139s0,0,0,0h0Z"/><path class="cls-4" d="M242.74,117.05a3.3,3.3,0,0,0,.47-1.9,3.74,3.74,0,0,0-.55-1.91,3.82,3.82,0,0,0,.41-1.93,3.76,3.76,0,0,0-.66-1.87,3.62,3.62,0,0,0,.33-1.94,3.84,3.84,0,0,0-.77-1.88,3.62,3.62,0,0,0-.63-3.76,3.58,3.58,0,0,0,.11-2,3.38,3.38,0,0,0-.95-1.76,3.6,3.6,0,0,0,0-2,4.1,4.1,0,0,0-1-1.71,3.73,3.73,0,0,0-.12-2,3.94,3.94,0,0,0-1.1-1.65,3.61,3.61,0,0,0-.22-2,3.74,3.74,0,0,0-1.17-1.57,3.57,3.57,0,0,0-.29-1.94,3.65,3.65,0,0,0-1.28-1.58,3.65,3.65,0,0,0-.48-2,3.35,3.35,0,0,0-1.46-1.47,3.66,3.66,0,0,0-.7-2A3.5,3.5,0,0,0,231.09,77a3.67,3.67,0,0,0-.8-1.86A3.94,3.94,0,0,0,228.6,74a3.59,3.59,0,0,0-1-1.8,3.64,3.64,0,0,0-1.76-1,3.71,3.71,0,0,0-1-1.68,3.77,3.77,0,0,0-1.84-.89,3.7,3.7,0,0,0-3-2.38,3.76,3.76,0,0,0-3.15-2.19,3.44,3.44,0,0,0-1.35-1.46h0a4.08,4.08,0,0,0-1.9-.59,3.75,3.75,0,0,0-1.43-1.39,4.1,4.1,0,0,0-1.94-.48,3.58,3.58,0,0,0-1.46-1.31,3.89,3.89,0,0,0-1.94-.37,3.57,3.57,0,0,0-1.51-1.25,3.78,3.78,0,0,0-2-.29,3.13,3.13,0,0,0-1.57-1.17,3.51,3.51,0,0,0-1.94-.22,3.6,3.6,0,0,0-1.65-1.1,3.51,3.51,0,0,0-1.94-.15,3.57,3.57,0,0,0-1.68-1,3.34,3.34,0,0,0-2,0,3.6,3.6,0,0,0-3.66-.95,3.73,3.73,0,0,0-1.76-.92,4,4,0,0,0-1.94.11,4.13,4.13,0,0,0-1.79-.84h0a3.58,3.58,0,0,0-2,.22,3.53,3.53,0,0,0-1.79-.77,3.44,3.44,0,0,0-1.95.26,3.6,3.6,0,0,0-1.82-.74,3.84,3.84,0,0,0-1.95.34,3.43,3.43,0,0,0-1.83-.62,3.75,3.75,0,0,0-1.94.4,3.51,3.51,0,0,0-1.87-.59,3.47,3.47,0,0,0-1.9.47,3.66,3.66,0,0,0-1.87-.51,3.8,3.8,0,0,0-1.9.51,3.76,3.76,0,0,0-1.91-.43,3.56,3.56,0,0,0-1.86.62,3.78,3.78,0,0,0-1.95-.4,3.83,3.83,0,0,0-1.82.69,3.44,3.44,0,0,0-1.94-.29,3.66,3.66,0,0,0-1.84.73,3.47,3.47,0,0,0-1.93-.22,3.2,3.2,0,0,0-1.8.81,3.54,3.54,0,0,0-1.94-.19,3.6,3.6,0,0,0-1.76.89,3.88,3.88,0,0,0-2-.08,3.49,3.49,0,0,0-1.72,1,3.65,3.65,0,0,0-2,0,3.76,3.76,0,0,0-1.69,1,3.48,3.48,0,0,0-1.94.07,3.44,3.44,0,0,0-1.68,1.07A3.7,3.7,0,0,0,131,55a3.34,3.34,0,0,0-1.61,1.12,3.66,3.66,0,0,0-1.95.23,3.7,3.7,0,0,0-1.57,1.2,3.93,3.93,0,0,0-1.94.3,3.46,3.46,0,0,0-1.5,1.28,3.65,3.65,0,0,0-2,.4A3.74,3.74,0,0,0,119,60.81a3.49,3.49,0,0,0-1.9.52,3.66,3.66,0,0,0-1.43,1.38,3.58,3.58,0,0,0-1.87.59,3.46,3.46,0,0,0-1.35,1.47,4.19,4.19,0,0,0-1.87.69A3.76,3.76,0,0,0,109.35,67a3.34,3.34,0,0,0-1.84.8,3.61,3.61,0,0,0-1.17,1.61,3.55,3.55,0,0,0-1.79.92A3.71,3.71,0,0,0,103.49,72a3.75,3.75,0,0,0-1.76,1,3.53,3.53,0,0,0-.91,1.79A3.65,3.65,0,0,0,99.13,76a3.48,3.48,0,0,0-.81,1.9,3.44,3.44,0,0,0-1.57,1.32,3.58,3.58,0,0,0-.66,2,3.47,3.47,0,0,0-1.43,1.46,3.61,3.61,0,0,0-.44,2.08,3.77,3.77,0,0,0-1.28,1.65,3.67,3.67,0,0,0-.18,2.09A3.64,3.64,0,0,0,91.7,90.1a3.87,3.87,0,0,0,0,2.05,3.83,3.83,0,0,0-1,1.79,3.37,3.37,0,0,0,.11,2,3.39,3.39,0,0,0-.84,1.8,3.81,3.81,0,0,0,.18,1.94,3.5,3.5,0,0,0-.73,1.82,3.59,3.59,0,0,0,.25,2,3.57,3.57,0,0,0-.33,3.73,3.55,3.55,0,0,0-.66,1.83,3.94,3.94,0,0,0,.4,1.91,3.48,3.48,0,0,0-.62,1.83,3.35,3.35,0,0,0,.44,1.87,3.65,3.65,0,0,0-.58,1.86,3.54,3.54,0,0,0,.47,1.87,4,4,0,0,0-.55,1.87,3.6,3.6,0,0,0,.52,1.87,3.54,3.54,0,0,0-.52,1.86,3.71,3.71,0,0,0,.55,1.87,3.21,3.21,0,0,0-.47,1.87,3.48,3.48,0,0,0,.55,1.83,3.81,3.81,0,0,0-.41,1.9,3.08,3.08,0,0,0,.59,1.83,3.49,3.49,0,0,0-.37,1.9,3.7,3.7,0,0,0,.63,1.88A3.65,3.65,0,0,0,89,139a3.35,3.35,0,0,0,.73,1.86,3.9,3.9,0,0,0-.26,1.95v0a3.86,3.86,0,0,0,.77,1.72,3.7,3.7,0,0,0-.18,1.9,3.78,3.78,0,0,0,.76,1.76,3.69,3.69,0,0,0-.18,1.87,3.43,3.43,0,0,0,.81,1.75,3.76,3.76,0,0,0-.18,1.92,3.52,3.52,0,0,0,.83,1.75,3.83,3.83,0,0,0-.18,1.91,4,4,0,0,0,.84,1.71,4,4,0,0,0-.11,1.95,3.77,3.77,0,0,0,.88,1.72,3.38,3.38,0,0,0-.1,1.9,3.5,3.5,0,0,0,.88,1.72,3.35,3.35,0,0,0,0,1.94,3.6,3.6,0,0,0,.92,1.69,3.54,3.54,0,0,0,.94,3.62,3.55,3.55,0,0,0,0,1.94,3.47,3.47,0,0,0,1,1.65,3.48,3.48,0,0,0,.07,1.94,3.68,3.68,0,0,0,1.06,1.65,3.84,3.84,0,0,0,.11,2v0a4.1,4.1,0,0,0,1.14,1.62A3.77,3.77,0,0,0,101,187.9a3.64,3.64,0,0,0,.33,1.95,3.32,3.32,0,0,0,1.28,1.53,3.78,3.78,0,0,0,.37,2h0a3.75,3.75,0,0,0,1.36,1.43,3.76,3.76,0,0,0,.55,2,3.49,3.49,0,0,0,1.5,1.36,3.6,3.6,0,0,0,.69,1.94,3.4,3.4,0,0,0,1.65,1.24,3.6,3.6,0,0,0,.81,1.83,4.06,4.06,0,0,0,1.65,1.11,3.49,3.49,0,0,0,.91,1.75,3.61,3.61,0,0,0,1.65,1,4.26,4.26,0,0,0,1,1.73,3.92,3.92,0,0,0,1.72.95,3.73,3.73,0,0,0,1.06,1.68,3.35,3.35,0,0,0,1.76.88,3.46,3.46,0,0,0,1.1,1.61,3.87,3.87,0,0,0,1.79.84,4.17,4.17,0,0,0,1.21,1.58,3.79,3.79,0,0,0,1.83.73,3.67,3.67,0,0,0,3.08,2.16,3.94,3.94,0,0,0,1.31,1.51,3.66,3.66,0,0,0,1.91.54,3.32,3.32,0,0,0,1.35,1.43,3.71,3.71,0,0,0,1.91.51,3.57,3.57,0,0,0,3.37,1.76,3.4,3.4,0,0,0,1.5,1.32,3.64,3.64,0,0,0,1.94.33,3.72,3.72,0,0,0,1.53,1.24,4,4,0,0,0,1.94.26,3.8,3.8,0,0,0,1.62,1.13,3.64,3.64,0,0,0,2,.19,4,4,0,0,0,1.64,1.1,3.62,3.62,0,0,0,2,.07,3.23,3.23,0,0,0,1.72,1,3.7,3.7,0,0,0,2,0,3.93,3.93,0,0,0,1.79.92,3.78,3.78,0,0,0,2-.15,4,4,0,0,0,1.84.8,3.38,3.38,0,0,0,2.05-.33,3.58,3.58,0,0,0,2,.66h.07a3.76,3.76,0,0,0,2.05-.58,4.19,4.19,0,0,0,2.09.37,4,4,0,0,0,1.91-.85,3.78,3.78,0,0,0,2,.15,4,4,0,0,0,1.79-.95,3.81,3.81,0,0,0,2,0,3.76,3.76,0,0,0,1.69-1.06,3.72,3.72,0,0,0,2-.12,3.64,3.64,0,0,0,1.65-1.13,3.69,3.69,0,0,0,2-.23,4,4,0,0,0,1.58-1.2,3.61,3.61,0,0,0,1.94-.33,3.9,3.9,0,0,0,1.5-1.24,3.7,3.7,0,0,0,1.94-.41,4,4,0,0,0,1.46-1.35,3.38,3.38,0,0,0,1.91-.48,3.57,3.57,0,0,0,1.39-1.39,3.55,3.55,0,0,0,1.87-.55,3.67,3.67,0,0,0,1.35-1.47,3.29,3.29,0,0,0,1.87-.62,3.84,3.84,0,0,0,1.28-1.49,3.68,3.68,0,0,0,3-2.24,4,4,0,0,0,1.8-.77A4,4,0,0,0,209,213.9a3.7,3.7,0,0,0,1.75-.84,4.07,4.07,0,0,0,1.1-1.65,3.7,3.7,0,0,0,2.75-2.6,3.71,3.71,0,0,0,1.72-1,3.83,3.83,0,0,0,.95-1.73,3.77,3.77,0,0,0,1.65-1,3.54,3.54,0,0,0,.88-1.76,4.07,4.07,0,0,0,1.64-1.1h0l.07-.07a0,0,0,0,1,0,0,3.83,3.83,0,0,0,.84-2,3.52,3.52,0,0,0,1.58-1.35,3.59,3.59,0,0,0,.58-2,3.85,3.85,0,0,0,1.43-1.43,3.78,3.78,0,0,0,.4-2,3.64,3.64,0,0,0,1.62-3.48,3.81,3.81,0,0,0,1.2-1.58,3.54,3.54,0,0,0,.22-1.94,3.42,3.42,0,0,0,1.14-1.61,3.26,3.26,0,0,0,.14-1.94,3.69,3.69,0,0,0,1.1-1.61,3.91,3.91,0,0,0,.11-1.94,4.08,4.08,0,0,0,1-1.65,3.76,3.76,0,0,0,0-1.94,3.54,3.54,0,0,0,1-1.68,3.88,3.88,0,0,0,0-1.91,4.11,4.11,0,0,0,1-1.68,3.74,3.74,0,0,0,0-1.94,3.92,3.92,0,0,0,1-1.69,4,4,0,0,0-.08-1.94,3.46,3.46,0,0,0,.92-1.68,3.37,3.37,0,0,0-.12-1.94,3.09,3.09,0,0,0,.89-1.69,3.53,3.53,0,0,0-.11-1.94,3.61,3.61,0,0,0,.87-1.72,3.67,3.67,0,0,0-.14-1.9,3.28,3.28,0,0,0,.84-1.73,3.83,3.83,0,0,0-.14-1.93,3.71,3.71,0,0,0,.81-1.72,3.81,3.81,0,0,0-.19-1.91,3.73,3.73,0,0,0,.62-3.66,3.68,3.68,0,0,0,.55-3.66,3.54,3.54,0,0,0,.51-3.66,3.56,3.56,0,0,0,.51-3.67,3.75,3.75,0,0,0,.7-1.79,3.32,3.32,0,0,0-.26-1.9,3.94,3.94,0,0,0,.7-1.79,3.56,3.56,0,0,0-.33-2,3.56,3.56,0,0,0,.66-1.83v0a3.69,3.69,0,0,0-.41-1.9,3.69,3.69,0,0,0,.12-3.81Z"/><path class="cls-5" d="M105.48,156.68s2.31-17.49-12.88-13.27c-11.7,3.25.18,35.74,7.86,38.54,6.57,2.41,8-2.63,8-2.63Z"/><path class="cls-5" d="M225.26,157.16s-2.18-17.51,13-13.18c11.67,3.35-.46,35.74-8.17,38.49-6.59,2.35-8-2.7-8-2.7Z"/><path class="cls-5" d="M252.36,354.42,261,265.7s-31.72-14-50-18.51c-17.16-4.19-37.29-3.82-39.4-3.76s-22.22-.61-39.42,3.45C113.93,251.19,82.62,265,82.62,265s6,41.43,11.82,89.43Z"/><path class="cls-5" d="M166,276.31s42.71-28.9,40.16-30.31c-14.8-8.21-13.82-31-13.82-31l-53.67-3s3.27,32.81-12.64,36.81C124.88,249.06,166,276.31,166,276.31Z"/><path class="cls-6" d="M137.89,231.56a19.5,19.5,0,0,1,6.52,3.73c7,6.05,23.43,15.11,33.26,12.06,7.27-2.25,12.67-8.6,17.78-14.43A49.53,49.53,0,0,1,192.36,215l-53.67-3A80.27,80.27,0,0,1,137.89,231.56Z"/><path class="cls-5" d="M226.78,165.07c-2.66,19.19-3.47,30.27-14.63,43.81-7.77,9.41-24.7,23.59-37.1,29.35-3.48,1.62-14.66,1.8-18.16.45-13.55-5.23-32.59-19.09-39.22-30.18-8.82-14.74-11.18-26.49-13.74-43.92-3.07-20.94-3.35-13.56-3.27-33.31.16-40.23,15.8-69.22,60.9-69s68.06,25.55,68.58,66.84C230.42,151.7,229.68,144,226.78,165.07Z"/><path class="cls-4" d="M135.9,203.94c-2.92,9.84,2.59,24.62,4.46,25.88a89.67,89.67,0,0,0,16.53,8.86c3.5,1.35,14.68,1.17,18.16-.45a85.24,85.24,0,0,0,12.52-7.46c2.1-1.47,8.47-17.22,7.38-26.83s-17.34-13.51-30.16-13.28S138.83,194.1,135.9,203.94Z"/><path class="cls-5" d="M140.76,204.82c-1.89,6.34,7.18,19,8.39,19.78a58.35,58.35,0,0,0,10.65,5.71c1,.38,3.57-12.88,5.63-12.87,2.63,0,4.82,13.16,6.07,12.58a54.68,54.68,0,0,0,8.07-4.82c1.36-.94,11.09-16.27,10.39-22.47s-13.5-1.08-26.09-1.08C155.61,201.65,142.64,198.48,140.76,204.82Z"/><path class="cls-7" d="M116.34,125.29c19.76-10.36,21.55,10.63,51.49,9.15,13.2-.64,29.83-15.21,38.45-15.18,20,.08,11.71,30.24,14.79,46.31.84,4.32,4.46-4.29,5.61.17,0-.23.06-.44.1-.67,2.9-21,3.64-13.37,3.36-36-.52-41.29-22.15-69.41-67.29-69.59s-62,31.56-62.19,71.79c-.08,18.84,5.13,17.26,7.82,34.84C112.36,158,107.19,130.08,116.34,125.29Z"/><path class="cls-4" d="M115.65,120.94c8.46-8.46,22.89,8.7,52.64,8.7,29,0,34.78-18.2,49.31-8.7,12.6,8.24,2.87,47.33,2.87,47.33s6.25-2.82,6.31-3.2c2.9-21,6.2-12.8,5.91-35.43-.51-41.29-24.7-70-69.84-70.16S98.59,91,98.43,131.24c-.08,19.76,3.31,18.16,6.38,39.11,0,.32,6.72-2.08,6.72-2.08S98.72,137.88,115.65,120.94Z"/><path class="cls-5" d="M83.78,354.42,91.61,331s22.15-75.15-9-66c-19.31,5.71-32.34,51.57-39.89,89.43Z"/><path class="cls-5" d="M260.35,354.42h41.07c-7.29-37.71-19.89-82.92-39-88.72-31.06-9.43-9.5,65.89-9.5,65.89Z"/><path class="cls-8" d="M210.92,156.86a12.4,12.4,0,0,1-3.64,6.21c-2.29,2.14-16.19,3.54-17.66,2.88-2.18-1-5-5.7-5-5.7s4.92-6.71,11-6.69S210.92,156.86,210.92,156.86Z"/><path class="cls-9" d="M195.56,154.88c4.36,0,10.42,1.73,13.46,2.68.7.22.33,2.6-.84,4.58a8.82,8.82,0,0,0,2.74-5.28s-9.33-3.27-15.35-3.3-11,6.69-11,6.69a2.51,2.51,0,0,0,.71,1.08C186.38,160,190.33,154.86,195.56,154.88Z"/><path class="cls-9" d="M202.2,159.71a6.12,6.12,0,1,1-6.1-6.14A6.12,6.12,0,0,1,202.2,159.71Z"/><path class="cls-8" d="M201.33,159.71c0,2.59-7.27-4.72-4.68-4.7A4.7,4.7,0,0,1,201.33,159.71Z"/><path class="cls-4" d="M114.29,146.28s3.46-2.2,11.17-4.56c8.4-2.57,19.86,1.47,20.31,1.48.78,0,1.93-.21,1.95-2.26s-.62-3.73-1.41-3.73c-.43,0-11.79-2.74-20.33-.24C119.46,138.88,114.29,146.28,114.29,146.28Z"/><path class="cls-4" d="M217.6,146.69s-3.39-2.22-11-4.64c-8.26-2.64-19.6,1.31-20,1.3-.77,0-1.91-.21-1.9-2.27s.64-3.71,1.41-3.71c.43,0,11.66-2.64,20-.08C212.57,139.25,217.6,146.69,217.6,146.69Z"/><path class="cls-8" d="M121.35,156.51a12.49,12.49,0,0,0,3.59,6.24c2.27,2.16,16.16,3.66,17.63,3,2.2-1,5.07-5.66,5.07-5.66s-4.87-6.75-10.9-6.77S121.35,156.51,121.35,156.51Z"/><path class="cls-9" d="M136.73,154.65c-4.36,0-10.44,1.65-13.48,2.57-.7.21-.35,2.6.81,4.59a8.84,8.84,0,0,1-2.71-5.3s9.35-3.21,15.39-3.18,10.9,6.77,10.9,6.77a2.51,2.51,0,0,1-.71,1.08C145.86,159.82,142,154.67,136.73,154.65Z"/><path class="cls-9" d="M130.05,159.42a6.13,6.13,0,1,0,6.15-6.09A6.11,6.11,0,0,0,130.05,159.42Z"/><path class="cls-8" d="M130.92,159.43c0,2.6,7.3-4.65,4.71-4.67A4.7,4.7,0,0,0,130.92,159.43Z"/><polygon class="cls-6" points="165.35 185.43 159.88 181.06 165.42 168.27 165.35 185.43"/><polygon class="cls-6" points="151.11 208.98 147.05 205.31 153.85 207.07 177.46 206.9 184.09 204.81 178.96 208.98 151.11 208.98"/><path class="cls-10" d="M152.42,176.3c-5.49,4.31-22.58,4.54-29.29,0s-14.65-22.1-7.63-28,36.92-5.73,41.81,0S157.91,172,152.42,176.3Z"/><path class="cls-10" d="M179.88,176.3c5.49,4.31,22.58,4.54,29.3,0s14.64-22.1,7.63-28-36.93-5.73-41.81,0S174.39,172,179.88,176.3Z"/><line class="cls-10" x1="159.44" y1="153.72" x2="172.86" y2="153.72"/><path class="cls-11" d="M252.34,354.42,261,265.53S229.26,251.47,211,247c-1.15,24.48-22.81,38.22-41.73,38.22s-38.5-16.22-38.37-39.19c-18.26,4.31-48.29,18.78-48.29,18.78s6,41.52,11.83,89.59Z"/><path class="cls-12" d="M252.34,354.42,255.4,323l-.42.2c-13.26,7.26-12.28,18.23-12.82,31.23Z"/><path class="cls-12" d="M99.54,354.42C95.33,337.83,92,325.1,90.38,322c1.32,10.15,2.7,21.14,4.07,32.47Z"/><path class="cls-11" d="M83.72,354.42l7.89-23.64s22.15-75.15-9-65.95c-19.35,5.71-32.38,51.7-39.94,89.59Z"/><path class="cls-12" d="M83.72,354.42l7.89-23.64a239,239,0,0,0,5.58-24.52c-8.29,13-19.88,22.49-23.55,38.85-.7,3.13-1.53,6.23-2.4,9.31Z"/><path class="cls-11" d="M260.4,354.42h41.05c-7.28-37.75-19.89-83.07-39-88.89-31.06-9.43-9.5,65.89-9.5,65.89Z"/><path class="cls-12" d="M260.4,354.42h14.72c-1-4.1-2.15-8.16-3.45-12.1-4.05-12.24-13.34-18.24-22.36-25.93,1.82,8.73,3.62,15,3.62,15Z"/><path class="cls-13" d="M205.63,244s-6.69,34.06-36.27,33.27-34.3-36.57-34.3-36.57l-4.14,5.39s-2.4,43.75,39,42.84S211,247,211,247Z"/></g></g></g></g></svg>