<svg xmlns="http://www.w3.org/2000/svg" xmlns:xlink="http://www.w3.org/1999/xlink" viewBox="0 0 344.16 367.55"><defs><style>.cls-1{fill:#724a5d;}.cls-2{isolation:isolate;}.cls-3{clip-path:url(#clip-path);}.cls-4{fill:#812e1c;}.cls-5{fill:#432918;}.cls-6{fill:#f9bb8d;}.cls-7{fill:#e7dcd6;}.cls-11,.cls-7{mix-blend-mode:multiply;}.cls-12,.cls-8{fill:#fff;}.cls-9{fill:#e09d72;}.cls-10{fill:#d06037;}.cls-11{fill:#e9e9e9;}.cls-12{mix-blend-mode:soft-light;opacity:0.4;}.cls-13{fill:#a9502b;}.cls-14{fill:#f8ab08;}</style><clipPath id="clip-path"><path class="cls-1" d="M0,172.08A172.08,172.08,0,1,1,172.08,344.16,172.08,172.08,0,0,1,0,172.08Z"/></clipPath></defs><g class="cls-2"><g id="Layer_2" data-name="Layer 2"><g id="Capa_1" data-name="Capa 1"><path class="cls-1" d="M0,172.08A172.08,172.08,0,1,1,172.08,344.16,172.08,172.08,0,0,1,0,172.08Z"/><g class="cls-3"><polygon class="cls-4" points="130.04 234.59 203.18 234.59 210.54 248.88 125.28 250.4 130.04 234.59"/><path class="cls-5" d="M222,198.69c-20.38,24.4-46.3,32.56-56.46,32.56-10.39,0-38.48-7.15-59.43-32.56C94.24,184.3,85.9,143.06,82.77,123.28,81,111.92,79.53,87.8,87.5,75.7c12.5-19,35.91-32.36,75-32.36,14.8,0,35.61-.49,38.09,9.35,20-.7,30.12,9.67,35.06,18.56,7.2,13,9.88,31.12,8,48.41C241.27,142.46,234.23,184.06,222,198.69Z"/><path class="cls-6" d="M99.73,152.6s2.43-18.89-14-14.27c-12.61,3.55.34,38.57,8.65,41.56,7.1,2.56,8.64-2.88,8.64-2.88Z"/><path class="cls-6" d="M229,152.6s-2.42-18.89,13.95-14.27c12.61,3.55-.34,38.57-8.65,41.56-7.1,2.56-8.64-2.88-8.64-2.88Z"/><path class="cls-6" d="M259.71,367.55l9.13-98s-34.29-15-54-19.75c-18.55-4.45-40.27-4-42.54-3.89s-24-.56-42.54,3.89c-19.69,4.71-53.41,19.75-53.41,19.75s6.76,45.56,13.32,98Z"/><path class="cls-6" d="M165.59,281.42s45.95-31.37,43.19-32.88c-16-8.78-15-33.41-15-33.41l-57.92-3s3.66,35.39-13.5,39.77C121.07,252.19,165.59,281.42,165.59,281.42Z"/><path class="cls-6" d="M230.67,161.12c-2.78,20.72-4.84,31.77-15.6,47.34-17.93,26-40.73,34.66-49.68,34.66-9.14,0-33.85-7.61-52.28-34.66-10.44-15.31-12.18-28.54-15-47.34-3.41-22.59-3.67-14.61-3.67-35.93,0-43.42,16.75-74.77,65.42-74.77s73.55,27.29,74.29,71.85C234.55,146.69,233.71,138.41,230.67,161.12Z"/><path class="cls-7" d="M105.85,128.59c6.53-6.8,22.65-6.51,31.79-6.8,8.63-.25,29.36-.08,35.71-7.49,5.64-6.56,16-16.13,25.28-16.13,21.56,0,25.17,32.13,28.58,49.47.91,4.65,2.09,9.4,3.36,14.21,0-.25.06-.47.1-.73,3-22.71,3.88-14.43,3.47-38.85-.74-44.56-24.2-74.81-72.91-74.81s-66.8,34.31-66.8,77.73c0,20.33.24,14.09,3.22,33.05C101.81,149.45,98.13,136.62,105.85,128.59Z"/><path class="cls-5" d="M99,166.82c2.42,15.87,2.64,27.28,12,41,18.44,27,45.3,35.3,54.44,35.3,9,0,34.07-8.58,52-34.56,9.72-14.07,10-24.57,12.47-41.74L210,199.42S196.05,217.33,178.17,224c-3.85,1.43-10-12.19-13.84-12.19-4.87,0-9.8,13.95-14.72,11.8-17.21-7.44-32.73-24.15-32.73-24.15Z"/><path class="cls-5" d="M98.61,121.88c16.13-12.19,73.42,3.94,94.17-31.94,24.74.31,30,24.7,33.92,33.59s3.86,38.36,4,37.59c3-22.71,6.64-13.83,6.23-38.25-.74-44.57-27-75.41-75.67-75.41S92,81.76,92,125.17c0,21.32,2.67,13.36,6.08,36C98.22,161.89,92.65,126.38,98.61,121.88Z"/><path class="cls-6" d="M77.5,367.55l8.85-26.83s23.58-81.2-10-71.15c-21.05,6.3-35,56.85-42.93,98Z"/><path class="cls-6" d="M269.27,367.55h44.06c-7.95-41.13-21.87-91.68-42.92-98-33.57-10.05-10,71.15-10,71.15Z"/><path class="cls-8" d="M213.52,152.34a13.38,13.38,0,0,1-3.89,6.71c-2.47,2.33-17.46,3.88-19,3.18-2.36-1.06-5.44-6.12-5.44-6.12s5.28-7.27,11.8-7.27S213.52,152.34,213.52,152.34Z"/><path class="cls-5" d="M196.94,150.26c4.7,0,11.25,1.83,14.54,2.83.75.24.36,2.81-.9,4.95a9.51,9.51,0,0,0,2.94-5.7s-10.08-3.5-16.58-3.5-11.8,7.27-11.8,7.27a2.65,2.65,0,0,0,.76,1.16C187.06,155.81,191.29,150.26,196.94,150.26Z"/><path class="cls-5" d="M204.13,155.44a6.61,6.61,0,1,1-6.62-6.6A6.62,6.62,0,0,1,204.13,155.44Z"/><path class="cls-8" d="M203.18,155.46c0,2.79-7.86-5.06-5.06-5.06A5.06,5.06,0,0,1,203.18,155.46Z"/><path class="cls-5" d="M110.93,141.33s3.54-2.39,11.46-5c8.62-2.82,20.41,1.49,20.86,1.49.81,0,2-.22,2-2.44s-.64-4-1.45-4c-.44,0-12.13-2.9-20.89-.16C116.21,133.32,110.93,141.33,110.93,141.33Z"/><path class="cls-5" d="M219.46,141.33s-3.55-2.39-11.46-5c-8.62-2.82-20.41,1.49-20.87,1.49-.81,0-2-.22-2-2.44s.65-4,1.46-4c.44,0,12.12-2.9,20.88-.16C214.18,133.32,219.46,141.33,219.46,141.33Z"/><path class="cls-8" d="M116.86,152.34a13.45,13.45,0,0,0,3.9,6.71c2.46,2.33,17.46,3.88,19,3.18,2.37-1.06,5.44-6.12,5.44-6.12s-5.28-7.27-11.79-7.27S116.86,152.34,116.86,152.34Z"/><path class="cls-5" d="M133.45,150.26c-4.71,0-11.26,1.83-14.53,2.83-.76.24-.37,2.81.88,4.95a9.51,9.51,0,0,1-2.94-5.7s10.08-3.5,16.59-3.5,11.79,7.27,11.79,7.27a2.58,2.58,0,0,1-.75,1.16C143.33,155.81,139.1,150.26,133.45,150.26Z"/><path class="cls-5" d="M126.26,155.44a6.61,6.61,0,1,0,6.61-6.6A6.61,6.61,0,0,0,126.26,155.44Z"/><path class="cls-8" d="M127.21,155.46c0,2.79,7.86-5.06,5.06-5.06A5.05,5.05,0,0,0,127.21,155.46Z"/><polygon class="cls-9" points="162.81 182.13 156.89 177.44 162.81 163.61 162.81 182.13"/><polygon class="cls-9" points="146.76 201.76 144.53 199.6 184.42 197.45 177.26 201.76 146.76 201.76"/><path class="cls-10" d="M79.89,367.55l6.46-26.83s23.58-81.2-10-71.15c-21.07,6.31-38.81,56.84-47.19,98Z"/><path class="cls-11" d="M79.89,367.55l6.46-26.83s1.41-4.89,3.06-12.09c-7.94,9.24-15.13,28.21-20.14,34.16a57,57,0,0,1-4.5,4.76Z"/><path class="cls-10" d="M267.09,367.55H315c-8.08-41.13-23.53-91.67-44.58-98-33.57-10.05-10,71.15-10,71.15S263.88,354.64,267.09,367.55Z"/><path class="cls-12" d="M302.23,367.55H315c-7.05-35.9-19.71-79-36.82-93.53a196.52,196.52,0,0,1,21.78,57.21C302.61,343.8,302.91,355.68,302.23,367.55Z"/><path class="cls-11" d="M267.09,367.55h13.24c-6.8-9.59-11.88-25.08-16.8-47.26,0-.22-6.32,7-6.48,6.87,1.77,8,3.38,13.56,3.38,13.56S263.88,354.64,267.09,367.55Z"/><path class="cls-8" d="M128.09,264.8s9.15,8,40.95,8,41-8,41-8v49.48h-81.9Z"/><path class="cls-10" d="M259.71,367.55l9.13-98s-37.12-18.18-58.3-20.69c-17.47,42.56-43,60.13-43,60.13s-27.41-26.26-42.23-58.61c-19.69,4.72-48.91,19.17-48.91,19.17s6.76,45.56,13.32,98Z"/><path class="cls-11" d="M101.75,367.55c-1.21-4-2.51-8-4.06-12-3.51-8.95-8.42-17.16-12.87-25.62,1.56,11.68,3.22,24.43,4.86,37.58Z"/><path class="cls-13" d="M185.14,259.67l18-25.08,7.36,14.29s-10.84,43-43,60.13C184.22,294.19,185.14,259.67,185.14,259.67Z"/><path class="cls-11" d="M203.18,234.59l-.32.45c.45,47-32.61,71.54-35.35,74,32.19-17.12,43-60.13,43-60.13Z"/><path class="cls-13" d="M151.66,259.67,130,234.59l-4.76,15.81s10,41.49,42.23,58.61C150.8,294.19,151.66,259.67,151.66,259.67Z"/><path class="cls-11" d="M145.38,280.07C138.46,267.64,134.29,254,129,240.83a13,13,0,0,1-.41-1.25l-3.26,10.82s10,41.49,42.23,58.61a37.83,37.83,0,0,1-8.94-12.71A61.52,61.52,0,0,1,145.38,280.07Z"/><polygon class="cls-13" points="188.72 360.54 167.51 360.54 167.51 310.41 172.61 355.85 188.72 360.54"/><path class="cls-14" d="M183.42,316.09a4.2,4.2,0,1,1-4.2-4.2A4.21,4.21,0,0,1,183.42,316.09Z"/><path class="cls-14" d="M183.42,332.51a4.2,4.2,0,1,1-4.2-4.19A4.21,4.21,0,0,1,183.42,332.51Z"/><path class="cls-14" d="M183.42,349.81a4.2,4.2,0,1,1-4.2-4.21A4.2,4.2,0,0,1,183.42,349.81Z"/></g></g></g></g></svg>