<svg xmlns="http://www.w3.org/2000/svg" xmlns:xlink="http://www.w3.org/1999/xlink" viewBox="0 0 344.16 446.64"><defs><style>.cls-1{fill:#724a5d;}.cls-2{isolation:isolate;}.cls-3{clip-path:url(#clip-path);}.cls-4{fill:#e94e1b;}.cls-5{fill:#336d65;}.cls-6{fill:#f9bb8d;}.cls-7{fill:#e5c9a6;mix-blend-mode:multiply;}.cls-8{fill:#fff;}.cls-9{fill:#55aea3;}.cls-10{fill:#583636;}.cls-11{fill:#432827;}.cls-12{fill:#cd4216;}.cls-13{fill:#448b82;}.cls-14{fill:#c98c68;}</style><clipPath id="clip-path"><path class="cls-1" d="M0,172.08A172.08,172.08,0,1,1,172.08,344.16,172.08,172.08,0,0,1,0,172.08Z"/></clipPath></defs><g class="cls-2"><g id="Layer_2" data-name="Layer 2"><g id="Capa_1" data-name="Capa 1"><path class="cls-1" d="M0,172.08A172.08,172.08,0,1,1,172.08,344.16,172.08,172.08,0,0,1,0,172.08Z"/><g class="cls-3"><path class="cls-4" d="M111,131.62c0,11.88,28.69,48.64,61.77,48.64S234.3,141,234.3,129.15s-26.81-11.52-59.89-11.52S111,119.72,111,131.62Z"/><path class="cls-5" d="M145.07,208.94h52.39V189.6s-5.54-5.09-23.19-5.09-24.71,3.39-24.71,3.39Z"/><polygon class="cls-6" points="127.76 249.68 217.71 249.68 225.86 205.77 187.84 197.63 187.84 172.63 157.63 172.63 157.63 197.63 119.61 205.77 127.76 249.68"/><path class="cls-7" d="M157.63,177.72s6.79,10.18,15.61,10.18,14.6-10.18,14.6-10.18v-5.09H157.63Z"/><path class="cls-6" d="M224.09,136.08c-10.77,30.71-26.63,45.71-50.22,45.71-23.88,0-38.92-15.34-50.66-45.71-8-20.62-3.86-45.71-3.86-45.71,0-29,8.59-60.19,54.52-60.19s54.51,36.2,54.51,64.26C228.38,94.44,229.74,120,224.09,136.08Z"/><path class="cls-6" d="M105.77,123.31c2.9,9.57,12.9,14.61,15.12,9.6,2.15-4.86,6.58-7.54,5.23-15.67s-11.82-16.89-16.36-14.43C102.68,106.65,103.39,115.45,105.77,123.31Z"/><path class="cls-6" d="M239.83,122.31c-2.9,9.57-12.89,14.61-15.11,9.6s-6.58-7.55-5.23-15.67,11.82-16.89,16.36-14.44C242.92,105.64,242.22,114.45,239.83,122.31Z"/><path class="cls-4" d="M223.21,117.63s4-17.79,14.34-14.66c.36-11.2,0-20.33.13-29.11.41-43.68-63.52-78-95.83-49.55-15.48-5.7-28.63,12.37-34.67,37.4C104,74.89,106,93.47,108.06,104c9.9-6.48,14.39,13.66,14.39,13.66l3.67-.39s-7.52-9.42,1.64-17.85c-5.09-7.28,5.46-31.94,10.28-34.28,9.8-4.75,2.87,5,29.26,16.11s37.49,6.2,51.94,4.84c4.1-.38.32,9.92-1.53,13.33,10.37,6.81,2.77,17.61,2.77,17.61Z"/><path class="cls-8" d="M127.76,393.15h90l-.9-188.34L193,196.73s-5.84,9-19.59,9-18.53-9-18.53-9l-25.64,7.06Z"/><path class="cls-9" d="M258.67,244.25C260.28,251.89,271.72,377,271,411.8c-2.09,4.08-21.65,11.9-24,8.8C243.61,373.69,233,260.41,233,252.41c0-10.59-8.68-46.64,1.91-46.64S253.24,218.45,258.67,244.25Z"/><path class="cls-9" d="M234,263.87l.94-58.1-26.24-4.46L197.46,189.6l-9.85,24.18L171.26,228l-12.61-10.52-12-27.92-11.21,11.71-26.23,4.46.93,58.1s3.75,20.36,3.61,33.26-4.42,141.05-4.42,141.05,23.94,8.46,64.4,8.46,60.75-11.54,60.75-11.54-4-125.07-4.16-138S234,263.87,234,263.87Z"/><path class="cls-9" d="M85.49,244.25c-1.61,7.64-13.07,132.56-12.31,167.36,2.09,4.09,21.68,12.09,24,9,3.32-46.91,13.94-160.19,13.94-168.19,0-10.59,8.67-46.64-1.91-46.64S90.92,218.45,85.49,244.25Z"/><path class="cls-8" d="M155.93,107.91c0,2.81-4.62,6.84-10.37,6.84-7,0-11.25-4.08-11.25-8.41s6.07-7.21,11.21-6.26C151.17,101.13,155.93,104.83,155.93,107.91Z"/><path class="cls-10" d="M152.72,107.86a7.59,7.59,0,0,1-3.33,6.29c-2.55,1.27-7.68.56-8.81-.19a7.6,7.6,0,1,1,12.14-6.1Z"/><path class="cls-10" d="M134.42,107.59a7.76,7.76,0,0,1-.21-1.26,5.35,5.35,0,0,1,.95-3.33c1.71-2.52,5.67-4,9.57-3.78a17.21,17.21,0,0,1,5.38,1.62,13.84,13.84,0,0,1,3.95,2.84,6.88,6.88,0,0,1,1.77,2.95,4,4,0,0,1,.1,1.28,4.16,4.16,0,0,0-.38-1.18,7.83,7.83,0,0,0-2.09-2.4,16.29,16.29,0,0,0-3.91-2.27,17.68,17.68,0,0,0-5-1.35c-3.4-.3-7.08.88-8.77,2.81A5.74,5.74,0,0,0,134.42,107.59Z"/><path class="cls-11" d="M150.31,109.19a4.85,4.85,0,1,1-4.84-4.83A4.85,4.85,0,0,1,150.31,109.19Z"/><path class="cls-8" d="M146.55,107a2.17,2.17,0,1,0,2.17-2.17A2.17,2.17,0,0,0,146.55,107Z"/><path class="cls-8" d="M148,103.64a.72.72,0,1,1-1.44,0,.72.72,0,0,1,1.44,0Z"/><path class="cls-8" d="M190.57,107.91c0,2.81,4.62,6.84,10.37,6.84,7,0,11.25-4.08,11.25-8.41s-6.08-7.21-11.21-6.26C195.33,101.13,190.57,104.83,190.57,107.91Z"/><path class="cls-10" d="M193.78,107.86a7.59,7.59,0,0,0,3.33,6.29c2.54,1.27,7.67.56,8.8-.19a7.6,7.6,0,1,0-12.13-6.1Z"/><path class="cls-10" d="M212.08,107.59a5.74,5.74,0,0,0-1.4-4.07c-1.7-1.93-5.37-3.11-8.77-2.81a17.68,17.68,0,0,0-5,1.35,16.29,16.29,0,0,0-3.91,2.27,7.83,7.83,0,0,0-2.09,2.4,3.79,3.79,0,0,0-.38,1.18,3.22,3.22,0,0,1,.09-1.28,6.92,6.92,0,0,1,1.78-2.95,13.7,13.7,0,0,1,4-2.84,17.05,17.05,0,0,1,5.38-1.62c3.88-.25,7.85,1.26,9.56,3.78a5.35,5.35,0,0,1,.95,3.33A7.76,7.76,0,0,1,212.08,107.59Z"/><path class="cls-11" d="M196.19,109.19a4.84,4.84,0,1,0,4.84-4.83A4.84,4.84,0,0,0,196.19,109.19Z"/><path class="cls-8" d="M199.94,107a2.17,2.17,0,1,1-2.17-2.17A2.17,2.17,0,0,1,199.94,107Z"/><path class="cls-8" d="M198.51,103.64a.72.72,0,1,0,.71-.71A.71.71,0,0,0,198.51,103.64Z"/><path class="cls-12" d="M129.82,98.15s5-6.62,17.35-7.14a69.4,69.4,0,0,1,8.61.1c1.41.19,1.34-5.8.4-5.89s-9.34-.77-13.16.12A17.71,17.71,0,0,0,129.82,98.15Z"/><path class="cls-12" d="M215.2,100.13s-5.1-6.82-17.36-7.82a66.59,66.59,0,0,0-8.51-.24c-1.39.13-1.49-5.85-.57-5.91s9.23-.4,13,.64A19.3,19.3,0,0,1,215.2,100.13Z"/><path class="cls-7" d="M177.46,131a5.94,5.94,0,0,1-5,2.64c-3.4,0-5.65-1-6.15-1.57s3.34-7.35,3.34-7.35-1.79,4.74-1,5.91,3,1.16,4.07,1.16C176.18,131.76,177.46,131,177.46,131Z"/><path class="cls-13" d="M194.06,187.67c2.83,12.9-22.8,40.37-22.8,40.37l11.15-7L192,232.79l16.67-31.48S201.53,190.84,194.06,187.67Z"/><path class="cls-13" d="M150.1,187.67c-2.83,12.9,21.16,40.37,21.16,40.37l-11.45-6.11-10.53,13.92-13.79-34.54S142.64,190.84,150.1,187.67Z"/><path class="cls-14" d="M155.88,149a3.08,3.08,0,0,0,1,1.26,5.5,5.5,0,0,0,1.5.93,3.58,3.58,0,0,0,.91.26,1.54,1.54,0,0,0,.37,0l.66-.09c1.7-.22,3.7-.76,5.95-1.16a40.72,40.72,0,0,1,7.2-.83l3.65.21a24.37,24.37,0,0,1,3.51.42c1.14.2,2.28.32,3.28.58l2.8.65a6,6,0,0,0,1.06.24,2.06,2.06,0,0,0,.87-.15,4,4,0,0,0,1.45-.87,3,3,0,0,0,.89-1.31,2.5,2.5,0,0,1-.33,1.71,5.4,5.4,0,0,1-1.34,1.64,4.13,4.13,0,0,1-1.32.61,4.42,4.42,0,0,1-1.5,0l-2.94-.32-3.15-.31c-1.08-.11-2.2-.22-3.4-.24l-3.52-.14c-4.6,0-9.25,1.06-13.07,1.12h-.67a2.68,2.68,0,0,1-.86-.17,4,4,0,0,1-1.21-.71,6.5,6.5,0,0,1-1.3-1.61A2.37,2.37,0,0,1,155.88,149Z"/></g></g></g></g></svg>