<svg xmlns="http://www.w3.org/2000/svg" xmlns:xlink="http://www.w3.org/1999/xlink" viewBox="0 0 344.16 364.1"><defs><style>.cls-1{fill:#259dab;}.cls-2{clip-path:url(#clip-path);}.cls-3{fill:#331b19;}.cls-4{fill:#dba87b;}.cls-5{fill:#e4b58b;}.cls-6{fill:#e2e1da;}.cls-7{fill:#fff;}.cls-8{fill:#d4d2c4;}.cls-9{fill:#352e35;}.cls-10{fill:#00b5cf;}.cls-11{fill:#432918;}.cls-12{fill:#e09d72;}.cls-13{fill:#d84b58;}.cls-14{fill:#f08375;opacity:0.2;}</style><clipPath id="clip-path"><path class="cls-1" d="M344.16,172.08A172.08,172.08,0,1,1,172.08,0,172.08,172.08,0,0,1,344.16,172.08Z"/></clipPath></defs><g id="Layer_2" data-name="Layer 2"><g id="Capa_1" data-name="Capa 1"><path class="cls-1" d="M344.16,172.08A172.08,172.08,0,1,1,172.08,0,172.08,172.08,0,0,1,344.16,172.08Z"/><g class="cls-2"><path class="cls-3" d="M108.22,164.59c-11,22.92,18.46,56.24,2.12,69,7.45,3.52,32.42,17.31,64.4,15.69S233.28,230.63,245,220.5c-15.42-15.68.92-23.19-7.88-53.59"/><path class="cls-4" d="M208.73,240.51l-3.38,44.12-26.17,22.43-23.52-15.68-26.18-45.89s15.56-9.82,15.91-14.16c.6-7.47,2.61-13.49,1.77-21.3-1.53-14.27,53.87-15.24,51.44-.43-1.07,6.45.8,18,1.23,22.6S208.73,240.51,208.73,240.51Z"/><path class="cls-5" d="M233.1,131.81a283.89,283.89,0,0,1-6.43,42.74c-1,4.12-1.76,10.1-4.74,15.54-5.68,10.33-30.77,37.25-40.14,38.91-3.31.58-16.91.46-20.94-1.79-12.43-6.94-30.34-27.36-35-37.12a79,79,0,0,1-5.09-15.46,298.69,298.69,0,0,1-6.37-42.82c-3.72-45.73,26.58-66,59.36-66S236.8,86.07,233.1,131.81Z"/><path class="cls-5" d="M244.69,151.07c-.84,5.1-5.26,14-7.15,17.24-1.28,2.16-7.92,6.51-10.88,6.24s-1.82-8.24-2.91-10.94-1.54-8.44-1.4-14.63c.24-10.08,6.36-14,12.53-13.41S246.32,141.12,244.69,151.07Z"/><path class="cls-5" d="M103.07,151.07c.84,5.1,5.25,14,7.14,17.24,1.29,2.16,7.93,6.51,10.88,6.24s1.83-8.24,2.92-10.94,1.54-8.44,1.39-14.63c-.24-10.08-6.35-14-12.52-13.41S101.43,141.12,103.07,151.07Z"/><path class="cls-3" d="M119.19,133.78s1.1-4.64,5.15-6.47c9.31-4.19,27,.32,29.21,1.37,5.94,2.85,6.67,6,6.67,6l-.64,5a27.38,27.38,0,0,0-7.46-5.35c-2.32-1.14-17.18-6.73-26.42-4.2A14.1,14.1,0,0,0,119.19,133.78Z"/><path class="cls-3" d="M226.55,133.78s-1.09-4.64-5.13-6.47c-9.32-4.19-27,.32-29.21,1.37-6,2.85-6.68,6-6.68,6l.64,5a27.42,27.42,0,0,1,7.45-5.35c2.33-1.14,17.19-6.73,26.43-4.2A14,14,0,0,1,226.55,133.78Z"/><path class="cls-3" d="M114.1,135.52S114,149,116.19,148.79s2.6-8-1-21.41,10.25-5,34.79-13.7c26.82-9.53,35.57-40.08,49.47-24.2,18,1.47,25.28,11.35,28.48,30.38s-3.2,32.16,0,32.09,1.58-13.32,5.5-15.26,6.38.48,6.38.48,8.34-41.48-4.61-65.91C225.51,53,197,43.49,167.23,43.49c-25.06,0-50.92,24.93-57.64,38.8-9.65,19.93-5.94,59.67-3.46,56.29S114.1,135.52,114.1,135.52Z"/><path class="cls-6" d="M282.29,364.1c-4.09-43.76-10-93.07-16.58-100.82-5.61-6.65-25.27-13.65-38-19.1-14.75-6.32-19.95-4.88-19.95-4.88s-7.1,41-34.77,48.88c-27.66-7.86-34.75-48.88-34.75-48.88s-5.21-1.44-20,4.88c-12.72,5.45-32.38,12.45-38,19.1C73.76,271,67.81,320.34,63.72,364.1Z"/><path class="cls-7" d="M118,168.87a2,2,0,1,1-2-2A2,2,0,0,1,118,168.87Z"/><path class="cls-7" d="M230.47,168.87a2,2,0,1,1-2-2A2,2,0,0,1,230.47,168.87Z"/><rect class="cls-8" x="169.11" y="291.88" width="11.45" height="54.23"/><path class="cls-9" d="M190.54,310.74a3.69,3.69,0,1,1-3.68-3.68A3.68,3.68,0,0,1,190.54,310.74Z"/><path class="cls-9" d="M190.54,330.82a3.69,3.69,0,1,1-3.68-3.69A3.68,3.68,0,0,1,190.54,330.82Z"/><path class="cls-10" d="M220.3,241.35c-9.13-3-12.53-2-12.53-2S188.66,288.18,173,288.18s-34.75-48.88-34.75-48.88-4-1.11-15.08,2.94c4.14,28.08,40.82,55.08,49.7,55.08S218.78,269.45,220.3,241.35Z"/><path class="cls-7" d="M127.34,141.71a13.29,13.29,0,0,0,3.84,6.63c2.43,2.29,17.23,3.83,18.79,3.12,2.33-1,5.37-6,5.37-6s-5.21-7.17-11.64-7.17S127.34,141.71,127.34,141.71Z"/><path class="cls-11" d="M143.7,139.66c-4.64,0-10.51,2.14-13.74,3.14-.75.23-1,2.43.27,4.54-2.64-2.43-4.54-7.24-4.54-7.24s3.17,1.12,4.2.79c3.09-1,9-2.63,13.81-2.63,6.43,0,11.64,7.17,11.64,7.17a2.68,2.68,0,0,1-.75,1.15C153.44,145.13,149.27,139.66,143.7,139.66Z"/><path class="cls-11" d="M136.61,144.78a6.52,6.52,0,1,0,6.52-6.52A6.51,6.51,0,0,0,136.61,144.78Z"/><path class="cls-7" d="M137.54,144.79c0,2.75,7.75-5,5-5A5,5,0,0,0,137.54,144.79Z"/><polygon class="cls-12" points="174.31 168.51 168.46 163.88 174.53 149 174.31 168.51"/><path class="cls-13" d="M174.3,201.53c-11.88,0-16.46-12.58-16.46-12.58a6.53,6.53,0,0,0,3.44.06c3.14-1,7.3-3.62,8.36-3.91,1.58-.45,4.67,1.76,4.67,1.76s2.71-2.16,4-1.76c.88.27,4.93,2.3,8.32,3.35a17.17,17.17,0,0,0,4.15.5S185.37,201.53,174.3,201.53Z"/><path class="cls-7" d="M174.16,195.2c-9.73,0-14.71-5.35-14.71-5.35A93.54,93.54,0,0,0,174.31,191a89.72,89.72,0,0,0,15.29-1.36A24.78,24.78,0,0,1,174.16,195.2Z"/><path class="cls-14" d="M157.89,166.48c0,5.69-7.21,10.31-16.1,10.31s-16.1-4.62-16.1-10.31,7.21-10.32,16.1-10.32S157.89,160.77,157.89,166.48Z"/><path class="cls-7" d="M218.68,141.71a13.19,13.19,0,0,1-3.84,6.63c-2.43,2.29-17.23,3.83-18.79,3.12-2.34-1-5.37-6-5.37-6s5.21-7.17,11.63-7.17S218.68,141.71,218.68,141.71Z"/><path class="cls-11" d="M202.31,139.66c4.65,0,10.52,2.14,13.76,3.14.73.23.94,2.43-.29,4.54,2.64-2.43,4.55-7.24,4.55-7.24s-3.18,1.12-4.21.79c-3.09-1-9-2.63-13.81-2.63-6.42,0-11.63,7.17-11.63,7.17a2.61,2.61,0,0,0,.74,1.15C192.57,145.13,196.74,139.66,202.31,139.66Z"/><path class="cls-11" d="M209.4,144.78a6.52,6.52,0,1,1-6.52-6.52A6.52,6.52,0,0,1,209.4,144.78Z"/><path class="cls-7" d="M208.47,144.79c0,2.75-7.75-5-5-5A5,5,0,0,1,208.47,144.79Z"/><path class="cls-14" d="M188.12,166.48c0,5.69,7.21,10.31,16.11,10.31s16.1-4.62,16.1-10.31-7.21-10.32-16.1-10.32S188.12,160.77,188.12,166.48Z"/></g></g></g></svg>