<svg xmlns="http://www.w3.org/2000/svg" xmlns:xlink="http://www.w3.org/1999/xlink" viewBox="0 0 344.16 363.85"><defs><style>.cls-1{fill:#e94e1b;}.cls-2{clip-path:url(#clip-path);}.cls-3{fill:#331b19;}.cls-4{fill:#dba87b;}.cls-5{fill:#e4b58b;}.cls-6{fill:#e7e7e7;}.cls-7{fill:#fff;}.cls-8{fill:#272127;}.cls-9{fill:#352e35;}.cls-10{fill:#432918;}.cls-11{fill:#e09d72;}.cls-12{fill:#d84b58;}.cls-13{fill:#f08375;opacity:0.2;}</style><clipPath id="clip-path"><path class="cls-1" d="M344.16,172.08A172.08,172.08,0,1,1,172.08,0,172.08,172.08,0,0,1,344.16,172.08Z"/></clipPath></defs><g id="Layer_2" data-name="Layer 2"><g id="Capa_1" data-name="Capa 1"><path class="cls-1" d="M344.16,172.08A172.08,172.08,0,1,1,172.08,0,172.08,172.08,0,0,1,344.16,172.08Z"/><g class="cls-2"><path class="cls-3" d="M236.91,181.08s-5.95,12.47-2.31,23c1.89,5.45-1.86,14.6,3.5,19s7.47,13.74,10,20.38-3.72,55.8-3.72,55.8-58,19.48-68.41,19.48,12.52-117.35,12.52-117.35Z"/><path class="cls-3" d="M123.13,184.78s6,12.47,2.3,23c-1.88,5.45,1.87,14.61-3.5,19s-7.47,13.74-10,20.38S115.7,303,115.7,303s58,19.48,68.41,19.48-12.53-117.34-12.53-117.34Z"/><path class="cls-3" d="M112,161c.17,7.56,2.83,13.53,20.1,35.45s43,16.39,47.51,16.39,29.38,4,44.59-13.29c6.41-7.28,18.82-24.35,18.82-36.2"/><path class="cls-4" d="M210.94,243.5l-.23,39.56-26.6,22.8L160.2,289.93,148.26,243.5s4.85-21.76,3.3-36.27,54.76-15.49,52.29-.44S210.94,243.5,210.94,243.5Z"/><path class="cls-5" d="M238.93,127.72a292.08,292.08,0,0,1-6.54,43.45c-1,4.19-1.79,10.26-4.82,15.8-5.77,10.49-31.29,37.86-40.8,39.54-3.38.6-17.2.47-21.29-1.82-12.63-7.05-30.84-27.8-35.58-37.72a80.63,80.63,0,0,1-5.16-15.73,301.93,301.93,0,0,1-6.48-43.52c-3.78-46.49,27-67.09,60.34-67.09S242.68,81.22,238.93,127.72Z"/><path class="cls-5" d="M250.7,147.29c-.84,5.18-5.33,14.27-7.27,17.53-1.3,2.2-8.05,6.62-11.05,6.34s-1.86-8.36-3-11.12-1.56-8.57-1.42-14.87c.24-10.25,6.46-14.21,12.72-13.63S252.37,137.18,250.7,147.29Z"/><path class="cls-5" d="M106.74,147.29c.84,5.18,5.33,14.27,7.27,17.53,1.3,2.2,8,6.62,11,6.34s1.86-8.36,3-11.12,1.57-8.57,1.42-14.87c-.24-10.25-6.46-14.21-12.72-13.63S105.08,137.18,106.74,147.29Z"/><path class="cls-3" d="M123.13,129.72s1.11-4.73,5.22-6.58c9.47-4.27,27.44.33,29.7,1.4,6,2.89,6.78,6,6.78,6l-.64,5.13a27.81,27.81,0,0,0-7.58-5.43c-2.37-1.16-17.47-6.85-26.86-4.26A14.13,14.13,0,0,0,123.13,129.72Z"/><path class="cls-3" d="M232.27,129.72s-1.12-4.73-5.22-6.58c-9.47-4.27-27.44.33-29.7,1.4-6,2.89-6.78,6-6.78,6l.65,5.13a27.65,27.65,0,0,1,7.57-5.43c2.37-1.16,17.48-6.85,26.87-4.26A14.2,14.2,0,0,1,232.27,129.72Z"/><path class="cls-3" d="M118,131.49s-.14,13.67,2.12,13.49,2.65-8.16-1-21.77,19.61-36.42,31.52-39.52c15.28-4,41-8.47,54.14,1,18.27,1.5,25.68,11.54,29,30.89s-3.27,32.69,0,32.62,1.61-13.54,5.6-15.51,6.48.49,6.48.49,8.48-42.18-4.69-67C231.21,47.63,202.18,37.93,172,37.93c-25.47,0-51.76,25.35-58.59,39.45-9.81,20.26-6,60.66-3.52,57.22S118,131.49,118,131.49Z"/><polygon class="cls-6" points="184.11 363.86 184.11 300.87 163.04 279.07 164.83 241.44 129.47 244.3 129.47 363.86 184.11 363.86"/><polygon class="cls-7" points="143.98 232.8 155.88 276.98 164.83 241.44 151.28 224.21 143.98 232.8"/><path class="cls-8" d="M162.94,363.85v-7.2l-18-125.49a98.44,98.44,0,0,1-24.54,14.93c-12.94,5.54-31.1,8.51-36.81,15.27-6.65,7.88-12.69,58-16.86,102.49Z"/><polygon class="cls-9" points="152.29 363.86 162.94 363.86 162.94 359.5 144.94 231.16 111.98 260.04 141.38 272.88 104.63 264.91 152.29 363.86"/><polygon class="cls-6" points="172.9 363.86 227.54 363.86 227.54 244.3 192.16 241.44 193.96 279.07 172.9 300.87 172.9 363.86"/><polygon class="cls-7" points="213.02 232.8 201.13 276.98 192.16 241.44 205.72 224.21 213.02 232.8"/><path class="cls-8" d="M290.26,363.85c-4.15-44.48-10.2-94.61-16.85-102.49-5.71-6.76-23.87-9.73-36.8-15.27a98.44,98.44,0,0,1-24.54-14.93l-18,125.49v7.2Z"/><polygon class="cls-9" points="204.71 363.86 252.38 264.91 215.63 272.88 245.03 260.04 212.07 231.16 194.06 359.5 194.06 363.86 204.71 363.86"/><path class="cls-7" d="M121.93,165.39a2,2,0,1,1-2-2A2,2,0,0,1,121.93,165.39Z"/><path class="cls-7" d="M236.26,165.39a2,2,0,1,1-2-2A2,2,0,0,1,236.26,165.39Z"/><path class="cls-7" d="M131.27,138.73a13.48,13.48,0,0,0,3.91,6.73c2.47,2.33,17.51,3.9,19.1,3.19,2.38-1.07,5.46-6.14,5.46-6.14s-5.29-7.29-11.83-7.29S131.27,138.73,131.27,138.73Z"/><path class="cls-10" d="M147.91,136.65c-4.72,0-10.69,2.17-14,3.19-.75.23-1,2.46.29,4.61-2.69-2.47-4.62-7.36-4.62-7.36s3.22,1.14,4.27.81c3.15-1,9.14-2.68,14-2.68,6.54,0,11.83,7.29,11.83,7.29a2.55,2.55,0,0,1-.76,1.16C157.81,142.21,153.57,136.65,147.91,136.65Z"/><path class="cls-10" d="M140.7,141.85a6.63,6.63,0,1,0,6.62-6.63A6.63,6.63,0,0,0,140.7,141.85Z"/><path class="cls-7" d="M141.65,141.86c0,2.8,7.88-5.08,5.07-5.08A5.07,5.07,0,0,0,141.65,141.86Z"/><polygon class="cls-11" points="179.03 165.97 173.08 161.26 179.25 146.15 179.03 165.97"/><path class="cls-12" d="M179,199.54c-12.08,0-16.73-12.79-16.73-12.79a6.59,6.59,0,0,0,3.49.06c3.2-1.06,7.42-3.67,8.49-4,1.6-.45,4.75,1.8,4.75,1.8s2.76-2.2,4.08-1.8c.88.28,5,2.35,8.46,3.42a17.64,17.64,0,0,0,4.21.5S190.28,199.54,179,199.54Z"/><path class="cls-7" d="M178.87,193.1c-9.88,0-15-5.43-15-5.43a95,95,0,0,0,15.1,1.2,91.66,91.66,0,0,0,15.56-1.38A25.26,25.26,0,0,1,178.87,193.1Z"/><path class="cls-13" d="M162.33,163.91c0,5.79-7.32,10.48-16.36,10.48s-16.37-4.69-16.37-10.48,7.33-10.49,16.37-10.49S162.33,158.11,162.33,163.91Z"/><path class="cls-7" d="M224.13,138.73a13.48,13.48,0,0,1-3.91,6.73c-2.47,2.33-17.51,3.9-19.1,3.19-2.37-1.07-5.46-6.14-5.46-6.14s5.3-7.29,11.83-7.29S224.13,138.73,224.13,138.73Z"/><path class="cls-10" d="M207.49,136.65c4.72,0,10.69,2.17,14,3.19.76.23,1,2.46-.28,4.61,2.68-2.47,4.61-7.36,4.61-7.36s-3.21,1.14-4.27.81c-3.14-1-9.14-2.68-14-2.68-6.53,0-11.83,7.29-11.83,7.29a2.65,2.65,0,0,0,.76,1.16C197.59,142.21,201.83,136.65,207.49,136.65Z"/><path class="cls-10" d="M214.7,141.85a6.63,6.63,0,1,1-6.62-6.63A6.62,6.62,0,0,1,214.7,141.85Z"/><path class="cls-7" d="M213.75,141.86c0,2.8-7.87-5.08-5.07-5.08A5.07,5.07,0,0,1,213.75,141.86Z"/><path class="cls-13" d="M193.07,163.91c0,5.79,7.33,10.48,16.37,10.48s16.36-4.69,16.36-10.48-7.32-10.49-16.36-10.49S193.07,158.11,193.07,163.91Z"/></g></g></g></svg>