<svg xmlns="http://www.w3.org/2000/svg" xmlns:xlink="http://www.w3.org/1999/xlink" viewBox="0 0 344.16 391.77"><defs><style>.cls-1{fill:#724a5d;}.cls-2{clip-path:url(#clip-path);}.cls-3{fill:#432918;}.cls-4{fill:#87382c;}.cls-5{fill:#fac697;}.cls-6{fill:#db9d73;}.cls-7{fill:#fff;}.cls-8{fill:#de6050;}.cls-9{fill:#ac463a;}.cls-10{fill:#d84b58;}.cls-11{fill:#583636;}.cls-12{fill:#432827;}.cls-13{fill:#c0102c;}.cls-14{fill:#e73a3a;}.cls-15{fill:#f49e87;}</style><clipPath id="clip-path"><path class="cls-1" d="M0,172.08A172.08,172.08,0,1,1,172.08,344.16,172.08,172.08,0,0,1,0,172.08Z"/></clipPath></defs><g id="Layer_2" data-name="Layer 2"><g id="Capa_1" data-name="Capa 1"><path class="cls-1" d="M0,172.08A172.08,172.08,0,1,1,172.08,344.16,172.08,172.08,0,0,1,0,172.08Z"/><g class="cls-2"><path class="cls-3" d="M117.4,122.55c-7.62,40.76,32.32,127.89,65.22,127.89s67-69,62.11-125.75c-1.94-22.41-29.2-2.14-62.11-2.14S121.54,100.44,117.4,122.55Z"/><path class="cls-4" d="M153.79,209.94h52.07V190.72s-5.5-5.06-23.06-5.06S158.25,189,158.25,189Z"/><polygon class="cls-5" points="136.58 250.44 226 250.44 234.1 206.79 196.31 198.7 196.31 173.84 166.28 173.84 166.28 198.7 128.48 206.79 136.58 250.44"/><path class="cls-6" d="M166.28,178.91S173,189,181.8,189s14.51-10.12,14.51-10.12v-5.06h-30Z"/><path class="cls-5" d="M232.34,137.51c-5.12,16.2-28.59,45.45-49.93,45.45-19.2,0-44.37-24.3-50.35-45.45s-3.84-45.43-3.84-45.43c0-28.8,8.54-59.84,54.19-59.84s54.19,36,54.19,63.88C236.6,96.12,237.45,121.32,232.34,137.51Z"/><path class="cls-5" d="M114.72,124.82c2.89,9.52,12.82,14.53,15,9.55s6.55-7.51,5.21-15.58S123.2,102,118.7,104.44C111.65,108.26,112.36,117,114.72,124.82Z"/><path class="cls-5" d="M248,123.82c-2.89,9.52-12.82,14.53-15,9.55s-6.55-7.5-5.2-15.58S239.52,101,244,103.45C251.06,107.27,250.36,116,248,123.82Z"/><path class="cls-3" d="M225.73,126c8.52-4.27,7.57-22.59,18.29-22.59,10.32-36.9-10.38-87.88-61.67-87.88-54.5,0-74.79,54.94-65.35,90,9.84-6.44,5.89,12.12,19.33,20.44-5.44-11.69,6.56-8.38.75-27.21,5.65-8-1.29-40.61,44.21-40.61s34.41,23.06,43.37,35.21S228.93,121.1,225.73,126Z"/><path class="cls-7" d="M136.58,363.36s5.13,6.63,43.59,6.63S226,363.36,226,363.36V250.44H136.58Z"/><path class="cls-8" d="M205.86,190.72l-20,102.46v42.74l50.79,36.89s-1.88-53.54-8.63-76.49c.45-10.8,7.77-43.16,7.77-43.16l1.91-46.36L217,202.36Z"/><path class="cls-9" d="M202.49,188.8c2.82,12.82-16.63,104.38-16.63,104.38v42.74l21-63.89-6.52-6.75,9-7.87L217,202.36S209.91,192,202.49,188.8Z"/><path class="cls-8" d="M261.31,245c1.61,7.59,8.86,104.42,8.1,139-2.07,4.06-17.4,9.69-19.77,6.6-3.29-46.64-13.85-129.54-13.85-137.49,0-10.53-8.62-46.36,1.91-46.36S255.92,219.4,261.31,245Z"/><path class="cls-8" d="M154.88,190.94l20,102.46v42.74l-47,36.67s2-50.47,8.73-73.42c-.45-10.79-11.63-46-11.63-46L123.05,207l20.69-4.43Z"/><path class="cls-9" d="M158.25,189c-2.81,12.82,16.64,104.37,16.64,104.37v42.74l-21-63.88,6.53-6.75-9-7.87-7.65-55S150.83,192.18,158.25,189Z"/><path class="cls-8" d="M99.43,245.27c-1.6,7.59-8.85,104.41-8.1,139,2.08,4.06,17.41,9.69,19.77,6.6C114.39,344.24,125,261.34,125,253.39c0-10.53,8.63-46.37-1.9-46.37S104.83,219.62,99.43,245.27Z"/><path class="cls-10" d="M242.21,134.62a4.06,4.06,0,1,1-4.06-4.05A4.06,4.06,0,0,1,242.21,134.62Z"/><path class="cls-10" d="M129.58,134.62a4.06,4.06,0,1,1-4.05-4.05A4.06,4.06,0,0,1,129.58,134.62Z"/><path class="cls-11" d="M145.86,106.54l-.7-.46a5.26,5.26,0,0,1-.77-.83,5.37,5.37,0,0,1-.45-1,6.85,6.85,0,0,1-.18-2.75,6.81,6.81,0,0,0,.91,2.42,6.23,6.23,0,0,0,.55.64c.23.11.32.22.5.3l.81.24a.81.81,0,0,1-.45,1.56A1.51,1.51,0,0,1,145.86,106.54Z"/><path class="cls-7" d="M168.69,109.1c0,3-4.86,7.21-10.92,7.21-7.41,0-11.86-4.3-11.86-8.86s6.41-7.6,11.81-6.61C163.68,102,168.69,105.85,168.69,109.1Z"/><path class="cls-11" d="M165.31,109.06a8,8,0,0,1-3.51,6.62c-2.67,1.33-8.08.58-9.27-.2a8,8,0,1,1,12.78-6.42Z"/><path class="cls-11" d="M146,108.76a8.09,8.09,0,0,1-.23-1.32,5.71,5.71,0,0,1,1-3.51c1.79-2.66,6-4.26,10.07-4a18,18,0,0,1,5.67,1.71,14.36,14.36,0,0,1,4.17,3,7.33,7.33,0,0,1,1.87,3.1,3.53,3.53,0,0,1,.1,1.36,4.21,4.21,0,0,0-.4-1.24,8.27,8.27,0,0,0-2.2-2.54,18,18,0,0,0-4.12-2.39,17.73,17.73,0,0,0-2.54-.89,19.38,19.38,0,0,0-2.69-.53c-3.59-.31-7.45.93-9.24,3A6,6,0,0,0,146,108.76Z"/><path class="cls-12" d="M162.77,110.46a5.11,5.11,0,1,1-5.1-5.11A5.1,5.1,0,0,1,162.77,110.46Z"/><path class="cls-7" d="M158.82,108.09a2.28,2.28,0,1,0,2.28-2.27A2.28,2.28,0,0,0,158.82,108.09Z"/><path class="cls-7" d="M160.33,104.6a.76.76,0,0,1-1.51,0,.76.76,0,0,1,1.51,0Z"/><path class="cls-11" d="M220.08,105.09l.8-.24c.19-.08.28-.19.5-.3a5.26,5.26,0,0,0,.57-.64,7,7,0,0,0,.91-2.42,7.07,7.07,0,0,1-.18,2.75,6.14,6.14,0,0,1-.46,1,5.76,5.76,0,0,1-.76.83l-.71.46a.8.8,0,0,1-1.12-.23.82.82,0,0,1,.23-1.12A1.07,1.07,0,0,1,220.08,105.09Z"/><path class="cls-7" d="M197.92,109.1c0,3,4.87,7.21,10.92,7.21,7.41,0,11.86-4.3,11.86-8.86s-6.4-7.6-11.8-6.61C202.93,102,197.92,105.85,197.92,109.1Z"/><path class="cls-11" d="M201.3,109.06a8,8,0,0,0,3.51,6.62c2.68,1.33,8.09.58,9.28-.2a8,8,0,1,0-12.79-6.42Z"/><path class="cls-11" d="M220.58,108.76a6,6,0,0,0-1.46-4.29c-1.79-2-5.66-3.28-9.25-3a20,20,0,0,0-2.69.53,18,18,0,0,0-2.53.89,17.6,17.6,0,0,0-4.12,2.39,8.18,8.18,0,0,0-2.21,2.54,4.21,4.21,0,0,0-.4,1.24,4.13,4.13,0,0,1,.1-1.36,7.26,7.26,0,0,1,1.88-3.1,14.09,14.09,0,0,1,4.16-3,18,18,0,0,1,5.67-1.71c4.09-.27,8.28,1.33,10.07,4a5.65,5.65,0,0,1,1,3.51A8.09,8.09,0,0,1,220.58,108.76Z"/><path class="cls-12" d="M203.84,110.46a5.1,5.1,0,1,0,5.11-5.11A5.1,5.1,0,0,0,203.84,110.46Z"/><path class="cls-7" d="M207.79,108.09a2.28,2.28,0,1,1-2.28-2.27A2.28,2.28,0,0,1,207.79,108.09Z"/><path class="cls-7" d="M206.3,104.6a.75.75,0,1,0,1.49,0,.75.75,0,1,0-1.49,0Z"/><path class="cls-6" d="M186,132.44a5.93,5.93,0,0,1-4.94,2.62c-3.37,0-5.61-1-6.11-1.56s3.32-7.31,3.32-7.31-1.78,4.72-1,5.89,3,1.14,4,1.14C184.71,133.22,186,132.44,186,132.44Z"/><path class="cls-13" d="M197.82,149.3c0,7.74-7,14-15.56,14s-15.57-6.27-15.57-14Z"/><path class="cls-14" d="M170.09,158a16.63,16.63,0,0,0,24.33,0,43.88,43.88,0,0,0-24.33,0Z"/><path class="cls-7" d="M195.61,152.87a14,14,0,0,0,.46-3.57H168.44a13.59,13.59,0,0,0,.42,3.4,3,3,0,0,0,2.45,1.83h22.1A2.41,2.41,0,0,0,195.61,152.87Z"/><path class="cls-3" d="M222.89,92.28s-8.51-4-17-3.17c-3.33.32-6.8.66-8.11.93s-.8-3.52.07-3.68,4.67-2.25,8.35-2C215.6,85,222.89,92.28,222.89,92.28Z"/><path class="cls-3" d="M191.45,70.8a9,9,0,0,0-2-9.52c-1.51-1.6-6.66-3.12-7.62-3.36s3.49-2.19,4.11-2,4.28,1.05,6,3.13C195.87,64,191.45,70.8,191.45,70.8Z"/><path class="cls-3" d="M173.06,70.8a9,9,0,0,1,2-9.52c1.49-1.6,6.66-3.12,7.61-3.36s-3.49-2.19-4.11-2S174.28,57,172.61,59C168.63,64,173.06,70.8,173.06,70.8Z"/><path class="cls-3" d="M144.7,92.28s8.5-4,17-3.17c3.33.32,6.79.66,8.1.93s.81-3.52-.06-3.68-4.67-2.25-8.36-2C152,85,144.7,92.28,144.7,92.28Z"/><path class="cls-15" d="M218.52,124.69c0,3-4.8,5.51-10.73,5.51s-10.72-2.47-10.72-5.51,4.8-5.51,10.72-5.51S218.52,121.65,218.52,124.69Z"/><path class="cls-15" d="M166.43,124.69c0,3-4.8,5.51-10.72,5.51S145,127.73,145,124.69s4.8-5.51,10.73-5.51S166.43,121.65,166.43,124.69Z"/><path class="cls-8" d="M182.42,38.13c22.57,0,42,12.35,51.22,30.22-4-25.39-25.4-44.78-51.22-44.78S135.24,43,131.21,68.35C140.42,50.48,159.86,38.13,182.42,38.13Z"/></g></g></g></svg>