<svg xmlns="http://www.w3.org/2000/svg" xmlns:xlink="http://www.w3.org/1999/xlink" viewBox="0 0 344.16 384.3"><defs><style>.cls-1{fill:#95c11f;}.cls-2{clip-path:url(#clip-path);}.cls-3{fill:#d43f18;}.cls-4{fill:#403247;}.cls-5{fill:#f9bb8d;}.cls-6{fill:#db9d73;}.cls-7{fill:#e94e1b;}.cls-8{fill:#604c6c;}.cls-9{fill:#583636;}.cls-10{fill:#fff;}.cls-11{fill:#432827;}.cls-12{fill:#c0102c;}.cls-13{fill:#e73a3a;}.cls-14{fill:#db3e19;}.cls-15{fill:#f49e87;}.cls-16{fill:#503949;}</style><clipPath id="clip-path"><path class="cls-1" d="M0,172.08A172.08,172.08,0,1,1,172.08,344.16,172.08,172.08,0,0,1,0,172.08Z"/></clipPath></defs><g id="Layer_2" data-name="Layer 2"><g id="Capa_1" data-name="Capa 1"><path class="cls-1" d="M0,172.08A172.08,172.08,0,1,1,172.08,344.16,172.08,172.08,0,0,1,0,172.08Z"/><g class="cls-2"><path class="cls-3" d="M140.17,208.85c11.2,21.2,47.86,29.5,72.32-6.37S236.55,103,236.55,103L124.62,97.14S112.15,155.84,140.17,208.85Z"/><path class="cls-4" d="M147.76,202.48h52.08l-1.12-20.92s-4.94-4.65-22.49-4.65-24,4.65-24,4.65Z"/><polygon class="cls-5" points="130.55 242.97 219.97 242.97 228.07 199.32 190.28 191.23 190.28 166.38 160.25 166.38 160.25 191.23 122.45 199.32 130.55 242.97"/><path class="cls-6" d="M160.25,171.44s6.74,10.12,15.52,10.12,14.51-10.12,14.51-10.12v-5.06h-30Z"/><path class="cls-5" d="M226.31,130.05c-5.12,16.2-28.59,45.44-49.92,45.44-19.2,0-44.38-24.3-50.36-45.44s-3.83-45.44-3.83-45.44c0-28.8,8.53-59.83,54.19-59.83s54.19,36,54.19,63.88C230.58,88.66,231.43,113.85,226.31,130.05Z"/><path class="cls-5" d="M108.69,117.35c2.89,9.52,12.82,14.53,15,9.55s6.55-7.5,5.21-15.58S117.17,94.54,112.66,97C105.62,100.79,106.33,109.55,108.69,117.35Z"/><path class="cls-5" d="M242,116.35c-2.88,9.52-12.82,14.53-15,9.56s-6.55-7.51-5.2-15.59S233.49,93.54,238,96C245,99.79,244.33,108.54,242,116.35Z"/><path class="cls-7" d="M219.7,118.58C228.22,114.3,227.28,96,238,96c10.33-36.9-16-83.13-34.08-75.62-6.55-12.57-23.42-14.26-41.31-12-43.21,5.39-58.85,36.74-58.85,88.22,0,47.89,21.77,101.17,21.77,101.17l12.19-2.61c2-.43-19.6-57.35-2.08-103.89,8.87-23.55,46.14-7.74,63.42-39.91,5.12,16.42,10.62,22.49,19.58,34.64S222.9,113.62,219.7,118.58Z"/><path class="cls-8" d="M255.29,237.58c1.6,7.59,8.85,104.41,8.1,139-2.08,4.06-17.41,9.68-19.78,6.59-3.29-46.63-13.84-129.54-13.84-137.49,0-10.53-8.63-46.37,1.9-46.37S249.88,211.93,255.29,237.58Z"/><path class="cls-8" d="M227.41,246.07l1.9-46.36-20.68-4.44-9.91-13.71S198,208,176.33,208s-24.11-26.39-24.11-26.39l-14.51,13.56L117,199.56l1.9,46.36s11.18,35.21,11.63,46c-6.74,22.94-14.13,73.41-14.13,73.41S141,377,174.41,377a163.52,163.52,0,0,0,59.26-11.27s-7.29-53.54-14-76.48C220.08,278.44,227.41,246.07,227.41,246.07Z"/><path class="cls-8" d="M93.4,237.8c-1.6,7.59-8.85,104.42-8.1,139,2.08,4.06,17.41,9.69,19.77,6.6,3.3-46.63,13.85-129.54,13.85-137.49,0-10.53,8.63-46.36-1.9-46.36S98.8,212.15,93.4,237.8Z"/><path class="cls-9" d="M139.83,99.08l-.7-.46a5.24,5.24,0,0,1-.76-.83,5.72,5.72,0,0,1-.46-1,7.07,7.07,0,0,1-.18-2.75,6.79,6.79,0,0,0,.91,2.41,4.06,4.06,0,0,0,.56.64c.22.11.31.22.49.31l.81.23a.81.81,0,1,1-.45,1.56Z"/><path class="cls-10" d="M162.67,101.63c0,3-4.87,7.21-10.92,7.21-7.41,0-11.87-4.3-11.87-8.85s6.41-7.61,11.82-6.62C157.65,94.48,162.67,98.38,162.67,101.63Z"/><path class="cls-9" d="M159.28,101.59a8,8,0,0,1-3.5,6.62c-2.68,1.33-8.09.58-9.28-.2a8,8,0,1,1,12.78-6.42Z"/><path class="cls-9" d="M140,101.29a7.6,7.6,0,0,1-.22-1.32,5.6,5.6,0,0,1,1-3.51c1.8-2.66,6-4.26,10.08-4a18,18,0,0,1,5.66,1.71,14.29,14.29,0,0,1,4.17,3,7.31,7.31,0,0,1,1.88,3.1,4.07,4.07,0,0,1,.1,1.35,4.21,4.21,0,0,0-.4-1.24,8.32,8.32,0,0,0-2.21-2.54,18.17,18.17,0,0,0-4.12-2.39,18.42,18.42,0,0,0-2.53-.89,20,20,0,0,0-2.69-.53c-3.59-.31-7.46.93-9.25,3A6,6,0,0,0,140,101.29Z"/><path class="cls-11" d="M156.74,103a5.11,5.11,0,1,1-5.1-5.09A5.1,5.1,0,0,1,156.74,103Z"/><path class="cls-10" d="M152.79,100.63a2.28,2.28,0,1,0,2.28-2.28A2.28,2.28,0,0,0,152.79,100.63Z"/><path class="cls-10" d="M154.3,97.13a.76.76,0,1,1-.75-.75A.76.76,0,0,1,154.3,97.13Z"/><path class="cls-9" d="M214.06,97.62l.8-.23c.19-.09.28-.2.5-.31a4.65,4.65,0,0,0,.56-.64,7,7,0,0,0,.91-2.41,7.07,7.07,0,0,1-.18,2.75,5.72,5.72,0,0,1-.46,1,5.24,5.24,0,0,1-.76.83l-.7.46a.83.83,0,0,1-1.13-.23.81.81,0,0,1,.23-1.12A1.2,1.2,0,0,1,214.06,97.62Z"/><path class="cls-10" d="M191.89,101.63c0,3,4.87,7.21,10.93,7.21,7.4,0,11.85-4.3,11.85-8.85s-6.4-7.61-11.8-6.62C196.91,94.48,191.89,98.38,191.89,101.63Z"/><path class="cls-9" d="M195.27,101.59a8,8,0,0,0,3.51,6.62c2.69,1.33,8.09.58,9.28-.2a8,8,0,1,0-12.79-6.42Z"/><path class="cls-9" d="M214.55,101.29A6,6,0,0,0,213.08,97c-1.78-2-5.65-3.27-9.24-3a21.66,21.66,0,0,0-2.69.53,18.42,18.42,0,0,0-2.53.89,18,18,0,0,0-4.12,2.39,8,8,0,0,0-2.2,2.54,4.09,4.09,0,0,0-.41,1.24,4.07,4.07,0,0,1,.1-1.35,7.2,7.2,0,0,1,1.88-3.1,14.24,14.24,0,0,1,4.16-3,18,18,0,0,1,5.66-1.71c4.1-.27,8.28,1.33,10.08,4a5.62,5.62,0,0,1,1,3.51A6.91,6.91,0,0,1,214.55,101.29Z"/><path class="cls-11" d="M197.81,103a5.11,5.11,0,1,0,5.11-5.09A5.11,5.11,0,0,0,197.81,103Z"/><path class="cls-10" d="M201.77,100.63a2.28,2.28,0,1,1-2.28-2.28A2.28,2.28,0,0,1,201.77,100.63Z"/><path class="cls-10" d="M200.27,97.13a.75.75,0,1,0,.75-.75A.75.75,0,0,0,200.27,97.13Z"/><path class="cls-6" d="M180,125A5.9,5.9,0,0,1,175,127.6c-3.38,0-5.62-1-6.12-1.56s3.32-7.32,3.32-7.32-1.78,4.72-1,5.89,3,1.14,4,1.14C178.68,125.75,180,125,180,125Z"/><path class="cls-12" d="M191.78,141.84c0,7.73-7,14-15.55,14s-15.56-6.27-15.56-14Z"/><path class="cls-13" d="M164.07,150.55a16.62,16.62,0,0,0,24.32,0,44.09,44.09,0,0,0-24.32,0Z"/><path class="cls-10" d="M189.59,145.4a14.41,14.41,0,0,0,.45-3.56H162.41a13.57,13.57,0,0,0,.42,3.39,3,3,0,0,0,2.45,1.84h22.1A2.45,2.45,0,0,0,189.59,145.4Z"/><path class="cls-14" d="M216.86,84.81s-8.5-4-17-3.16c-3.33.31-6.8.66-8.11.92s-.8-3.52.07-3.68,4.68-2.25,8.36-2C209.58,77.53,216.86,84.81,216.86,84.81Z"/><path class="cls-14" d="M138.67,84.81s8.51-4,17-3.16c3.33.31,6.8.66,8.11.92s.8-3.52-.08-3.68-4.66-2.25-8.35-2C146,77.53,138.67,84.81,138.67,84.81Z"/><path class="cls-15" d="M212.49,117.22c0,3-4.8,5.51-10.72,5.51S191,120.26,191,117.22s4.8-5.51,10.73-5.51S212.49,114.18,212.49,117.22Z"/><path class="cls-15" d="M160.4,117.22c0,3-4.8,5.51-10.72,5.51S139,120.26,139,117.22s4.8-5.51,10.73-5.51S160.4,114.18,160.4,117.22Z"/><path class="cls-16" d="M149.25,86.5c-19.28,0-23.73,3.7-23.73,8.46,0,6.67,5.44,21.8,18.54,21.8,26.69,0,28.91-16.68,28.91-21.8C173,90,167.78,86.5,149.25,86.5Zm-4.06,27c-10.25,0-14.49-11.84-14.49-17.06,0-3.71,3.47-6.61,18.55-6.61,14.49,0,18.54,2.73,18.54,6.61S166.06,113.47,145.19,113.47Z"/><path class="cls-16" d="M180,95c0,5.12,2.23,21.8,28.91,21.8,13.11,0,18.53-15.13,18.53-21.8,0-4.76-4.44-8.46-23.72-8.46C185.22,86.5,180,90,180,95Zm5.17,1.45c0-3.88,4.06-6.61,18.55-6.61,15.07,0,18.55,2.9,18.55,6.61,0,5.22-4.25,17.06-14.49,17.06C187,113.47,185.2,100.42,185.2,96.41Z"/><path class="cls-16" d="M172.53,99.14c2.48-2.33,6.21-2.64,8,.2s2.16-6.52,2.16-6.52H170.15S170.07,101.47,172.53,99.14Z"/></g></g></g></svg>