<svg xmlns="http://www.w3.org/2000/svg" xmlns:xlink="http://www.w3.org/1999/xlink" viewBox="0 0 344.16 800.28"><defs><style>.cls-1{fill:#95c11f;}.cls-2{isolation:isolate;}.cls-3{clip-path:url(#clip-path);}.cls-4{fill:#69160b;}.cls-5{fill:#432918;}.cls-6{fill:#acacac;}.cls-7{fill:#f9bb8d;}.cls-8{fill:#e5c9a6;}.cls-17,.cls-8{mix-blend-mode:multiply;}.cls-9{fill:#fff;}.cls-10{fill:#f6f6f6;}.cls-11{fill:#583636;}.cls-12{fill:#432827;}.cls-13{fill:#e2e1e1;}.cls-14{fill:#454f56;}.cls-15{fill:#b41f1c;}.cls-16{fill:none;}.cls-17{fill:#bb92a5;}.cls-18{fill:#352e35;}</style><clipPath id="clip-path"><path class="cls-1" d="M0,172.08A172.08,172.08,0,1,1,172.08,344.16,172.08,172.08,0,0,1,0,172.08Z"/></clipPath></defs><g class="cls-2"><g id="Layer_2" data-name="Layer 2"><g id="Capa_1" data-name="Capa 1"><path class="cls-1" d="M0,172.08A172.08,172.08,0,1,1,172.08,344.16,172.08,172.08,0,0,1,0,172.08Z"/><g class="cls-3"><rect class="cls-4" x="121.21" y="132.62" width="105.88" height="87.13"/><path class="cls-5" d="M111,126c0,11.89,28.69,48.65,61.76,48.65s61.56-39.23,61.56-51.11S207.48,112,174.4,112,111,114.12,111,126Z"/><path class="cls-6" d="M145.07,203.34h52.39l1.77-21.05s-7.72-6.1-25.37-6.1S146.7,184,146.7,184Z"/><polygon class="cls-7" points="127.76 244.07 217.71 244.07 225.85 200.17 187.84 192.02 187.84 167.02 157.63 167.02 157.63 192.02 114.18 200.17 127.76 244.07"/><path class="cls-8" d="M157.63,172.11s6.79,10.18,15.61,10.18,14.6-10.18,14.6-10.18V167H157.63Z"/><path class="cls-7" d="M224.09,130.48c-10.77,30.7-26.63,45.71-50.23,45.71-23.87,0-38.91-15.34-50.65-45.71-8-20.62-3.87-45.72-3.87-45.72,0-29,8.6-60.19,54.52-60.19s54.52,36.21,54.52,64.27C228.38,88.84,229.74,114.35,224.09,130.48Z"/><path class="cls-7" d="M105.77,117.7c2.9,9.58,12.89,14.62,15.11,9.61s6.59-7.55,5.24-15.68S114.3,94.74,109.76,97.2C102.68,101,103.39,109.85,105.77,117.7Z"/><path class="cls-7" d="M239.83,116.7c-2.9,9.57-12.89,14.61-15.11,9.61s-6.58-7.55-5.24-15.68,11.83-16.89,16.36-14.43C242.92,100,242.21,108.84,239.83,116.7Z"/><path class="cls-5" d="M223.21,112s4-17.78,14.33-14.66c.36-11.19-.77-9.75-3.25-31.51s-20-60.29-82.86-41.28C136,18.87,117,32.33,111,57.36c-3.18,13.18-5,30.5-2.91,41C118,91.89,122.45,112,122.45,112l3.67-.4s-7.53-9.41,1.64-17.84C122.67,86.5,133.21,61.85,138,59.5c9.79-4.74,7.56,5,35.36,11.88,23.44,5.78,31.38,2.39,45.84,1,4.1-.38.32,18-1.53,21.39,10.37,6.81,2.77,17.61,2.77,17.61Z"/><path class="cls-9" d="M127.76,387.54h90l-.9-188.34L193,191.12s-5.84,9-19.6,9-18.53-9-18.53-9l-25.63,7.06Z"/><path class="cls-10" d="M264.1,238.64c1.61,7.64,7.61,132.75,6.85,167.56-2.08,4.08-21.65,11.9-24,8.79-3.32-46.91-8.5-160.18-8.5-168.18,0-10.59-8.68-46.64,1.91-46.64S258.67,212.85,264.1,238.64Z"/><path class="cls-10" d="M239.4,258.26l.94-58.09-31.67-4.46-9.44-13.42-27.95,22.05,0-1L146.7,184l-11.21,11.72-31.67,4.46.94,58.09s3.64,42.6,3.5,55.5S89.7,783.54,89.7,783.54s43,16.74,84.08,16.74S271,783.54,271,783.54s-33.84-459.15-34-472S239.4,258.26,239.4,258.26Z"/><path class="cls-10" d="M80.06,238.64C78.45,246.28,72.42,371.2,73.18,406c2.08,4.09,21.67,12.09,24,9,3.32-46.91,8.5-160.18,8.5-168.18,0-10.59,8.68-46.64-1.91-46.64S85.49,212.85,80.06,238.64Z"/><path class="cls-9" d="M158.64,102.31c0,2.8-4.61,6.84-10.36,6.84-7,0-11.25-4.08-11.25-8.41s6.07-7.22,11.2-6.27C153.89,95.52,158.64,99.22,158.64,102.31Z"/><path class="cls-11" d="M155.43,102.26a7.62,7.62,0,0,1-3.32,6.29c-2.55,1.26-7.68.55-8.82-.19a7.6,7.6,0,1,1,12.14-6.1Z"/><path class="cls-11" d="M137.14,102a6.73,6.73,0,0,1-.22-1.25,5.29,5.29,0,0,1,1-3.33c1.7-2.52,5.67-4,9.56-3.78a17,17,0,0,1,5.38,1.62,13.63,13.63,0,0,1,4,2.83,7,7,0,0,1,1.78,3,2.8,2.8,0,0,1,.07,1.29,3.48,3.48,0,0,0-.35-1.19,8,8,0,0,0-2.1-2.4,17,17,0,0,0-3.91-2.27,18.38,18.38,0,0,0-5-1.35c-3.4-.3-7.07.88-8.77,2.81A5.7,5.7,0,0,0,137.14,102Z"/><path class="cls-12" d="M153,103.59a4.85,4.85,0,1,1-4.84-4.84A4.84,4.84,0,0,1,153,103.59Z"/><path class="cls-9" d="M149.27,101.35a2.16,2.16,0,1,0,2.16-2.16A2.16,2.16,0,0,0,149.27,101.35Z"/><path class="cls-9" d="M150.7,98a.72.72,0,1,1-.71-.71A.71.71,0,0,1,150.7,98Z"/><path class="cls-9" d="M186.37,102.31c0,2.8,4.62,6.84,10.37,6.84,7,0,11.26-4.08,11.26-8.41s-6.08-7.22-11.21-6.27C191.13,95.52,186.37,99.22,186.37,102.31Z"/><path class="cls-11" d="M189.59,102.26a7.62,7.62,0,0,0,3.32,6.29c2.54,1.26,7.68.55,8.81-.19a7.6,7.6,0,1,0-12.13-6.1Z"/><path class="cls-11" d="M207.88,102a5.68,5.68,0,0,0-1.4-4.07c-1.69-1.93-5.36-3.11-8.77-2.81a18.41,18.41,0,0,0-5,1.35,17,17,0,0,0-3.91,2.27,7.83,7.83,0,0,0-2.09,2.4,4,4,0,0,0-.39,1.19,4.49,4.49,0,0,1,.1-1.29,6.92,6.92,0,0,1,1.78-3,13.41,13.41,0,0,1,4-2.83,16.82,16.82,0,0,1,5.37-1.62c3.89-.26,7.86,1.26,9.56,3.78a5.36,5.36,0,0,1,1,3.33A6.73,6.73,0,0,1,207.88,102Z"/><path class="cls-12" d="M192,103.59a4.85,4.85,0,1,0,4.85-4.84A4.84,4.84,0,0,0,192,103.59Z"/><path class="cls-9" d="M195.74,101.35a2.16,2.16,0,1,1-2.16-2.16A2.16,2.16,0,0,1,195.74,101.35Z"/><path class="cls-9" d="M194.32,98a.71.71,0,1,0,1.42,0,.71.71,0,0,0-1.42,0Z"/><path class="cls-5" d="M132.53,92.55s5-6.63,17.35-7.14a70,70,0,0,1,8.62.09c1.4.2,1.33-5.8.4-5.89s-9.35-.76-13.17.12A17.73,17.73,0,0,0,132.53,92.55Z"/><path class="cls-5" d="M211,94.52s-5.1-6.82-17.36-7.81a67.1,67.1,0,0,0-8.51-.25c-1.39.14-1.49-5.85-.57-5.91s9.22-.39,13,.64A19.34,19.34,0,0,1,211,94.52Z"/><path class="cls-5" d="M122.45,112c.75,3.92,3.35,13.5,0,18.42,3.94,19.63,20.16,45.74,51.41,45.74,23.6,0,41.23-11.64,52-42.35-2.45-2.88-3.3-17.72-2.64-21.82,0,0-.67-5-2.73-.62-2.5,5.29-2.25,20.17-12.36,24.31-7.53,3.09-23.52-3.73-36.24-3.73-10.31,0-25.17,6.58-32.79,3-9.9-4.67-11.3-20.07-13-23.34C123.14,105.86,122.45,112,122.45,112Z"/><path class="cls-8" d="M177.46,125.37a5.94,5.94,0,0,1-5,2.64c-3.4,0-5.65-1-6.15-1.58s3.34-7.35,3.34-7.35-1.79,4.74-1,5.92,3,1.15,4.06,1.15C176.18,126.15,177.46,125.37,177.46,125.37Z"/><path class="cls-7" d="M187.14,147.39a27.65,27.65,0,0,0,.46-5H159.8a27.86,27.86,0,0,0,.42,4.81c.16.89,5,3.36,6.08,2.59,5-3.64,9.91-3.63,14.49,0C181.9,150.63,187,148.19,187.14,147.39Z"/><path class="cls-13" d="M135.49,195.71s13.11,12.37,37.91,12.37,35.27-12.37,35.27-12.37l-9.44-13.42s-9.43,7.47-27.09,7.47S146.7,184,146.7,184Z"/><rect class="cls-13" x="166.72" y="203.34" width="9.09" height="85.99"/><path class="cls-14" d="M145.67,90.5c-19.39,0-23.86,3.71-23.86,8.5,0,6.72,5.46,21.94,18.64,21.94,26.85,0,29.09-16.79,29.09-21.94C169.54,94,164.32,90.5,145.67,90.5Zm-4.08,27.12c-10.31,0-14.58-11.9-14.58-17.15,0-3.75,3.5-6.65,18.66-6.65,14.58,0,18.66,2.74,18.66,6.65S162.59,117.62,141.59,117.62Z"/><path class="cls-14" d="M176.64,99c0,5.15,2.24,21.94,29.08,21.94,13.18,0,18.65-15.22,18.65-21.94,0-4.79-4.48-8.5-23.87-8.5C181.86,90.5,176.64,94,176.64,99Zm5.2,1.47c0-3.91,4.09-6.65,18.66-6.65,15.16,0,18.67,2.9,18.67,6.65,0,5.25-4.28,17.15-14.58,17.15C183.59,117.62,181.84,104.5,181.84,100.47Z"/><path class="cls-14" d="M169.1,103.21c2.49-2.34,6.24-2.65,8,.2s2.18-6.56,2.18-6.56H166.7S166.61,105.55,169.1,103.21Z"/><path class="cls-15" d="M104.67,87.49c0-28.56,8.74-76.53,68-76.53,62.3,0,68,48,68,76.53H215.12s-1.07-8.14-8.19-8.14h-66.7c-12.51,0-13.81,8.14-13.81,8.14Z"/><path class="cls-15" d="M224.37,197.92l24.38,5.42L240.67,87.49l-26-8.21S219.14,155.8,224.37,197.92Z"/><path class="cls-15" d="M128.28,196.73l-24.46,3.44.85-112.68,21.69-5.21S133.51,154.61,128.28,196.73Z"/><rect class="cls-16" x="200.9" y="40.44" width="10.65" height="10.65"/><rect class="cls-16" x="200.9" y="53.55" width="10.65" height="10.65"/><rect class="cls-16" x="200.9" y="66.66" width="10.65" height="10.65"/><rect class="cls-16" x="174.68" y="53.55" width="10.65" height="10.65"/><rect class="cls-16" x="214.01" y="40.44" width="10.65" height="10.65"/><rect class="cls-16" x="214.01" y="66.66" width="10.65" height="10.65"/><rect class="cls-16" x="214.01" y="53.55" width="10.65" height="10.65"/><rect class="cls-16" x="187.79" y="53.55" width="10.65" height="10.65"/><rect class="cls-16" x="174.68" y="27.33" width="10.65" height="10.65"/><polygon class="cls-16" points="106.67 119.1 104.43 119.1 104.35 129.76 106.67 129.76 106.67 119.1"/><rect class="cls-16" x="187.79" y="27.33" width="10.65" height="10.65"/><rect class="cls-16" x="174.68" y="40.44" width="10.65" height="10.65"/><rect class="cls-16" x="187.79" y="66.66" width="10.65" height="10.65"/><rect class="cls-16" x="187.79" y="40.44" width="10.65" height="10.65"/><rect class="cls-16" x="200.9" y="27.33" width="10.65" height="10.65"/><polygon class="cls-16" points="106.67 185.87 103.93 185.87 103.84 196.93 106.67 196.93 106.67 185.87"/><rect class="cls-16" x="227.12" y="66.66" width="10.65" height="10.65"/><polygon class="cls-16" points="106.67 172.35 104.03 172.35 103.95 183.41 106.67 183.41 106.67 172.35"/><polygon class="cls-16" points="106.67 132.22 104.33 132.22 104.25 142.87 106.67 142.87 106.67 132.22"/><polygon class="cls-16" points="106.67 158.84 104.13 158.84 104.05 169.9 106.67 169.9 106.67 158.84"/><rect class="cls-16" x="227.12" y="79.77" width="10.65" height="10.66"/><polygon class="cls-16" points="106.67 145.33 104.23 145.33 104.15 156.38 106.67 156.38 106.67 145.33"/><rect class="cls-16" x="227.12" y="132.21" width="10.65" height="10.65"/><rect class="cls-16" x="227.12" y="158.84" width="10.65" height="11.06"/><rect class="cls-16" x="227.12" y="172.35" width="10.65" height="11.06"/><rect class="cls-16" x="227.12" y="145.33" width="10.65" height="11.05"/><rect class="cls-16" x="227.12" y="105.99" width="10.65" height="10.66"/><rect class="cls-16" x="227.12" y="92.89" width="10.65" height="10.65"/><rect class="cls-16" x="227.12" y="119.1" width="10.65" height="10.65"/><rect class="cls-16" x="227.12" y="185.87" width="10.65" height="11.06"/><rect class="cls-16" x="174.68" y="14.22" width="10.65" height="10.64"/><rect class="cls-16" x="109.12" y="79.77" width="10.65" height="10.66"/><rect class="cls-16" x="109.12" y="92.89" width="10.65" height="10.65"/><rect class="cls-16" x="122.23" y="40.44" width="10.65" height="10.65"/><rect class="cls-16" x="109.12" y="66.66" width="10.65" height="10.65"/><rect class="cls-16" x="122.23" y="53.55" width="10.65" height="10.65"/><rect class="cls-16" x="122.23" y="66.66" width="10.65" height="10.65"/><rect class="cls-16" x="109.12" y="119.1" width="10.65" height="10.65"/><rect class="cls-16" x="109.12" y="105.99" width="10.65" height="10.66"/><rect class="cls-16" x="109.12" y="185.87" width="10.65" height="11.06"/><rect class="cls-16" x="109.12" y="172.35" width="10.65" height="11.06"/><path class="cls-16" d="M106.67,199.39h-2.85v.78l2.85-.4Z"/><rect class="cls-16" x="109.12" y="158.84" width="10.65" height="11.06"/><rect class="cls-16" x="174.68" y="66.66" width="10.65" height="10.65"/><rect class="cls-16" x="109.12" y="132.21" width="10.65" height="10.65"/><rect class="cls-16" x="109.12" y="145.33" width="10.65" height="11.05"/><rect class="cls-16" x="161.56" y="53.55" width="10.65" height="10.65"/><rect class="cls-16" x="161.56" y="66.66" width="10.65" height="10.65"/><rect class="cls-16" x="148.46" y="27.33" width="10.65" height="10.65"/><rect class="cls-16" x="148.46" y="14.22" width="10.65" height="10.64"/><rect class="cls-16" x="161.56" y="40.44" width="10.65" height="10.65"/><rect class="cls-16" x="161.56" y="14.22" width="10.65" height="10.64"/><rect class="cls-16" x="135.35" y="66.66" width="10.64" height="10.65"/><rect class="cls-16" x="161.56" y="27.33" width="10.65" height="10.65"/><rect class="cls-16" x="148.46" y="40.44" width="10.65" height="10.65"/><rect class="cls-16" x="135.35" y="40.44" width="10.64" height="10.65"/><rect class="cls-16" x="135.35" y="53.55" width="10.64" height="10.65"/><rect class="cls-16" x="135.35" y="27.33" width="10.64" height="10.65"/><rect class="cls-16" x="148.46" y="53.55" width="10.65" height="10.65"/><rect class="cls-16" x="148.46" y="66.66" width="10.65" height="10.65"/><path class="cls-16" d="M224.66,132.21h-6.42q.39,5.26.83,10.66h5.59Z"/><polygon class="cls-16" points="240.23 196.93 248.3 196.93 247.53 185.87 240.23 185.87 240.23 196.93"/><path class="cls-16" d="M240.23,201.45l8.52,1.89-.28-4h-8.24Z"/><path class="cls-16" d="M224.66,185.87H223c.41,3.87.84,7.58,1.26,11.06h.41Z"/><path class="cls-16" d="M231,199.39l6.81,1.51v-1.51Z"/><path class="cls-16" d="M224.66,145.33h-5.4c.3,3.67.61,7.37.93,11h4.47Z"/><path class="cls-16" d="M224.66,172.35h-3q.54,5.68,1.1,11.06h1.93Z"/><path class="cls-16" d="M224.66,158.84H220.4q.48,5.59,1,11.06h3.26Z"/><polygon class="cls-16" points="240.23 156.38 245.47 156.38 244.7 145.33 240.23 145.33 240.23 156.38"/><polygon class="cls-16" points="240.23 129.76 243.61 129.76 242.87 119.1 240.23 119.1 240.23 129.76"/><polygon class="cls-16" points="240.23 116.65 242.7 116.65 241.96 105.99 240.23 105.99 240.23 116.65"/><polygon class="cls-16" points="240.23 103.54 241.79 103.54 241.04 92.89 240.23 92.89 240.23 103.54"/><polygon class="cls-16" points="240.23 183.41 247.36 183.41 246.59 172.35 240.23 172.35 240.23 183.41"/><polygon class="cls-16" points="240.23 169.9 246.41 169.9 245.64 158.84 240.23 158.84 240.23 169.9"/><path class="cls-16" d="M224.66,119.1h-7.4c.25,3.45.51,7,.79,10.66h6.61Z"/><polygon class="cls-16" points="240.23 142.87 244.53 142.87 243.79 132.22 240.23 132.22 240.23 142.87"/><path class="cls-16" d="M209.52,79.77a7.07,7.07,0,0,1,2,1.11V79.77Z"/><path class="cls-16" d="M122.23,156.38h8c0-3.69-.07-7.39-.14-11h-7.82Z"/><path class="cls-16" d="M122.23,129.76h7.33c-.16-3.67-.33-7.23-.51-10.66h-6.82Z"/><path class="cls-16" d="M122.23,169.9h7.82q.13-5.47.14-11.06h-8Z"/><path class="cls-16" d="M122.23,142.87H130c-.09-3.61-.21-7.17-.34-10.66h-7.42Z"/><path class="cls-16" d="M109.12,199.43l.27,0h-.27Z"/><path class="cls-16" d="M122.23,183.41h7.25c.23-3.58.39-7.28.51-11.06h-7.76Z"/><path class="cls-16" d="M122.23,196.93h4.63l1.42-.2c.42-3.44.77-7.07,1-10.86h-7.09Z"/><path class="cls-16" d="M224.66,92.89h-9.19c.2,3.13.44,6.71.71,10.65h8.48Z"/><path class="cls-16" d="M224.66,79.77H214V84a12.07,12.07,0,0,1,1.11,3.47c.06.91.13,1.92.19,3h9.35Z"/><path class="cls-16" d="M122.23,116.65h6.68c-.21-3.77-.43-7.34-.66-10.66h-6Z"/><path class="cls-16" d="M224.66,106h-8.32c.23,3.35.48,6.92.75,10.66h7.57Z"/><path class="cls-16" d="M240.23,90.43h.64l-.2-2.94c0-2.44,0-5-.16-7.72h-.28Z"/><path class="cls-16" d="M122.23,103.54h5.86c-.29-4-.56-7.62-.8-10.65h-5.06Z"/><path class="cls-16" d="M122.23,79.77V90.43h4.85c-.12-1.53-.24-2.89-.34-4a10.35,10.35,0,0,1,6.15-5.83v-.82Z"/><path class="cls-16" d="M135.35,79.84l.33-.07h-.33Z"/><path class="cls-16" d="M119.78,64.2V53.55h-10.2c-.16.49-.31,1-.46,1.47V64.2Z"/><path class="cls-16" d="M185.33,11.76v0A103.6,103.6,0,0,0,174.68,11v.75Z"/><path class="cls-16" d="M172.22,11.76V11a94.63,94.63,0,0,0-10.66.61v.17Z"/><path class="cls-16" d="M106.67,66.66h-.31c-.62,3.64-1,7.21-1.3,10.66h1.61Z"/><path class="cls-16" d="M132.89,38V27.33h-7.43c-1.14,1.08-2.21,2.21-3.23,3.36V38Z"/><polygon class="cls-16" points="106.67 92.89 104.63 92.89 104.55 103.54 106.67 103.54 106.67 92.89"/><path class="cls-16" d="M132.89,21.42a53.69,53.69,0,0,0-4.67,3.45h4.67Z"/><path class="cls-16" d="M119.78,33.7q-1.61,2.09-3,4.29h3Z"/><path class="cls-16" d="M146,24.87V15a59.76,59.76,0,0,0-10.64,4.86v5Z"/><path class="cls-16" d="M187.79,24.87h10.65V14.38l-.5-.16H187.79Z"/><path class="cls-16" d="M119.78,40.44h-4.45a70.49,70.49,0,0,0-4.9,10.65h9.35Z"/><path class="cls-16" d="M106.67,79.77h-1.78c-.15,2.69-.22,5.28-.22,7.72l0,2.94h2Z"/><path class="cls-16" d="M229.7,38c-.81-1.32-1.66-2.6-2.58-3.86V38Z"/><path class="cls-16" d="M227.12,51.09h8.58a67,67,0,0,0-4.6-10.65h-4Z"/><path class="cls-16" d="M227.12,64.2h10.65V58.49q-.57-2.48-1.29-4.94h-9.36Z"/><path class="cls-16" d="M214,38h10.65V31a49.49,49.49,0,0,0-3.44-3.68H214Z"/><path class="cls-16" d="M240.38,77.32l-.15-2.26v2.26Z"/><path class="cls-16" d="M218.47,24.87a54.16,54.16,0,0,0-4.46-3.3v3.3Z"/><path class="cls-16" d="M211.55,24.87V20a58.94,58.94,0,0,0-10.65-4.85v9.68Z"/><polygon class="cls-16" points="106.67 105.99 104.53 105.99 104.45 116.65 106.67 116.65 106.67 105.99"/><path class="cls-17" d="M106.67,199.77l2.45-.34v0h.27l17.47-2.46h-4.63V185.87h7.09c.06-.81.11-1.63.16-2.46h-7.25V172.35H130c0-.81,0-1.63.06-2.45h-7.82V158.84h8v-2.46h-8v-11h7.82l-.06-2.46h-7.76V132.21h7.42l-.09-2.45h-7.33V119.1h6.82c-.05-.82-.09-1.64-.14-2.45h-6.68V106h6c-.05-.84-.11-1.65-.16-2.45h-5.86V92.89h5.06q-.11-1.31-.21-2.46h-4.85V79.77h10.66v.82a14.59,14.59,0,0,1,2.46-.75v-.07h.33a23.58,23.58,0,0,1,4.55-.42h66.7a8,8,0,0,1,2.59.42h2v1.11A9.06,9.06,0,0,1,214,84V79.77h10.65V90.43h-9.35c.05.78.11,1.6.16,2.46h9.19v10.65h-8.48c0,.81.11,1.62.16,2.45h8.32v10.66h-7.57c.06.81.12,1.63.17,2.45h7.4v10.66h-6.61c.06.81.12,1.64.19,2.45h6.42v10.66h-5.59c.06.82.13,1.64.19,2.46h5.4v11h-4.47c.06.83.14,1.65.21,2.46h4.26V169.9H221.4c.07.82.15,1.64.23,2.45h3v11.06h-1.93c.09.83.18,1.65.26,2.46h1.67v11.06h-.41l.12,1,6.59,1.47h6.81v1.51l2.46.55v-2.06h8.24l-.17-2.46h-8.07V185.87h7.3l-.17-2.46h-7.13V172.35h6.36l-.18-2.45h-6.18V158.84h5.41l-.17-2.46h-5.24v-11h4.47l-.17-2.46h-4.3V132.21h3.56l-.18-2.45h-3.38V119.1h2.64l-.17-2.45h-2.47V106H242l-.17-2.45h-1.56V92.89H241l-.17-2.46h-.64V79.77h.28c0-.81-.08-1.63-.13-2.45h-.15V75.06a110.09,110.09,0,0,0-2.46-16.57V64.2H227.12V53.55h9.36q-.37-1.23-.78-2.46h-8.58V40.44h4c-.45-.83-.91-1.64-1.4-2.45h-2.58V34.13Q226,32.53,224.66,31v7H214V27.33h7.21c-.88-.84-1.79-1.66-2.75-2.46H214v-3.3c-.8-.53-1.62-1-2.46-1.53v4.83H200.9V15.19c-.81-.28-1.62-.55-2.46-.81V24.87H187.79V14.22h10.15a79.05,79.05,0,0,0-12.61-2.5v0H174.68V11c-.68,0-1.33,0-2,0l-.45,0v.78H161.56v-.17A73.26,73.26,0,0,0,146,15v9.84H135.35v-5c-.84.5-1.67,1-2.46,1.53v3.45h-4.67q-1.44,1.2-2.76,2.46h7.43V38H122.23v-7.3c-.86,1-1.67,2-2.45,3V38h-3c-.52.81-1,1.62-1.47,2.45h4.45V51.09h-9.35c-.3.82-.58,1.64-.85,2.46h10.2V64.2H109.12V55a93.42,93.42,0,0,0-2.76,11.64h.31V77.32h-1.61c-.06.82-.12,1.64-.17,2.45h1.78V90.43h-2l0,2.46h2v10.65h-2.12l0,2.45h2.14v10.66h-2.22l0,2.45h2.24v10.66h-2.32l0,2.45h2.34v10.66h-2.42l0,2.46h2.44v11h-2.52l0,2.46h2.54V169.9h-2.62l0,2.45h2.64v11.06H104l0,2.46h2.74v11.06h-2.83l0,2.46h2.85ZM227.12,66.66h10.65V77.32H227.12Zm0,13.11h10.65V90.43H227.12Zm0,13.12h10.65v10.65H227.12Zm0,13.1h10.65v10.66H227.12Zm0,13.11h10.65v10.66H227.12Zm0,13.11h10.65v10.66H227.12Zm0,13.12h10.65v11H227.12Zm0,13.51h10.65V169.9H227.12Zm0,13.51h10.65v11.06H227.12Zm0,13.52h10.65v11.06H227.12ZM214,40.44h10.65V51.09H214Zm0,13.11h10.65V64.2H214Zm0,13.11h10.65V77.32H214ZM200.9,27.33h10.65V38H200.9Zm0,13.11h10.65V51.09H200.9Zm0,13.11h10.65V64.2H200.9Zm0,13.11h10.65V77.32H200.9ZM187.79,27.33h10.65V38H187.79Zm0,13.11h10.65V51.09H187.79Zm0,13.11h10.65V64.2H187.79Zm0,13.11h10.65V77.32H187.79ZM174.68,14.22h10.65V24.87H174.68Zm0,13.11h10.65V38H174.68Zm0,13.11h10.65V51.09H174.68Zm0,13.11h10.65V64.2H174.68Zm0,13.11h10.65V77.32H174.68ZM161.56,14.22h10.66V24.87H161.56Zm0,13.11h10.66V38H161.56Zm0,13.11h10.66V51.09H161.56Zm0,13.11h10.66V64.2H161.56Zm0,13.11h10.66V77.32H161.56Zm-13.1-52.44h10.65V24.87H148.46Zm0,13.11h10.65V38H148.46Zm0,13.11h10.65V51.09H148.46Zm0,13.11h10.65V64.2H148.46Zm0,13.11h10.65V77.32H148.46ZM135.35,27.33H146V38H135.35Zm0,13.11H146V51.09H135.35Zm0,13.11H146V64.2H135.35Zm0,13.11H146V77.32H135.35ZM122.23,40.44h10.66V51.09H122.23Zm0,13.11h10.66V64.2H122.23Zm0,13.11h10.66V77.32H122.23Zm-13.11,0h10.66V77.32H109.12Zm0,13.11h10.66V90.43H109.12Zm0,13.12h10.66v10.65H109.12Zm0,13.1h10.66v10.66H109.12Zm0,13.11h10.66v10.66H109.12Zm0,13.11h10.66v10.66H109.12Zm0,13.12h10.66v11H109.12Zm0,13.51h10.66V169.9H109.12Zm0,13.51h10.66v11.06H109.12Zm0,13.52h10.66v11.06H109.12Z"/><path class="cls-18" d="M238.83,70.26h-133c-4.46,0-1-5.26.64-10.52-1.81-4.64,1.6-10.51,4.69-10.51H235.05c3,0,5.36,6.78,3,10.51C239,65,241.76,70.26,238.83,70.26Z"/></g></g></g></g></svg>