<svg xmlns="http://www.w3.org/2000/svg" xmlns:xlink="http://www.w3.org/1999/xlink" viewBox="0 0 344.16 433.23"><defs><style>.cls-1{fill:#e94e1b;}.cls-2{clip-path:url(#clip-path);}.cls-3{fill:#2b7779;}.cls-4{fill:#f9bb8d;}.cls-5{fill:#db9d73;}.cls-6{fill:#432918;}.cls-7{fill:#fff;}.cls-8{fill:#45babd;}.cls-9{fill:#389497;}.cls-10{fill:#b41f1c;}.cls-11{fill:#583636;}.cls-12{fill:#432827;}.cls-13{fill:#c0102c;}.cls-14{fill:#e73a3a;}.cls-15{fill:#f49e87;}</style><clipPath id="clip-path"><path class="cls-1" d="M344.16,172.08A172.08,172.08,0,1,1,172.08,0,172.08,172.08,0,0,1,344.16,172.08Z"/></clipPath></defs><g id="Layer_2" data-name="Layer 2"><g id="Capa_1" data-name="Capa 1"><path class="cls-1" d="M344.16,172.08A172.08,172.08,0,1,1,172.08,0,172.08,172.08,0,0,1,344.16,172.08Z"/><g class="cls-2"><path class="cls-3" d="M142.74,242.12h54.73V221.91s-5.8-5.32-24.23-5.32-25.81,3.55-25.81,3.55Z"/><polygon class="cls-4" points="124.66 284.68 218.63 284.68 227.14 238.81 187.42 230.3 187.42 204.18 155.86 204.18 155.86 230.3 116.14 238.81 124.66 284.68"/><path class="cls-5" d="M155.86,209.49s7.09,10.65,16.31,10.65,15.25-10.65,15.25-10.65v-5.31H155.86Z"/><path class="cls-4" d="M225.29,166c-5.38,17-30,47.76-52.47,47.76-20.18,0-46.64-25.53-52.92-47.76s-4-47.75-4-47.75c0-30.27,9-62.9,57-62.9s57,37.83,57,67.15C229.78,122.49,230.67,149,225.29,166Z"/><path class="cls-4" d="M101.68,152.65c3,10,13.47,15.27,15.78,10s6.88-7.89,5.47-16.38-12.35-17.64-17.09-15.08C98.45,135.25,99.19,144.44,101.68,152.65Z"/><path class="cls-4" d="M241.74,151.6c-3,10-13.47,15.27-15.78,10s-6.89-7.89-5.47-16.38,12.35-17.64,17.09-15.08C245,134.19,244.24,143.4,241.74,151.6Z"/><path class="cls-6" d="M218.34,153.93c9-4.49,8-23.75,19.24-23.75,10.84-38.79-16.83-87.37-35.83-79.48-6.88-13.21-24.62-15-43.41-12.63-45.42,5.66-64.19,57.49-54.28,94.38,10.35-6.77,6.2,12.74,20.32,21.48-5.71-12.29,6.9-8.8.79-28.6,5.94-8.4,53.31-8.28,71.47-42.09,5.38,17.27,11.16,23.65,20.58,36.41S221.7,148.73,218.34,153.93Z"/><path class="cls-6" d="M205.87,32.11c0,15.2-14.87,32.6-33.22,32.6s-33.22-17.4-33.22-32.6S154.31,9.67,172.65,9.67,205.87,16.9,205.87,32.11Z"/><rect class="cls-7" x="124.65" y="284.68" width="93.98" height="118.69"/><path class="cls-8" d="M197.47,221.91l-21,107.69v44.92l53.4,38.78s-2-56.27-9.09-80.39c.48-11.34,8.18-45.37,8.18-45.37l2-48.73-21.74-4.66Z"/><path class="cls-9" d="M193.92,219.9c3,13.47-17.48,109.7-17.48,109.7v44.92l22.09-67.14-6.86-7.1,9.46-8.27,8.05-57.86S201.72,223.21,193.92,219.9Z"/><path class="cls-8" d="M255.75,279c1.68,8,9.3,109.74,8.51,146.11-2.18,4.27-18.29,10.18-20.78,6.93-3.46-49-14.55-136.16-14.55-144.51,0-11.06-9.07-48.73,2-48.73S250.08,252.05,255.75,279Z"/><path class="cls-8" d="M143.88,222.15l21,107.69v44.93L115.47,413.3s2.09-53.05,9.18-77.16c-.47-11.35-12.23-48.36-12.23-48.36l-2-48.73,21.74-4.66Z"/><path class="cls-9" d="M147.43,220.14c-3,13.47,17.48,109.7,17.48,109.7v44.93l-22.09-67.16,6.85-7.08-9.46-8.28-8-57.86S139.63,223.45,147.43,220.14Z"/><path class="cls-8" d="M85.59,279.25c-1.67,8-9.29,109.74-8.5,146.11,2.18,4.27,18.29,10.18,20.78,6.93,3.46-49,14.55-136.15,14.55-144.51,0-11.06,9.07-48.73-2-48.73S91.27,252.3,85.59,279.25Z"/><path class="cls-10" d="M235.66,163a4.26,4.26,0,1,1-4.26-4.26A4.26,4.26,0,0,1,235.66,163Z"/><path class="cls-10" d="M117.29,163a4.26,4.26,0,1,1-4.26-4.26A4.26,4.26,0,0,1,117.29,163Z"/><path class="cls-11" d="M134.4,133.44l-.74-.48a7,7,0,0,1-.8-.87,7.8,7.8,0,0,1-.48-1.07,7.4,7.4,0,0,1-.19-2.88,7.29,7.29,0,0,0,1,2.53,5.85,5.85,0,0,0,.59.67c.23.12.32.23.52.32l.85.25a.85.85,0,1,1-.47,1.63A1,1,0,0,1,134.4,133.44Z"/><path class="cls-7" d="M158.4,136.13c0,3.1-5.11,7.58-11.48,7.58-7.78,0-12.47-4.52-12.47-9.31s6.73-8,12.42-7C153.13,128.61,158.4,132.71,158.4,136.13Z"/><path class="cls-11" d="M154.85,136.08a8.43,8.43,0,0,1-3.69,7c-2.82,1.4-8.5.61-9.75-.21a8.42,8.42,0,1,1,13.44-6.75Z"/><path class="cls-11" d="M134.58,135.77a7.94,7.94,0,0,1-.24-1.39,5.82,5.82,0,0,1,1.06-3.68,9.49,9.49,0,0,1,4.39-3.27,15.13,15.13,0,0,1,6.2-.93,14.81,14.81,0,0,1,3.11.68A20.6,20.6,0,0,1,152,128.3a14.85,14.85,0,0,1,4.37,3.15,7.66,7.66,0,0,1,2,3.26,4.15,4.15,0,0,1,.1,1.42,4.35,4.35,0,0,0-.42-1.31,8.7,8.7,0,0,0-2.32-2.66,19.22,19.22,0,0,0-4.33-2.52,17.78,17.78,0,0,0-2.66-.93,22.11,22.11,0,0,0-2.83-.56c-3.77-.33-7.84,1-9.71,3.11A6.31,6.31,0,0,0,134.58,135.77Z"/><path class="cls-12" d="M152.18,137.55a5.37,5.37,0,1,1-5.36-5.36A5.35,5.35,0,0,1,152.18,137.55Z"/><circle class="cls-7" cx="150.42" cy="135.07" r="2.39"/><circle class="cls-7" cx="148.81" cy="131.4" r="0.79"/><path class="cls-11" d="M212.41,131.91l.85-.25c.2-.09.29-.2.52-.32a5,5,0,0,0,.59-.67,7.29,7.29,0,0,0,1-2.53,7.4,7.4,0,0,1-.19,2.88,7.8,7.8,0,0,1-.48,1.07,7,7,0,0,1-.8.87c-.45.28-.74.48-.74.48a.86.86,0,0,1-1-1.43A1,1,0,0,1,212.41,131.91Z"/><path class="cls-7" d="M189.11,136.13c0,3.1,5.12,7.58,11.48,7.58,7.79,0,12.48-4.52,12.48-9.31s-6.74-8-12.42-7C194.39,128.61,189.11,132.71,189.11,136.13Z"/><path class="cls-11" d="M192.68,136.08a8.42,8.42,0,0,0,3.68,7c2.82,1.4,8.5.61,9.76-.21a8.42,8.42,0,1,0-13.44-6.75Z"/><path class="cls-11" d="M212.94,135.77a6.31,6.31,0,0,0-1.55-4.51c-1.87-2.13-5.94-3.44-9.71-3.11a24,24,0,0,0-2.83.56,17.78,17.78,0,0,0-2.66.93,19.3,19.3,0,0,0-4.34,2.52,8.65,8.65,0,0,0-2.31,2.66,4.61,4.61,0,0,0-.43,1.31,4.77,4.77,0,0,1,.11-1.42,7.62,7.62,0,0,1,2-3.26,14.91,14.91,0,0,1,4.38-3.15,20.6,20.6,0,0,1,2.85-1.12,14.68,14.68,0,0,1,3.11-.68,15,15,0,0,1,6.2.94,9.41,9.41,0,0,1,4.39,3.26,5.88,5.88,0,0,1,1.06,3.68A7.94,7.94,0,0,1,212.94,135.77Z"/><path class="cls-12" d="M195.34,137.55a5.37,5.37,0,1,0,5.37-5.36A5.36,5.36,0,0,0,195.34,137.55Z"/><path class="cls-7" d="M199.5,135.07a2.4,2.4,0,1,1-2.4-2.4A2.4,2.4,0,0,1,199.5,135.07Z"/><path class="cls-7" d="M197.92,131.4a.79.79,0,0,0,.78.79.79.79,0,1,0,0-1.58A.78.78,0,0,0,197.92,131.4Z"/><path class="cls-5" d="M176.57,160.66a6.2,6.2,0,0,1-5.18,2.76c-3.54,0-5.9-1.06-6.42-1.65s3.49-7.68,3.49-7.68-1.88,5-1,6.18,3.16,1.21,4.26,1.21C175.24,161.48,176.57,160.66,176.57,160.66Z"/><path class="cls-13" d="M189,178.38c0,8.14-7.33,14.72-16.36,14.72s-16.35-6.58-16.35-14.72Z"/><path class="cls-14" d="M159.87,187.55a17.5,17.5,0,0,0,25.57,0,46.06,46.06,0,0,0-25.57,0Z"/><path class="cls-7" d="M186.69,182.13a14.88,14.88,0,0,0,.48-3.75h-29a14.43,14.43,0,0,0,.43,3.57,3.15,3.15,0,0,0,2.58,1.93h23.23A2.54,2.54,0,0,0,186.69,182.13Z"/><path class="cls-6" d="M215.36,118.44s-8.94-4.16-17.91-3.32c-3.51.33-7.15.69-8.52,1s-.84-3.71.08-3.87,4.91-2.37,8.78-2.11C207.7,110.8,215.36,118.44,215.36,118.44Z"/><path class="cls-6" d="M133.18,118.44s8.94-4.16,17.91-3.32c3.5.33,7.15.69,8.52,1s.84-3.71-.07-3.87-4.92-2.37-8.78-2.11C140.83,110.8,133.18,118.44,133.18,118.44Z"/><path class="cls-15" d="M210.77,152.51c0,3.2-5.05,5.79-11.27,5.79s-11.28-2.59-11.28-5.79,5.05-5.79,11.28-5.79S210.77,149.31,210.77,152.51Z"/><path class="cls-15" d="M156,152.51c0,3.2-5.05,5.79-11.28,5.79s-11.27-2.59-11.27-5.79,5-5.79,11.27-5.79S156,149.31,156,152.51Z"/></g></g></g></svg>