<svg xmlns="http://www.w3.org/2000/svg" xmlns:xlink="http://www.w3.org/1999/xlink" viewBox="0 0 344.16 354.24"><defs><style>.cls-1{fill:#259dab;}.cls-2{isolation:isolate;}.cls-3{clip-path:url(#clip-path);}.cls-4{fill:#432918;}.cls-5{fill:#f9bb8d;}.cls-6,.cls-8{fill:#ededed;}.cls-7{fill:#e7dcd6;}.cls-7,.cls-8{mix-blend-mode:multiply;}.cls-9{fill:#dadada;}.cls-10{fill:#b55a3a;}.cls-11{fill:#d15d36;}.cls-12{fill:#fff;}.cls-13{fill:#e09d72;}</style><clipPath id="clip-path"><path class="cls-1" d="M344.16,172.08A172.08,172.08,0,1,1,172.08,0,172.08,172.08,0,0,1,344.16,172.08Z"/></clipPath></defs><g class="cls-2"><g id="Layer_2" data-name="Layer 2"><g id="Capa_1" data-name="Capa 1"><path class="cls-1" d="M344.16,172.08A172.08,172.08,0,1,1,172.08,0,172.08,172.08,0,0,1,344.16,172.08Z"/><g class="cls-3"><path class="cls-4" d="M236.88,195.27c-19.39,23.21-44,31-53.71,31-9.89,0-36.61-6.81-56.54-31-11.3-13.68-19.24-52.92-22.2-71.74-1.71-10.8-3.09-33.76,4.48-45.27,11.9-18.08,34.17-30.78,71.38-30.78,14.08,0,33.88-.47,36.24,8.89,19-.66,28.66,9.21,33.35,17.66,6.85,12.33,9.4,29.6,7.64,46.06C255.21,141.78,248.52,181.36,236.88,195.27Z"/><path class="cls-5" d="M120.56,151.42s2.3-18-13.28-13.57c-12,3.38.33,36.69,8.23,39.53,6.76,2.45,8.22-2.73,8.22-2.73Z"/><path class="cls-5" d="M243.54,151.42s-2.31-18,13.27-13.57c12,3.38-.33,36.69-8.23,39.53-6.76,2.45-8.22-2.73-8.22-2.73Z"/><path class="cls-6" d="M277.77,354.24c3.45-49.88,3.67-91.53,3.67-91.53s-32.62-14.3-51.36-18.8c-17.64-4.23-38.31-3.76-40.47-3.7s-22.82-.53-40.46,3.7c-18.74,4.5-50.82,18.8-50.82,18.8s-1.69,38.36,3.21,91.53Z"/><path class="cls-5" d="M183.21,274s36-30.46,33.74-32.4c-10.53-9-7.58-32.16-7.58-32.16H157.49s4.81,28.12-8.34,34.49C148,244.45,183.21,274,183.21,274Z"/><path class="cls-5" d="M245.13,159.54c-2.65,19.71-4.61,30.21-14.85,45-17.06,24.71-38.74,33-47.25,33-8.7,0-32.21-7.24-49.74-33-9.94-14.57-11.59-27.15-14.29-45-3.24-21.5-3.49-13.91-3.49-34.19,0-41.3,15.94-71.13,62.25-71.13s70,26,70.67,68.35C248.82,145.8,248,137.93,245.13,159.54Z"/><path class="cls-7" d="M126.38,128.58c6.21-6.47,21.54-6.2,30.25-6.46,8.2-.24,27.92-.08,34-7.13,5.36-6.25,15.19-15.35,24-15.35,20.52,0,24,30.57,27.19,47.06.87,4.44,2,9,3.2,13.52,0-.23.06-.45.1-.68,2.89-21.61,3.69-13.74,3.3-37-.7-42.4-23-71.17-69.36-71.17s-63.56,32.65-63.56,73.95c0,19.34.23,13.4,3.07,31.44C122.54,148.42,119,136.22,126.38,128.58Z"/><path class="cls-4" d="M119.82,165c2.31,15.08,2.52,25.95,11.41,39,17.55,25.72,43.1,33.58,51.8,33.58,8.51,0,32.41-8.17,49.47-32.88,9.25-13.39,9.53-23.38,11.87-39.7l-18.92,31s-13.26,17-30.27,23.35c-3.65,1.36-9.47-11.6-13.16-11.6-4.65,0-9.33,13.26-14,11.23-16.36-7.08-31.13-23-31.13-23Z"/><path class="cls-4" d="M119.49,122.2c15.35-11.59,69.85,3.75,89.59-30.39,23.54.3,28.51,23.49,32.27,32s3.67,36.51,3.78,35.78c2.89-21.61,6.31-13.17,5.93-36.4-.71-42.4-25.65-71.74-72-71.74S113.22,84,113.22,125.33c0,20.28,2.54,12.71,5.78,34.21C119.12,160.27,113.82,126.48,119.49,122.2Z"/><path class="cls-6" d="M283.17,354.24h42.3c-9.84-40.12-25.34-85.94-44-91.53-31.93-9.57,1.14,88.8,1.14,88.8Z"/><path class="cls-8" d="M283.17,354.24H298c-5.72-11.34-12.93-20.55-23.32-29.88,3.89,15.18,7.91,27.15,7.91,27.15Z"/><path class="cls-6" d="M96.61,354.24l.59-2.73s33.06-98.37,1.13-88.8c-18.69,5.59-34.19,51.41-44,91.53Z"/><path class="cls-8" d="M96.61,354.24l.59-2.73s4-12,7.9-27.15c-10.38,9.33-17.59,18.54-23.32,29.88Z"/><path class="cls-9" d="M224.43,275.7c-11.31-17.35-32.43-9.39-32.43-9.39s21.76-20.44,24.95-24.73,25-4,30.44,5.7C250.14,252.22,230,268.13,224.43,275.7Z"/><path class="cls-9" d="M143.8,276.94c11.32-17.35,32.43-9.39,32.43-9.39s-21.76-20.43-24.95-24.73-25-4-30.43,5.7C118.1,253.46,138.22,269.37,143.8,276.94Z"/><path class="cls-10" d="M193.73,291.52H176.66s-9.77-18.73-6.58-23,24.43-4.23,28.2,0S193.73,291.52,193.73,291.52Z"/><path class="cls-7" d="M182.46,265.33c-5.64.15-10.91,1.19-12.38,3.16-3.19,4.3,6.58,23,6.58,23h17.07s.29-.67.74-1.78C183.51,286.85,179.5,274.87,182.46,265.33Z"/><polygon class="cls-11" points="198.92 354.24 193.73 291.52 176.66 291.52 170.95 354.24 198.92 354.24"/><path class="cls-7" d="M183.18,354.24c.24-1.57.48-3.13.7-4.7,2.82-19.29,1.32-38.6,5.51-57.85a.84.84,0,0,1,.05-.17H176.66L171,354.24Z"/><path class="cls-12" d="M227.93,149.86a12.73,12.73,0,0,1-3.7,6.38c-2.34,2.21-16.62,3.7-18.12,3-2.25-1-5.18-5.82-5.18-5.82s5-6.91,11.22-6.91S227.93,149.86,227.93,149.86Z"/><path class="cls-4" d="M212.15,147.89c4.48,0,10.72,1.72,13.83,2.69.72.22.35,2.67-.84,4.7a9,9,0,0,0,2.79-5.42s-9.58-3.33-15.78-3.33-11.22,6.91-11.22,6.91a2.51,2.51,0,0,0,.73,1.1C202.76,153.16,206.79,147.89,212.15,147.89Z"/><path class="cls-4" d="M219,152.81a6.29,6.29,0,1,1-6.28-6.28A6.28,6.28,0,0,1,219,152.81Z"/><path class="cls-12" d="M218.09,152.82c0,2.66-7.47-4.81-4.81-4.81A4.81,4.81,0,0,1,218.09,152.82Z"/><path class="cls-4" d="M130.33,139.39s3.37-2.28,10.9-4.73c8.2-2.68,19.42,1.42,19.86,1.42.76,0,1.89-.22,1.89-2.32s-.62-3.82-1.39-3.82c-.42,0-11.53-2.76-19.86-.16C135.35,131.76,130.33,139.39,130.33,139.39Z"/><path class="cls-4" d="M233.58,139.39s-3.37-2.28-10.9-4.73c-8.2-2.68-19.42,1.42-19.85,1.42-.77,0-1.9-.22-1.9-2.32s.62-3.82,1.39-3.82c.42,0,11.54-2.76,19.87-.16C228.56,131.76,233.58,139.39,233.58,139.39Z"/><path class="cls-12" d="M136,149.86a12.73,12.73,0,0,0,3.7,6.38c2.35,2.21,16.62,3.7,18.12,3,2.25-1,5.18-5.82,5.18-5.82s-5-6.91-11.22-6.91S136,149.86,136,149.86Z"/><path class="cls-4" d="M151.76,147.89c-4.48,0-10.72,1.72-13.83,2.69-.72.22-.35,2.67.84,4.7a9,9,0,0,1-2.79-5.42s9.58-3.33,15.78-3.33S163,153.44,163,153.44a2.55,2.55,0,0,1-.72,1.1C161.15,153.16,157.13,147.89,151.76,147.89Z"/><path class="cls-4" d="M144.92,152.81a6.29,6.29,0,1,0,6.29-6.28A6.28,6.28,0,0,0,144.92,152.81Z"/><path class="cls-12" d="M145.82,152.82c0,2.66,7.47-4.81,4.81-4.81A4.81,4.81,0,0,0,145.82,152.82Z"/><polygon class="cls-13" points="179.7 178.2 174.06 173.74 179.7 160.58 179.7 178.2"/><polygon class="cls-13" points="164.41 196.87 162.3 194.82 200.25 192.77 193.43 196.87 164.41 196.87"/></g></g></g></g></svg>