<svg xmlns="http://www.w3.org/2000/svg" xmlns:xlink="http://www.w3.org/1999/xlink" viewBox="0 0 344.16 363.63"><defs><style>.cls-1{fill:#e73a3a;}.cls-2{isolation:isolate;}.cls-3{clip-path:url(#clip-path);}.cls-4{fill:#301b16;}.cls-5{fill:#99613c;}.cls-6{fill:#e7dcd6;}.cls-6,.cls-9{mix-blend-mode:multiply;}.cls-7{fill:#fff;}.cls-8{fill:#432918;}.cls-9{fill:#d9cbca;}.cls-10{fill:#e67555;}.cls-11{fill:#f18875;opacity:0.1;}.cls-12{fill:#f6f6f6;}.cls-13{fill:#040300;}.cls-14{fill:#0d0d02;}</style><clipPath id="clip-path"><path class="cls-1" d="M344.16,172.08A172.08,172.08,0,1,1,172.08,0,172.08,172.08,0,0,1,344.16,172.08Z"/></clipPath></defs><g class="cls-2"><g id="Layer_2" data-name="Layer 2"><g id="Capa_1" data-name="Capa 1"><path class="cls-1" d="M344.16,172.08A172.08,172.08,0,1,1,172.08,0,172.08,172.08,0,0,1,344.16,172.08Z"/><g class="cls-3"><path class="cls-4" d="M83.42,156.77s0,0,0,0h0Z"/><path class="cls-4" d="M271.16,131.39a3.7,3.7,0,0,0,.58-2.2,4.22,4.22,0,0,0-.67-2.21,4.17,4.17,0,0,0,.49-2.24,4.05,4.05,0,0,0-.81-2.16,3.83,3.83,0,0,0,.41-2.25,4.16,4.16,0,0,0-1-2.16,3.83,3.83,0,0,0,.27-2.29,4.17,4.17,0,0,0-1-2.07,4,4,0,0,0,.13-2.29,4,4,0,0,0-1.16-2,4,4,0,0,0,.05-2.29,4.75,4.75,0,0,0-1.26-2,4,4,0,0,0-.13-2.29,4.54,4.54,0,0,0-1.34-1.9,4.17,4.17,0,0,0-.27-2.29,4.41,4.41,0,0,0-1.43-1.82,4,4,0,0,0-.36-2.25,4.29,4.29,0,0,0-1.56-1.82,4.06,4.06,0,0,0-.59-2.33,4,4,0,0,0-1.79-1.7,4,4,0,0,0-.84-2.29,4.32,4.32,0,0,0-2-1.48,4.17,4.17,0,0,0-1-2.16,5,5,0,0,0-2-1.32,4.17,4.17,0,0,0-1.21-2.07,4.42,4.42,0,0,0-2.15-1.14,4.28,4.28,0,0,0-1.3-1.95,4.68,4.68,0,0,0-2.23-1,4.2,4.2,0,0,0-1.43-1.86,4.38,4.38,0,0,0-2.24-.89,4.06,4.06,0,0,0-1.57-1.78,4.4,4.4,0,0,0-2.28-.76,4.08,4.08,0,0,0-1.65-1.7h0a5.59,5.59,0,0,0-2.33-.68,4.45,4.45,0,0,0-1.74-1.61,5.27,5.27,0,0,0-2.37-.55A4.48,4.48,0,0,0,229.66,64a5.17,5.17,0,0,0-2.37-.43,4.42,4.42,0,0,0-1.84-1.44,4.8,4.8,0,0,0-2.41-.33,3.87,3.87,0,0,0-1.92-1.36,4.62,4.62,0,0,0-2.37-.26,4.59,4.59,0,0,0-2-1.27,4.75,4.75,0,0,0-2.38-.17,4.42,4.42,0,0,0-2.05-1.18,4.3,4.3,0,0,0-2.41,0,4.58,4.58,0,0,0-4.48-1.1,4.46,4.46,0,0,0-2.14-1.06,5,5,0,0,0-2.38.12,5.17,5.17,0,0,0-2.19-1h0a4.55,4.55,0,0,0-2.41.25,4.49,4.49,0,0,0-2.2-.89,4.38,4.38,0,0,0-2.37.3,4.37,4.37,0,0,0-2.23-.85,5,5,0,0,0-2.38.38,4.57,4.57,0,0,0-2.23-.72,4.94,4.94,0,0,0-2.37.47,4.5,4.5,0,0,0-2.29-.68,4.4,4.4,0,0,0-2.32.55,4.55,4.55,0,0,0-2.28-.59,4.8,4.8,0,0,0-2.33.59,4.64,4.64,0,0,0-2.32-.51,4.76,4.76,0,0,0-2.28.72,4.93,4.93,0,0,0-2.37-.46,4.85,4.85,0,0,0-2.24.8,4.47,4.47,0,0,0-2.37-.34,4.53,4.53,0,0,0-2.24.85,4.42,4.42,0,0,0-2.36-.25,4,4,0,0,0-2.19.93,4.52,4.52,0,0,0-2.37-.22,4.68,4.68,0,0,0-2.15,1,5.14,5.14,0,0,0-2.41-.08,4.38,4.38,0,0,0-2.11,1.1,4.67,4.67,0,0,0-2.41,0,4.46,4.46,0,0,0-2.06,1.18,4.46,4.46,0,0,0-2.37.09,4.26,4.26,0,0,0-2,1.23,5,5,0,0,0-2.38.17,4.23,4.23,0,0,0-2,1.31,4.61,4.61,0,0,0-4.3,1.65,5,5,0,0,0-2.36.34,4.19,4.19,0,0,0-1.84,1.48,4.71,4.71,0,0,0-2.37.47,4.36,4.36,0,0,0-1.79,1.53,4.84,4.84,0,0,0-4.07,2.2,4.53,4.53,0,0,0-2.28.68,4.12,4.12,0,0,0-1.65,1.69,5.19,5.19,0,0,0-2.29.81,4.51,4.51,0,0,0-1.51,1.78,4.17,4.17,0,0,0-2.24.92,4.29,4.29,0,0,0-1.43,1.87,4.54,4.54,0,0,0-3.49,3A4.69,4.69,0,0,0,99,80.47a4,4,0,0,0-1.12,2.07,4.32,4.32,0,0,0-2.06,1.36,3.85,3.85,0,0,0-1,2.2,4.14,4.14,0,0,0-1.92,1.53,4,4,0,0,0-.8,2.28,4.15,4.15,0,0,0-1.75,1.7A3.9,3.9,0,0,0,89.78,94,4.17,4.17,0,0,0,88,98.35a4.17,4.17,0,0,0-1.29,1.86,4.26,4.26,0,0,0,0,2.37,4.5,4.5,0,0,0-1.17,2.07,3.79,3.79,0,0,0,.14,2.34,3.88,3.88,0,0,0-1,2.07,4.32,4.32,0,0,0,.22,2.25,4,4,0,0,0-.89,2.11,3.83,3.83,0,0,0,.31,2.25,4.31,4.31,0,0,0-.85,2.08,4.24,4.24,0,0,0,.45,2.24,3.83,3.83,0,0,0-.81,2.12,4.19,4.19,0,0,0,.49,2.2,3.83,3.83,0,0,0-.76,2.12,3.6,3.6,0,0,0,.54,2.16,4.19,4.19,0,0,0-.72,2.17,4,4,0,0,0,.58,2.16,4.35,4.35,0,0,0-.66,2.15,4,4,0,0,0,.62,2.17,4,4,0,0,0-.62,2.16,4.15,4.15,0,0,0,.66,2.16,3.61,3.61,0,0,0-.58,2.15,3.93,3.93,0,0,0,.68,2.13,4.11,4.11,0,0,0-.5,2.2,3.45,3.45,0,0,0,.72,2.12,3.76,3.76,0,0,0-.45,2.2,4.14,4.14,0,0,0,.76,2.17,4.36,4.36,0,0,0-.36,2.2,3.91,3.91,0,0,0,.9,2.15,4.31,4.31,0,0,0-.31,2.25v.05a4.33,4.33,0,0,0,.94,2,4,4,0,0,0-.22,2.2,4.25,4.25,0,0,0,.93,2,4.05,4.05,0,0,0-.22,2.16,4,4,0,0,0,1,2,4.09,4.09,0,0,0-.22,2.2,4,4,0,0,0,1,2A4.1,4.1,0,0,0,87,178a4.55,4.55,0,0,0,1,2,4.2,4.2,0,0,0-.13,2.24,4.33,4.33,0,0,0,1.07,2,3.65,3.65,0,0,0-.13,2.2,4,4,0,0,0,1.07,2,3.9,3.9,0,0,0,0,2.25,4.15,4.15,0,0,0,1.12,2,4.25,4.25,0,0,0,0,2.24,4.29,4.29,0,0,0,1.21,1.95,3.92,3.92,0,0,0,0,2.25A4.07,4.07,0,0,0,93.4,201a3.86,3.86,0,0,0,.09,2.25,4.14,4.14,0,0,0,1.29,1.9,4,4,0,0,0,.14,2.29v0a4.59,4.59,0,0,0,1.38,1.86,4.05,4.05,0,0,0,.28,2.29A4.15,4.15,0,0,0,98,213.37a4,4,0,0,0,.4,2.25A3.92,3.92,0,0,0,100,217.4a4.21,4.21,0,0,0,.45,2.29h0a4.35,4.35,0,0,0,1.66,1.64,4.14,4.14,0,0,0,2.5,3.86,4,4,0,0,0,.85,2.25,4.29,4.29,0,0,0,2,1.44,4.06,4.06,0,0,0,1,2.12,5,5,0,0,0,2,1.27,3.93,3.93,0,0,0,1.12,2,4.51,4.51,0,0,0,2,1.19,5.07,5.07,0,0,0,1.21,2,4.79,4.79,0,0,0,2.1,1.1,4.28,4.28,0,0,0,1.3,1.95,4.13,4.13,0,0,0,2.14,1,4.1,4.1,0,0,0,1.34,1.87,5,5,0,0,0,2.2,1,4.81,4.81,0,0,0,1.47,1.83,5,5,0,0,0,2.24.85,4.16,4.16,0,0,0,1.52,1.73,4.35,4.35,0,0,0,2.23.76,4.71,4.71,0,0,0,1.62,1.74,4.57,4.57,0,0,0,2.32.63,4,4,0,0,0,1.66,1.66,4.76,4.76,0,0,0,2.32.59,4.4,4.4,0,0,0,1.75,1.57,4.56,4.56,0,0,0,2.37.46,4.14,4.14,0,0,0,1.83,1.53,4.62,4.62,0,0,0,2.37.38,4.55,4.55,0,0,0,1.88,1.44,5.07,5.07,0,0,0,2.36.3,4.48,4.48,0,0,0,2,1.31,4.63,4.63,0,0,0,2.41.21,4.71,4.71,0,0,0,2,1.27,4.65,4.65,0,0,0,2.42.09,4,4,0,0,0,2.1,1.14,4.48,4.48,0,0,0,2.41,0,4.78,4.78,0,0,0,4.65.89,4.88,4.88,0,0,0,2.24.93,4.47,4.47,0,0,0,2.51-.38,4.5,4.5,0,0,0,2.45.77h.14a4.91,4.91,0,0,0,2.46-.68,5.15,5.15,0,0,0,2.55.42,5,5,0,0,0,2.32-1A4.84,4.84,0,0,0,187,265a4.79,4.79,0,0,0,2.19-1.1,4.88,4.88,0,0,0,2.46,0,4.63,4.63,0,0,0,2.06-1.23,4.86,4.86,0,0,0,2.42-.13,4.55,4.55,0,0,0,2-1.31,4.68,4.68,0,0,0,4.34-1.66,4.55,4.55,0,0,0,2.36-.38,4.76,4.76,0,0,0,1.84-1.44,4.72,4.72,0,0,0,2.37-.46,4.89,4.89,0,0,0,1.79-1.57,4.55,4.55,0,0,0,4-2.16,4.64,4.64,0,0,0,2.28-.63,4.5,4.5,0,0,0,1.66-1.7,4.24,4.24,0,0,0,2.28-.73,4.62,4.62,0,0,0,1.56-1.73,4.68,4.68,0,0,0,2.24-.8,4.57,4.57,0,0,0,1.48-1.78,4.93,4.93,0,0,0,2.18-.9,4.6,4.6,0,0,0,1.44-1.85,4.86,4.86,0,0,0,2.14-1,4.66,4.66,0,0,0,1.35-1.91,4.73,4.73,0,0,0,2.09-1.06,4.27,4.27,0,0,0,1.26-1.95,4.45,4.45,0,0,0,2.1-1.14,4.32,4.32,0,0,0,1.16-2,4.73,4.73,0,0,0,2-1.19,4.06,4.06,0,0,0,1.07-2,5.09,5.09,0,0,0,2-1.27h0a.38.38,0,0,1,.09-.09,0,0,0,0,1,0,0,4.29,4.29,0,0,0,1-2.29,4.23,4.23,0,0,0,1.92-1.57,4,4,0,0,0,.72-2.28,4.61,4.61,0,0,0,1.74-1.66,4.11,4.11,0,0,0,.49-2.28,4.23,4.23,0,0,0,1.62-1.78,4.05,4.05,0,0,0,.35-2.25,4.25,4.25,0,0,0,1.47-1.82,4,4,0,0,0,.28-2.25,4,4,0,0,0,1.38-1.86,3.52,3.52,0,0,0,.18-2.25,4.1,4.1,0,0,0,1.48-4.11,4.93,4.93,0,0,0,1.25-1.9,4.3,4.3,0,0,0,0-2.25,4,4,0,0,0,1.21-1.94,4.27,4.27,0,0,0,.05-2.21,4.77,4.77,0,0,0,1.16-2,4.35,4.35,0,0,0,0-2.24A4.33,4.33,0,0,0,262.7,189a4.28,4.28,0,0,0-.08-2.25,4,4,0,0,0,1.11-1.95,3.8,3.8,0,0,0-.13-2.24,3.6,3.6,0,0,0,1.08-1.95,3.9,3.9,0,0,0-.14-2.25,4.07,4.07,0,0,0,1.07-2,3.9,3.9,0,0,0-.18-2.2,3.72,3.72,0,0,0,1-2,4.2,4.2,0,0,0-.18-2.25,4,4,0,0,0,.76-4.19,4.26,4.26,0,0,0,1-2,4.12,4.12,0,0,0-.23-2.21,4.1,4.1,0,0,0,.94-2,4.19,4.19,0,0,0-.26-2.2,4.16,4.16,0,0,0,.93-2,4.1,4.1,0,0,0-.31-2.2,4.3,4.3,0,0,0,.94-2,4.48,4.48,0,0,0-.32-2.2,4.27,4.27,0,0,0,.85-2.07,3.71,3.71,0,0,0-.31-2.21,4.27,4.27,0,0,0,.85-2.07,3.82,3.82,0,0,0-.4-2.25,4,4,0,0,0,.81-2.12v0a4.22,4.22,0,0,0-.5-2.2,4.15,4.15,0,0,0,.72-2.21A4.21,4.21,0,0,0,271.16,131.39Z"/><path class="cls-5" d="M106.94,360.6a25.58,25.58,0,0,0,1.11,3h72.37V245.47c-3.7-.07-6.26,0-6.93,0-2.07-.07-21.86-.52-38.75,3.55a125.46,125.46,0,0,0-32.91,13.63s8.44,17.64,13.21,52.49C117.44,332.7,104.82,353.39,106.94,360.6Z"/><path class="cls-5" d="M247.84,363.63a33.77,33.77,0,0,0,1.28-3.48c2.12-7.21-10.81-29.25-9.3-45,3.31-34.52,14.91-52.49,14.91-52.49A125.3,125.3,0,0,0,221.83,249c-16.89-4.07-36.69-3.62-38.75-3.55-.67,0-3.24-.08-6.94,0V363.63Z"/><path class="cls-5" d="M120.69,163.36s2.1-16-12.79-12.15c-11.45,2.94.55,32.62,8.13,35.2,6.48,2.21,7.85-2.38,7.85-2.38Z"/><path class="cls-5" d="M231.19,163.3s-2.33-16,12.61-12c11.5,3.08-.08,32.61-7.62,35.09-6.46,2.13-7.89-2.48-7.89-2.48Z"/><path class="cls-5" d="M177.09,276.69s30.7-28.58,28.87-29.95c-10.7-8-10.06-30.45-10.06-30.45l-38.7-2.75s2.45,32.23-9,36.23C147.34,250.06,177.09,276.69,177.09,276.69Z"/><path class="cls-6" d="M155.54,238.8a16.1,16.1,0,0,1,7.86,4.6c10.32,10.49,25.44,5.64,35.09-3.6.46-.43.92-.82,1.38-1.2-4.33-9.68-4-22.31-4-22.31l-38.7-2.75S158.28,228,155.54,238.8Z"/><path class="cls-5" d="M232.54,167.1c-2.37,18.88-4.13,28.94-13.31,43.13-15.3,23.65-42.38,31.56-42.38,31.56s-28.88-6.93-44.61-31.56c-8.91-14-10.39-26-12.81-43.13-2.9-20.58-3.13-13.32-3.13-32.73,0-39.55,14.3-68.11,55.82-68.11s62.76,24.85,63.39,65.44C235.86,154,235.14,146.41,232.54,167.1Z"/><path class="cls-6" d="M137.31,127.21c15-12.8,58.5,8.84,71.17-8.62,11.54-15.9,17.58,19.64,20.68,35.43.83,4.25,2.23,8.7,3.38,13.08,2.19-2.23,3-16.2,3.05-16.43,2.77-20.69,4.32,3.28,3.95-19-.67-40.59-22-68.15-66.42-68.15s-60.86,31.27-60.86,70.82c0,18.51,7.3,22,10,39.25C126.06,165.61,121.19,141,137.31,127.21Z"/><path class="cls-5" d="M103.9,363.63c6.35-26.58,13.54-54.18,13.54-54.18s5.77-51.89-15.61-46.79c-15.43,3.69-23.61,62.66-27.93,101Z"/><path class="cls-5" d="M251.85,363.63h30c-4.33-38.31-12.5-97.28-27.94-101-21.37-5.1-15.6,46.79-15.6,46.79S245.5,337.05,251.85,363.63Z"/><path class="cls-4" d="M128.25,150.31s2.59-2,9.49-3.78c8-2.05,18.59,1.36,19,1.36.74,0,1.82-.2,1.82-2.22s-.88-2-1.62-2c-.4,0-11.43-2.14-19.4.34A19.46,19.46,0,0,0,128.25,150.31Z"/><path class="cls-7" d="M132.71,159a12.11,12.11,0,0,0,3.55,6.11c2.23,2.12,15.9,3.54,17.34,2.89,2.15-1,5-5.58,5-5.58s-4.82-6.61-10.75-6.61S132.71,159,132.71,159Z"/><path class="cls-8" d="M147.81,157.14c-4.28,0-9.7,2-12.69,2.89-.68.21-.88,2.25.26,4.19-2.44-2.24-4.2-6.69-4.2-6.69s2.93,1,3.88.74c2.86-.9,8.31-2.43,12.75-2.43,5.93,0,10.75,6.61,10.75,6.61a2.42,2.42,0,0,1-.69,1.07C156.81,162.19,153,157.14,147.81,157.14Z"/><path class="cls-8" d="M141.26,161.85a6,6,0,1,0,6-6A6,6,0,0,0,141.26,161.85Z"/><path class="cls-7" d="M142.13,161.87c0,2.54,7.15-4.61,4.61-4.61A4.6,4.6,0,0,0,142.13,161.87Z"/><polygon class="cls-9" points="176.08 183.77 170.68 179.49 176.28 165.77 176.08 183.77"/><path class="cls-10" d="M176.07,214.25c-11,0-15.2-11.62-15.2-11.62a6,6,0,0,0,3.17.07c2.9-1,6.75-3.34,7.72-3.62,1.46-.41,4.32,1.63,4.32,1.63s2.5-2,3.7-1.63c.8.25,4.54,2.13,7.68,3.1a15.5,15.5,0,0,0,3.82.45S186.29,214.25,176.07,214.25Z"/><path class="cls-7" d="M175.94,208.41c-9,0-13.58-4.93-13.58-4.93a87,87,0,0,0,13.72,1.08,83.32,83.32,0,0,0,14.12-1.25A22.93,22.93,0,0,1,175.94,208.41Z"/><path class="cls-11" d="M162.32,181.89c0,5.26-6.66,9.53-14.87,9.53s-14.86-4.27-14.86-9.53,6.65-9.52,14.86-9.52S162.32,176.63,162.32,181.89Z"/><path class="cls-4" d="M221.49,150.31s-2.59-2-9.48-3.78c-8-2.05-18.59,1.36-19,1.36-.74,0-1.82-.2-1.82-2.22s.89-2,1.62-2c.41,0,11.43-2.14,19.41.34A19.4,19.4,0,0,1,221.49,150.31Z"/><path class="cls-7" d="M217,159a12.11,12.11,0,0,1-3.55,6.11c-2.24,2.12-15.91,3.54-17.34,2.89-2.16-1-5-5.58-5-5.58s4.81-6.61,10.75-6.61S217,159,217,159Z"/><path class="cls-8" d="M201.93,157.14c4.29,0,9.71,2,12.7,2.89.68.21.88,2.25-.27,4.19,2.44-2.24,4.2-6.69,4.2-6.69s-2.92,1-3.88.74c-2.86-.9-8.3-2.43-12.75-2.43-5.94,0-10.75,6.61-10.75,6.61a2.38,2.38,0,0,0,.7,1.07C192.93,162.19,196.79,157.14,201.93,157.14Z"/><path class="cls-8" d="M208.48,161.85a6,6,0,1,1-6-6A6,6,0,0,1,208.48,161.85Z"/><path class="cls-7" d="M207.62,161.87c0,2.54-7.16-4.61-4.61-4.61A4.61,4.61,0,0,1,207.62,161.87Z"/><path class="cls-11" d="M190.23,181.89c0,5.26,6.66,9.53,14.87,9.53S220,187.15,220,181.89s-6.66-9.52-14.87-9.52S190.23,176.63,190.23,181.89Z"/><path class="cls-4" d="M243.73,138.44v0h0S243.73,138.43,243.73,138.44Z"/><path class="cls-4" d="M242.18,136.53a1.81,1.81,0,0,0,1.69-1.8,1.83,1.83,0,0,0-1.69-1.8,1.79,1.79,0,0,0,1.66-1.83,1.82,1.82,0,0,0-1.73-1.77,1.79,1.79,0,0,0-.25-3.56,1.8,1.8,0,0,0-.36-3.57,1.82,1.82,0,0,0,1.44-2,1.79,1.79,0,0,0-1.91-1.55,1.82,1.82,0,0,0,1.33-2.09,1.77,1.77,0,0,0-2-1.44,1.82,1.82,0,0,0-.79-3.53,1.79,1.79,0,0,0-.93-3.45,1.82,1.82,0,0,0,1-2.23,1.84,1.84,0,0,0-2.16-1.19,1.8,1.8,0,0,0-1.29-3.35,1.8,1.8,0,0,0-1.48-3.27,1.8,1.8,0,0,0-1.62-3.21,1.8,1.8,0,0,0-1.88-3.06,1.77,1.77,0,0,0,.44-2.44,1.78,1.78,0,0,0-2.41-.54,1.82,1.82,0,0,0-2.2-2.88,1.79,1.79,0,0,0-2.34-2.7,1.8,1.8,0,0,0-2.52-2.56,1.83,1.83,0,0,0-.21-2.45,1.79,1.79,0,0,0-2.48.07,1.81,1.81,0,0,0-.36-2.44,1.87,1.87,0,0,0-2.49.22,1.79,1.79,0,0,0-2.95-2A1.83,1.83,0,0,0,213,71.7a1.78,1.78,0,0,0-2.4.54,1.79,1.79,0,0,0-.8-2.34,1.81,1.81,0,0,0-2.38.69,1.83,1.83,0,0,0-.93-2.31,1.8,1.8,0,0,0-2.34.83,1.79,1.79,0,0,0-1.08-2.23,1.76,1.76,0,0,0-2.27.94,1.8,1.8,0,0,0-3.42-1.12,1.79,1.79,0,0,0-1.3-2.09A1.76,1.76,0,0,0,194,65.77a1.82,1.82,0,0,0-3.53-.8A1.78,1.78,0,0,0,188.94,63a1.83,1.83,0,0,0-2.05,1.36,1.8,1.8,0,0,0-3.56-.46,1.8,1.8,0,0,0-1.65-1.8,1.72,1.72,0,0,0-1.91,1.51A1.81,1.81,0,0,0,178,61.88a1.77,1.77,0,0,0-1.86,1.58,1.78,1.78,0,0,0-1.77-1.69,1.82,1.82,0,0,0-1.84,1.62,1.81,1.81,0,0,0-3.6.14,1.77,1.77,0,0,0-1.9-1.55,1.79,1.79,0,0,0-1.66,1.81,1.8,1.8,0,0,0-3.56.43,1.81,1.81,0,0,0-3.57.57,1.75,1.75,0,0,0-2.08-1.23,1.8,1.8,0,0,0-1.41,2,1.79,1.79,0,0,0-3.45,1,1.78,1.78,0,0,0-2.24-1v0a1.86,1.86,0,0,0-1.18,2.2A1.79,1.79,0,0,0,144.59,69a1.8,1.8,0,0,0-2.33-.79,1.85,1.85,0,0,0-.94,2.3A1.79,1.79,0,0,0,139,69.9a1.82,1.82,0,0,0-.8,2.34,1.77,1.77,0,0,0-2.41-.5,1.84,1.84,0,0,0-.65,2.38,1.83,1.83,0,0,0-2.44-.37,1.86,1.86,0,0,0-.51,2.42,1.79,1.79,0,0,0-2.77,2.26,1.82,1.82,0,0,0-2.74,2.38,1.74,1.74,0,0,0-2.44,0,1.84,1.84,0,0,0-.11,2.49,1.78,1.78,0,0,0-2.44.21A1.75,1.75,0,0,0,121.7,86a1.8,1.8,0,0,0-2.44.36,1.78,1.78,0,0,0,.18,2.45,1.79,1.79,0,0,0-2.12,2.88,1.8,1.8,0,0,0-2.34.65,1.74,1.74,0,0,0,.42,2.37,1.85,1.85,0,0,0-2.34.76,1.81,1.81,0,0,0,.61,2.41,1.8,1.8,0,0,0-1.62,3.2,1.79,1.79,0,0,0-1.43,3.28,1.89,1.89,0,0,0-2.23,1.08,1.86,1.86,0,0,0,.93,2.3,1.8,1.8,0,0,0-1.08,3.42,1.8,1.8,0,0,0-1,3.46,1.81,1.81,0,0,0-2.06,1.37,1.84,1.84,0,0,0,1.26,2.12,1.81,1.81,0,0,0-2,1.48,1.78,1.78,0,0,0,1.37,2,1.82,1.82,0,0,0-2,1.58,1.79,1.79,0,0,0,1.44,2,1.81,1.81,0,0,0-.32,3.6,1.79,1.79,0,0,0-.18,3.57,1.79,1.79,0,0,0-1.69,1.8,1.82,1.82,0,0,0,1.69,1.8,1.8,1.8,0,0,0,.21,3.59,1.1,1.1,0,0,0,.5-.11,1.86,1.86,0,0,0-.68,2.34,1.84,1.84,0,0,0,2.34.87,1.77,1.77,0,0,0-.72,2.34,1.81,1.81,0,0,0,2.27.9,1.79,1.79,0,0,0,1.58,3.2,1.8,1.8,0,0,0,1.55,3.24,1.84,1.84,0,0,0-.71,2.34,1.81,1.81,0,0,0,2.26.9,1.81,1.81,0,0,0,1.59,3.24,1.76,1.76,0,0,0-.72,2.34,1.79,1.79,0,0,0,2.26.9,1.79,1.79,0,0,0,1.59,3.2,1.82,1.82,0,0,0-.76,2.38,1.79,1.79,0,0,0,2.31.86,1.81,1.81,0,0,0-.76,2.37,1.77,1.77,0,0,0,1.62,1,1.71,1.71,0,0,0,.47-.12,1.15,1.15,0,0,0,.36.07.71.71,0,0,1,.08.18,1.86,1.86,0,0,0-.51.33,1.8,1.8,0,0,0-.51,1.26,1.66,1.66,0,0,0,.51,1.26,1.68,1.68,0,0,0,1.29.54,1.8,1.8,0,0,0,1.26-.5,1.79,1.79,0,0,0,0-2.56,1.83,1.83,0,0,0-1.6-.45v0a1.81,1.81,0,0,0,1.5-2.05,1.84,1.84,0,0,0-1.88-1.54,1.79,1.79,0,0,0,1.48-1.91,1.83,1.83,0,0,0-1.81-1.66,1.78,1.78,0,0,0,1.55-1.87,1.8,1.8,0,0,0-1.76-1.69,1.84,1.84,0,0,0,1.65-1.83,1.78,1.78,0,0,0-1.77-1.76h0a1.83,1.83,0,0,0,1.81-1.73,1.81,1.81,0,0,0-1.58-1.87,1.84,1.84,0,0,0,1.8-1.66,1.78,1.78,0,0,0-1.58-1.9,1.81,1.81,0,0,0,.5-3.57,1.81,1.81,0,0,0,.54-3.56,1.77,1.77,0,0,0,2-1.37,1.8,1.8,0,0,0-1.22-2.12,1.78,1.78,0,0,0,2.08-1.3,1.81,1.81,0,0,0-1.11-2.16,1.79,1.79,0,0,0,1.08-3.41,1.81,1.81,0,0,0,2.26-1,1.86,1.86,0,0,0-.9-2.3,1.8,1.8,0,0,0,1.55-3.24,1.8,1.8,0,0,0,1.69-3.17,1.78,1.78,0,0,0,2.34-.64,1.76,1.76,0,0,0-.43-2.38,1.8,1.8,0,0,0,2.2-2.81,1.84,1.84,0,0,0,2.3-.1,1.76,1.76,0,0,0,.33-2.23,1.81,1.81,0,0,0,3.09-1.73,1.77,1.77,0,0,0,2.09.93,1.72,1.72,0,0,0,1.3-1.9,1.84,1.84,0,0,0,1.91,1.33,1.79,1.79,0,0,0,1.65-1.73,1.78,1.78,0,0,0,1.72,1.65,1.81,1.81,0,0,0,1.85-1.58,1.8,1.8,0,0,0,3.55.47,1.81,1.81,0,0,0,1.44,1.94,1.85,1.85,0,0,0,2.1-1.33,1.79,1.79,0,0,0,3.48.79,1.79,1.79,0,0,0,1.34,2.09,1.81,1.81,0,0,0,2.16-1.19,1.8,1.8,0,0,0,1.33,2.09,1.83,1.83,0,0,0,2.16-1.22,1.79,1.79,0,0,0,1.3,2.12,1.81,1.81,0,0,0,2.19-1.23,1.83,1.83,0,0,0,1.33,2.13,1.78,1.78,0,0,0,2.16-1.33s0,0,0,0h0s0,0,0,0a1.81,1.81,0,0,0,3.53.79,1.78,1.78,0,0,0,1.44,2.05,1.8,1.8,0,0,0,2.09-1.4,1.77,1.77,0,0,0,1.58,1.94,1.8,1.8,0,0,0,2-1.51,1.8,1.8,0,0,0,3.6.11,1.84,1.84,0,0,0,1.8,1.73h.07a1.82,1.82,0,0,0,1.72-1.88,1.81,1.81,0,0,0,2.1,1.44,1.75,1.75,0,0,0,1.47-2,1.81,1.81,0,0,0,3.42-1.16,1.79,1.79,0,0,0,2.42.76,1.82,1.82,0,0,0,.79-2.41,1.8,1.8,0,0,0,2.51.36,1.82,1.82,0,0,0,.37-2.52,1.79,1.79,0,0,0,2.48-2.59,1.8,1.8,0,1,0,2.12-2.92s0,0-.07,0a.86.86,0,0,0,.07-.1,1.73,1.73,0,0,0,1,.31,1.67,1.67,0,0,0,1.25-.54,1.76,1.76,0,0,0,.44-.79H213a1.77,1.77,0,0,0,1,2.22,1.8,1.8,0,0,0,2.16-.71,1.87,1.87,0,0,0,.8,2.15,1.81,1.81,0,0,0,2.23-.32,1.81,1.81,0,0,0,.4,2.23,1.78,1.78,0,0,0,2.3,0,1.8,1.8,0,0,0,2.3,2.7,1.81,1.81,0,0,0-.28,2.34,1.85,1.85,0,0,0,2.26.64,1.76,1.76,0,0,0-.57,2.27,1.78,1.78,0,0,0,2.19.9,1.75,1.75,0,0,0-.79,2.23,1.81,1.81,0,0,0,2.13,1.08,1.79,1.79,0,0,0,1.11,3.39,1.78,1.78,0,0,0-1.11,2.12,1.8,1.8,0,0,0,2,1.37,1.79,1.79,0,0,0,.73,3.49,1.81,1.81,0,0,0,.54,3.56A1.76,1.76,0,0,0,231,140.6a1.79,1.79,0,0,0,1.83,1.58,1.8,1.8,0,0,0-1.5,1.94,1.82,1.82,0,0,0,1.8,1.66,1.79,1.79,0,0,0,.14,3.56,1.81,1.81,0,0,0,.07,3.6,1.79,1.79,0,0,0,0,3.57,1.85,1.85,0,0,0-1.7,1.76,1.81,1.81,0,0,0,1.33,1.8.62.62,0,0,0-.17.11,1.76,1.76,0,0,0-1.3,1.62,1.67,1.67,0,0,0,1,1.69,1.92,1.92,0,0,0-1.07,1.19,2.19,2.19,0,0,0-.19.64,1.8,1.8,0,0,0,3.53.65,1.78,1.78,0,0,0-.79-2.41,1.35,1.35,0,0,0,.36-.18,1.81,1.81,0,0,0,1.25-1.33A1.77,1.77,0,0,0,234.4,160a1.88,1.88,0,0,0,2-1.26h0a1.74,1.74,0,0,0-.83-2.12,1.78,1.78,0,0,0,2.06-1,1.76,1.76,0,0,0-.58-2.23,1.79,1.79,0,0,0,1.76-3.09,1.86,1.86,0,0,0,2.34-.83,1.81,1.81,0,0,0-.72-2.38,1.8,1.8,0,0,0,2.16-1.26,1.77,1.77,0,0,0-1.12-2.19,1.81,1.81,0,0,0,.55-3.57,1.75,1.75,0,0,0,1.76-1.68A1.78,1.78,0,0,0,242.18,136.53Z"/><path class="cls-12" d="M106.94,360.6a25.58,25.58,0,0,0,1.11,3H247.84a33.77,33.77,0,0,0,1.28-3.48c2.12-7.21-10.81-29.25-9.3-45,3.31-34.52,14.91-52.49,14.91-52.49A125.3,125.3,0,0,0,221.83,249c-5,32.79-32.34,58.89-43.55,58.89S147.73,288.35,134.74,249a125.46,125.46,0,0,0-32.91,13.63s8.44,17.64,13.21,52.49C117.44,332.7,104.82,353.39,106.94,360.6Z"/><path class="cls-13" d="M106.94,360.6a25.58,25.58,0,0,0,1.11,3h72.37v-.55c-32.26-28.62-41.21-100.52-45.68-114a125.46,125.46,0,0,0-32.91,13.63s8.44,17.64,13.21,52.49C117.44,332.7,104.82,353.39,106.94,360.6Z"/><path d="M247.84,363.63a33.77,33.77,0,0,0,1.28-3.48c2.12-7.21-10.81-29.25-9.3-45,3.31-34.52,14.91-52.49,14.91-52.49A125.3,125.3,0,0,0,221.83,249c-2,13.19-13.35,88.44-41.41,114v.55Z"/><path class="cls-14" d="M213,318.49l11.92-6.29,14.18-59.62s-11.55-10.79-25.68-5.2c3.93,14.93-4.91,90.09-33,115.7L217,330.42Z"/><path class="cls-14" d="M147.88,318.49,136,312.2l-14.17-59.62s11.62-10.05,25.49-5.79c-3.93,14.93,5.1,90.68,33.14,116.29l-36.61-32.66Z"/><path class="cls-13" d="M103.9,363.63c6.35-26.58,13.54-54.18,13.54-54.18s5.77-51.89-15.61-46.79c-15.43,3.69-23.61,62.66-27.93,101Z"/><path d="M251.85,363.63h30c-4.33-38.31-12.5-97.28-27.94-101-21.37-5.1-15.6,46.79-15.6,46.79S245.5,337.05,251.85,363.63Z"/></g></g></g></g></svg>