<svg xmlns="http://www.w3.org/2000/svg" xmlns:xlink="http://www.w3.org/1999/xlink" viewBox="0 0 344.16 362.53"><defs><style>.cls-1{fill:#e73a3a;}.cls-2{clip-path:url(#clip-path);}.cls-3{fill:#dba87b;}.cls-4{fill:#e4b58b;}.cls-5{fill:#331b19;}.cls-6{fill:#e7e7e7;}.cls-7{fill:#655351;}.cls-8{fill:#fff;}.cls-9{fill:#1c2c42;}.cls-10{fill:#0d3858;}.cls-11{fill:#432918;}.cls-12{fill:#e09d72;}</style><clipPath id="clip-path"><path class="cls-1" d="M344.16,172.08A172.08,172.08,0,1,1,172.08,0,172.08,172.08,0,0,1,344.16,172.08Z"/></clipPath></defs><g id="Layer_2" data-name="Layer 2"><g id="Capa_1" data-name="Capa 1"><path class="cls-1" d="M344.16,172.08A172.08,172.08,0,1,1,172.08,0,172.08,172.08,0,0,1,344.16,172.08Z"/><g class="cls-2"><polygon class="cls-3" points="215.13 265.46 172.83 285.5 130.53 265.46 137.98 226.81 205.57 226.81 215.13 265.46"/><path class="cls-4" d="M235.28,143.58a302.41,302.41,0,0,1-6.88,45.73c-2.32,2.85-2,22.76-8.06,32.55-5,8-17.51,13.07-29.11,25.06-7,7.23-33.27,5.27-37.95,0-6.84-7.69-25.44-16.57-30.56-24.24-6.06-9.08-4.86-22.06-7.23-31.63-3.31-13.33-5.78-30-7.21-47.47-4-48.94,28.43-70.62,63.5-70.62S239.24,94.63,235.28,143.58Z"/><path class="cls-4" d="M247.68,164.18c-.89,5.46-5.62,15-7.65,18.46-1.37,2.31-8.48,7-11.63,6.67s-2-8.81-3.13-11.72-1.64-9-1.49-15.65c.25-10.78,6.79-14.95,13.4-14.34S249.42,153.54,247.68,164.18Z"/><path class="cls-4" d="M96.14,164.18c.89,5.46,5.62,15,7.65,18.46,1.37,2.31,8.48,7,11.63,6.67s2-8.81,3.13-11.72,1.65-9,1.49-15.65c-.25-10.78-6.79-14.95-13.4-14.34S94.4,153.54,96.14,164.18Z"/><path class="cls-5" d="M115.05,143.06s3.07-7.84,6.18-8.83c7.37-2.31,19.19-1,21.64-1.09,4.23-.07,10.72-.63,10.72-.63l-1.71,5.8a96.33,96.33,0,0,0-10.71-.51c-2.56.06-10.4-2.88-18.71-.68C119.48,137.91,115.05,143.06,115.05,143.06Z"/><path class="cls-5" d="M224.79,143.06s-3.07-7.84-6.19-8.83c-7.37-2.31-19.19-1-21.63-1.09-4.23-.07-10.72-.63-10.72-.63l1.7,5.8a96.43,96.43,0,0,1,10.7-.51c2.57.06,10.41-2.88,18.72-.68C220.35,137.91,224.79,143.06,224.79,143.06Z"/><path class="cls-5" d="M109.07,152.18c1.81,7.47,6,24.6,6,24.6s4.21-2.87,0-14.48-.32-20-1.43-32.6c-1.16-13.28,1.34-20.64,4.68-23.06,16-11.66,33.56-3.74,45.55-3.5s21-6.18,35.54-6.06,23.55,9.32,25.88,14.91c1,2.41,1.53,12,1.8,22.13.37,13.35,2.78,12.15,2.39,20.06s-1.17,23.53-1.17,23.53l7.32-30.16,6.83,1.76S248,92.07,237.5,78.78s-40.9-29.71-72.71-29.71C138,49.07,104.89,73.54,99,88.92c-4.94,12.78-3.36,28.49-2.12,41.81.26,2.82.22,5.08,3.06,6.42,1.36.63,3.61,1.23,4.15-.55.32-1-1.36-3.56-1.75-4.56a18.78,18.78,0,0,1-1.27-5.59c-.28-3.94-.52-8.19.36-12.08s3.32-6.53,5.72-9.42a110,110,0,0,1,13.47-14c4.25-3.56,11.54-5.47,17-5.53,8.79-.11,17.06,2.22,25.89.76a83.94,83.94,0,0,1,14.93-1.47c4.5,0,9,.64,13.51.48,7.69-.27,14.37-.46,21.73,2.49,6.82,2.73,13.05,7.38,15.79,14.35,2.35,6,2.58,11.39,2.09,17.63a74.18,74.18,0,0,0,.64,17.5c.62,3.66,2.62,7.48,2.67,11.16,1.18-2.11,5.5.77,7.38,1.38-1.55-4.89.2-9.11,2.18-13.43s1.58-9,1.58-13.8c0-4-.93-7.3-.93-11.19s.24-7.39.47-11.18c.25-4.32.37-7.29-.94-11.42A32.82,32.82,0,0,0,238.26,77a61,61,0,0,0-7.93-8.79c-3.19-2.68-7.27-4.41-11.19-5.94a104.85,104.85,0,0,1-12.06-5.59c-2-1.07-4-1.84-5.88-2.92-2.34-1.38-3.25-1.37-6-1.22a12.71,12.71,0,0,1-5.86-.88c-1.89-.91-3.35-2.32-5.33-3.09-3.41-1.31-7.05-3-10.73-3.78-4.24-.89-6.71.94-10.46,1.86-2.38.6-4.09-.24-6.3-.92-2.67-.84-4.51-.19-7.29,0-4.31.37-6.88,1-10.2,4.16-1.21,1.16-2,2.7-3.43,3.6s-3.2,1.12-4.72,1.85c-6.26,3.06-15,6.43-19.58,11.79s-6.2,12.34-11.22,17c-3,2.76-4,5.13-4.38,9.15-.18,1.8.25,3.84-.29,5.54s-1.79,2.94-2.23,4.71c-.92,3.76.47,7.42,1.12,11,.68,3.69.23,7.87.23,11.66a30.9,30.9,0,0,0,.19,5.64c.3,1.62,1.05,2.88,1.21,4.62.19,1.93-.07,3.4.69,5.12.52,1.14,4.28,8.09,2.81,9.24C99.45,150.81,107.25,144.72,109.07,152.18Z"/><polygon class="cls-6" points="222.7 362.53 222.7 266.29 170.46 282.47 120.06 266.29 120.06 362.53 222.7 362.53"/><path class="cls-7" d="M171.94,282.47s-14.28,4.95-14.28,9.41,7.82,16,7.82,16h14.26s6.47-11.52,6.47-16S171.94,282.47,171.94,282.47Z"/><polygon class="cls-7" points="184.78 362.53 179.75 307.9 165.47 307.9 160.1 362.53 184.78 362.53"/><polygon class="cls-8" points="235.28 262.19 189.96 292.02 172.22 282.51 211.04 243.16 235.28 262.19"/><polygon class="cls-8" points="109.09 261.95 153.22 292.02 172.22 282.51 133.26 243.01 109.09 261.95"/><path class="cls-9" d="M297.08,362.53c-4.06-40.68-9.37-79.8-15.26-86.78-13-15.37-65.15-28.18-65.15-28.18l-16.49,115Z"/><polygon class="cls-10" points="221.79 362.53 249.54 307.22 227.89 295.85 243.75 286.29 216.67 247.57 200.55 362.53 221.79 362.53"/><path class="cls-9" d="M144,362.53l-16.49-115s-52.17,12.81-65.14,28.18c-5.89,7-11.21,46.1-15.26,86.78Z"/><polygon class="cls-10" points="122.37 362.53 143.61 362.53 127.48 247.57 100.42 286.29 116.28 295.85 94.62 307.22 122.37 362.53"/><path class="cls-3" d="M163.85,223.25s9.82-1.28,11.94,0a41.92,41.92,0,0,0,5.55,2.56"/><path class="cls-5" d="M116.66,179.34s0,11.51,5.13,14.38,9.32,5.89,10,8.23,7.92,23.54,11.19,26.8,12.92,11.67,18.17,11.65c6.44,0,5.84-9.32,5.84-9.32l5.82.23v20.32s-14.13.46-19.55-4.71c-6.31-6-10.57-8.34-16.73-12.67s-12.69-8.09-15.69-14.59c-4.2-9.08-3.5-24.12-5.7-29.95.89-1.25-1.13-17.1-1.13-17.1Z"/><path class="cls-5" d="M226.74,179.34s0,11.51-5.13,14.38-9.32,5.89-10,8.23-7.93,23.54-11.19,26.8-12.91,11.67-18.18,11.65c-6.43,0-5.82-9.32-5.82-9.32l-5.83.23v20.32s14.13.46,19.55-4.71c6.32-6,10.57-8.34,16.72-12.67s12.71-8.09,15.71-14.59c4.19-9.08,3.49-24.12,5.68-29.95-.87-1.25,1.14-17.1,1.14-17.1Z"/><path class="cls-8" d="M220.73,149.85a13.3,13.3,0,0,1-3.86,6.66c-2.44,2.31-17.31,3.85-18.89,3.15-2.33-1.06-5.38-6.07-5.38-6.07s5.24-7.2,11.69-7.2S220.73,149.85,220.73,149.85Z"/><path class="cls-11" d="M204.29,147.8c4.66,0,11.15,1.81,14.41,2.8.74.24.36,2.79-.88,4.91a9.47,9.47,0,0,0,2.91-5.66s-10-3.46-16.44-3.46-11.69,7.2-11.69,7.2a2.58,2.58,0,0,0,.75,1.15C194.5,153.3,198.69,147.8,204.29,147.8Z"/><path class="cls-11" d="M211.41,152.93a6.55,6.55,0,1,1-6.55-6.54A6.53,6.53,0,0,1,211.41,152.93Z"/><path class="cls-8" d="M210.48,152.94c0,2.78-7.79-5-5-5A5,5,0,0,1,210.48,152.94Z"/><path class="cls-8" d="M124.93,149.85a13.3,13.3,0,0,0,3.86,6.66c2.44,2.31,17.32,3.85,18.88,3.15,2.35-1.06,5.39-6.07,5.39-6.07s-5.23-7.2-11.68-7.2S124.93,149.85,124.93,149.85Z"/><path class="cls-11" d="M141.38,147.8c-4.67,0-11.17,1.81-14.41,2.8-.75.24-.37,2.79.88,4.91a9.45,9.45,0,0,1-2.92-5.66s10-3.46,16.45-3.46,11.68,7.2,11.68,7.2a2.58,2.58,0,0,1-.75,1.15C151.16,153.3,147,147.8,141.38,147.8Z"/><path class="cls-11" d="M134.24,152.93a6.55,6.55,0,1,0,6.56-6.54A6.55,6.55,0,0,0,134.24,152.93Z"/><path class="cls-8" d="M135.18,152.94c0,2.78,7.79-5,5-5A5,5,0,0,0,135.18,152.94Z"/><polygon class="cls-12" points="170.47 179.38 164.6 174.73 170.47 161.03 170.47 179.38"/><polygon class="cls-12" points="154.14 206.19 151.94 204.05 191.46 201.92 184.37 206.19 154.14 206.19"/><path class="cls-5" d="M201.39,194.45c-4.41-3.15-18.17-5.58-21.84-7.49-3.2-1.66-3.86-2.71-3.86-2.71s.13,2.53-3.39,2.71-3.39-2.71-3.39-2.71a31.5,31.5,0,0,1-4.53,2.71c-3.68,1.91-17.44,4.34-21.86,7.49-4.19,3-3.58,8.94-3.58,8.94l1.4,3.18s0-7.13,5-9c2.5-.92,16.36-4.83,21.26-4.27a7.22,7.22,0,0,1,5.4,3.5,8.48,8.48,0,0,1,5.79-3.5c4.89-.56,18.38,3.35,20.87,4.27,5,1.84,5.46,8.24,5.46,8.24l1.45-2.11S205.59,197.45,201.39,194.45Z"/></g></g></g></svg>