<svg width="482" height="370" viewBox="0 0 482 370" fill="none" xmlns="http://www.w3.org/2000/svg">
<rect x="1.5" y="34.5" width="479" height="334" rx="18.5" fill="#B7C4CF" stroke="black" stroke-width="3"/>
<rect x="108.5" y="1.5" width="264" height="63" rx="18.5" fill="#3282B8" stroke="black" stroke-width="3"/>
<path d="M129.324 44.25V23.31H133.854V40.56H142.854V44.25H129.324ZM156.973 44.61C154.373 44.61 152.403 43.89 151.063 42.45C149.723 41.01 149.053 39.05 149.053 36.57C149.053 35.31 149.223 34.18 149.563 33.18C149.923 32.16 150.423 31.3 151.063 30.6C151.723 29.88 152.513 29.34 153.433 28.98C154.373 28.6 155.423 28.41 156.583 28.41C157.743 28.41 158.783 28.6 159.703 28.98C160.623 29.34 161.403 29.86 162.043 30.54C162.683 31.22 163.173 32.05 163.513 33.03C163.873 33.99 164.053 35.07 164.053 36.27V37.59H153.463V37.86C153.463 38.86 153.773 39.67 154.393 40.29C155.013 40.89 155.923 41.19 157.123 41.19C158.043 41.19 158.833 41.02 159.493 40.68C160.153 40.32 160.723 39.85 161.203 39.27L163.603 41.88C163.003 42.62 162.163 43.26 161.083 43.8C160.003 44.34 158.633 44.61 156.973 44.61ZM156.613 31.59C155.653 31.59 154.883 31.89 154.303 32.49C153.743 33.07 153.463 33.86 153.463 34.86V35.1H159.703V34.86C159.703 33.84 159.423 33.04 158.863 32.46C158.323 31.88 157.573 31.59 156.613 31.59ZM183.151 44.25C182.231 44.25 181.491 44.02 180.931 43.56C180.371 43.08 180.041 42.4 179.941 41.52H179.791C179.511 42.54 178.951 43.31 178.111 43.83C177.291 44.35 176.281 44.61 175.081 44.61C173.581 44.61 172.371 44.21 171.451 43.41C170.551 42.59 170.101 41.45 170.101 39.99C170.101 38.37 170.691 37.17 171.871 36.39C173.051 35.61 174.781 35.22 177.061 35.22H179.551V34.44C179.551 33.52 179.331 32.83 178.891 32.37C178.471 31.89 177.751 31.65 176.731 31.65C175.791 31.65 175.031 31.83 174.451 32.19C173.871 32.55 173.371 33.02 172.951 33.6L170.521 31.44C171.041 30.56 171.851 29.84 172.951 29.28C174.071 28.7 175.501 28.41 177.241 28.41C179.361 28.41 181.011 28.9 182.191 29.88C183.391 30.84 183.991 32.3 183.991 34.26V41.04H185.701V44.25H183.151ZM176.761 41.7C177.541 41.7 178.201 41.51 178.741 41.13C179.281 40.75 179.551 40.2 179.551 39.48V37.62H177.181C175.361 37.62 174.451 38.23 174.451 39.45V40.05C174.451 40.59 174.661 41 175.081 41.28C175.501 41.56 176.061 41.7 176.761 41.7ZM201.319 41.43H201.109C200.709 42.37 200.149 43.14 199.429 43.74C198.729 44.32 197.759 44.61 196.519 44.61C195.659 44.61 194.869 44.45 194.149 44.13C193.449 43.81 192.839 43.32 192.319 42.66C191.819 42 191.419 41.16 191.119 40.14C190.839 39.12 190.699 37.91 190.699 36.51C190.699 35.11 190.839 33.9 191.119 32.88C191.419 31.86 191.819 31.02 192.319 30.36C192.839 29.7 193.449 29.21 194.149 28.89C194.869 28.57 195.659 28.41 196.519 28.41C197.139 28.41 197.689 28.49 198.169 28.65C198.649 28.81 199.069 29.03 199.429 29.31C199.809 29.59 200.129 29.93 200.389 30.33C200.669 30.71 200.909 31.13 201.109 31.59H201.319V22.05H205.759V44.25H201.319V41.43ZM198.439 41.16C199.219 41.16 199.889 40.97 200.449 40.59C201.029 40.21 201.319 39.61 201.319 38.79V34.23C201.319 33.41 201.029 32.81 200.449 32.43C199.889 32.05 199.219 31.86 198.439 31.86C197.439 31.86 196.669 32.17 196.129 32.79C195.589 33.39 195.319 34.23 195.319 35.31V37.71C195.319 38.79 195.589 39.64 196.129 40.26C196.669 40.86 197.439 41.16 198.439 41.16ZM219.938 44.61C217.338 44.61 215.368 43.89 214.028 42.45C212.688 41.01 212.018 39.05 212.018 36.57C212.018 35.31 212.188 34.18 212.528 33.18C212.888 32.16 213.388 31.3 214.028 30.6C214.688 29.88 215.478 29.34 216.398 28.98C217.338 28.6 218.388 28.41 219.548 28.41C220.708 28.41 221.748 28.6 222.668 28.98C223.588 29.34 224.368 29.86 225.008 30.54C225.648 31.22 226.138 32.05 226.478 33.03C226.838 33.99 227.018 35.07 227.018 36.27V37.59H216.428V37.86C216.428 38.86 216.738 39.67 217.358 40.29C217.978 40.89 218.888 41.19 220.088 41.19C221.008 41.19 221.798 41.02 222.458 40.68C223.118 40.32 223.688 39.85 224.168 39.27L226.568 41.88C225.968 42.62 225.128 43.26 224.048 43.8C222.968 44.34 221.598 44.61 219.938 44.61ZM219.578 31.59C218.618 31.59 217.848 31.89 217.268 32.49C216.708 33.07 216.428 33.86 216.428 34.86V35.1H222.668V34.86C222.668 33.84 222.388 33.04 221.828 32.46C221.288 31.88 220.538 31.59 219.578 31.59ZM233.726 40.8H237.296V32.22H233.726V28.77H241.736V33.15H241.946C242.086 32.59 242.276 32.05 242.516 31.53C242.776 30.99 243.096 30.52 243.476 30.12C243.876 29.7 244.356 29.37 244.916 29.13C245.476 28.89 246.136 28.77 246.896 28.77H248.366V32.85H245.066C243.966 32.85 243.136 33.18 242.576 33.84C242.016 34.48 241.736 35.27 241.736 36.21V40.8H246.836V44.25H233.726V40.8ZM254.264 22.05H258.704V31.59H258.914C259.294 30.67 259.844 29.91 260.564 29.31C261.284 28.71 262.264 28.41 263.504 28.41C264.364 28.41 265.144 28.57 265.844 28.89C266.564 29.21 267.174 29.7 267.674 30.36C268.194 31.02 268.594 31.86 268.874 32.88C269.174 33.9 269.324 35.11 269.324 36.51C269.324 37.91 269.174 39.12 268.874 40.14C268.594 41.16 268.194 42 267.674 42.66C267.174 43.32 266.564 43.81 265.844 44.13C265.144 44.45 264.364 44.61 263.504 44.61C262.264 44.61 261.284 44.32 260.564 43.74C259.844 43.14 259.294 42.37 258.914 41.43H258.704V44.25H254.264V22.05ZM261.584 41.16C262.584 41.16 263.354 40.86 263.894 40.26C264.434 39.64 264.704 38.79 264.704 37.71V35.31C264.704 34.23 264.434 33.39 263.894 32.79C263.354 32.17 262.584 31.86 261.584 31.86C260.804 31.86 260.124 32.05 259.544 32.43C258.984 32.81 258.704 33.41 258.704 34.23V38.79C258.704 39.61 258.984 40.21 259.544 40.59C260.124 40.97 260.804 41.16 261.584 41.16ZM282.482 44.61C281.282 44.61 280.202 44.43 279.242 44.07C278.282 43.69 277.462 43.15 276.782 42.45C276.122 41.75 275.612 40.9 275.252 39.9C274.892 38.9 274.712 37.77 274.712 36.51C274.712 35.25 274.892 34.12 275.252 33.12C275.612 32.12 276.122 31.27 276.782 30.57C277.462 29.87 278.282 29.34 279.242 28.98C280.202 28.6 281.282 28.41 282.482 28.41C283.682 28.41 284.762 28.6 285.722 28.98C286.682 29.34 287.492 29.87 288.152 30.57C288.832 31.27 289.352 32.12 289.712 33.12C290.072 34.12 290.252 35.25 290.252 36.51C290.252 37.77 290.072 38.9 289.712 39.9C289.352 40.9 288.832 41.75 288.152 42.45C287.492 43.15 286.682 43.69 285.722 44.07C284.762 44.43 283.682 44.61 282.482 44.61ZM282.482 41.31C283.482 41.31 284.262 41 284.822 40.38C285.382 39.76 285.662 38.88 285.662 37.74V35.28C285.662 34.14 285.382 33.26 284.822 32.64C284.262 32.02 283.482 31.71 282.482 31.71C281.482 31.71 280.702 32.02 280.142 32.64C279.582 33.26 279.302 34.14 279.302 35.28V37.74C279.302 38.88 279.582 39.76 280.142 40.38C280.702 41 281.482 41.31 282.482 41.31ZM309.081 44.25C308.161 44.25 307.421 44.02 306.861 43.56C306.301 43.08 305.971 42.4 305.871 41.52H305.721C305.441 42.54 304.881 43.31 304.041 43.83C303.221 44.35 302.211 44.61 301.011 44.61C299.511 44.61 298.301 44.21 297.381 43.41C296.481 42.59 296.031 41.45 296.031 39.99C296.031 38.37 296.621 37.17 297.801 36.39C298.981 35.61 300.711 35.22 302.991 35.22H305.481V34.44C305.481 33.52 305.261 32.83 304.821 32.37C304.401 31.89 303.681 31.65 302.661 31.65C301.721 31.65 300.961 31.83 300.381 32.19C299.801 32.55 299.301 33.02 298.881 33.6L296.451 31.44C296.971 30.56 297.781 29.84 298.881 29.28C300.001 28.7 301.431 28.41 303.171 28.41C305.291 28.41 306.941 28.9 308.121 29.88C309.321 30.84 309.921 32.3 309.921 34.26V41.04H311.631V44.25H309.081ZM302.691 41.7C303.471 41.7 304.131 41.51 304.671 41.13C305.211 40.75 305.481 40.2 305.481 39.48V37.62H303.111C301.291 37.62 300.381 38.23 300.381 39.45V40.05C300.381 40.59 300.591 41 301.011 41.28C301.431 41.56 301.991 41.7 302.691 41.7ZM317.679 40.8H321.249V32.22H317.679V28.77H325.689V33.15H325.899C326.039 32.59 326.229 32.05 326.469 31.53C326.729 30.99 327.049 30.52 327.429 30.12C327.829 29.7 328.309 29.37 328.869 29.13C329.429 28.89 330.089 28.77 330.849 28.77H332.319V32.85H329.019C327.919 32.85 327.089 33.18 326.529 33.84C325.969 34.48 325.689 35.27 325.689 36.21V40.8H330.789V44.25H317.679V40.8ZM348.237 41.43H348.027C347.627 42.37 347.067 43.14 346.347 43.74C345.647 44.32 344.677 44.61 343.437 44.61C342.577 44.61 341.787 44.45 341.067 44.13C340.367 43.81 339.757 43.32 339.237 42.66C338.737 42 338.337 41.16 338.037 40.14C337.757 39.12 337.617 37.91 337.617 36.51C337.617 35.11 337.757 33.9 338.037 32.88C338.337 31.86 338.737 31.02 339.237 30.36C339.757 29.7 340.367 29.21 341.067 28.89C341.787 28.57 342.577 28.41 343.437 28.41C344.057 28.41 344.607 28.49 345.087 28.65C345.567 28.81 345.987 29.03 346.347 29.31C346.727 29.59 347.047 29.93 347.307 30.33C347.587 30.71 347.827 31.13 348.027 31.59H348.237V22.05H352.677V44.25H348.237V41.43ZM345.357 41.16C346.137 41.16 346.807 40.97 347.367 40.59C347.947 40.21 348.237 39.61 348.237 38.79V34.23C348.237 33.41 347.947 32.81 347.367 32.43C346.807 32.05 346.137 31.86 345.357 31.86C344.357 31.86 343.587 32.17 343.047 32.79C342.507 33.39 342.237 34.23 342.237 35.31V37.71C342.237 38.79 342.507 39.64 343.047 40.26C343.587 40.86 344.357 41.16 345.357 41.16Z" fill="white"/>
</svg>
